<svg width="113" height="139" viewBox="0 0 113 139" fill="none" xmlns="http://www.w3.org/2000/svg">
<rect x="0.428571" y="0.428571" width="111.173" height="138.143" rx="8.57143" fill="#1B1B1B" stroke="#333333" stroke-width="0.857143"/>
<path d="M100.114 6.91504H11.915C9.15362 6.91504 6.91504 9.15362 6.91504 11.915V100.114C6.91504 102.875 9.15362 105.114 11.915 105.114H100.114C102.875 105.114 105.114 102.875 105.114 100.114V11.915C105.114 9.15362 102.875 6.91504 100.114 6.91504Z" fill="white"/>
<path d="M15.0887 12.4482H12.4482V15.0887H15.0887V12.4482Z" fill="black"/>
<path d="M17.7291 12.4482H15.0887V15.0887H17.7291V12.4482Z" fill="black"/>
<path d="M20.3695 12.4482H17.7291V15.0887H20.3695V12.4482Z" fill="black"/>
<path d="M23.01 12.4482H20.3695V15.0887H23.01V12.4482Z" fill="black"/>
<path d="M25.6504 12.4482H23.01V15.0887H25.6504V12.4482Z" fill="black"/>
<path d="M28.2908 12.4482H25.6504V15.0887H28.2908V12.4482Z" fill="black"/>
<path d="M30.9313 12.4482H28.2908V15.0887H30.9313V12.4482Z" fill="black"/>
<path d="M36.2122 12.4482H33.5717V15.0887H36.2122V12.4482Z" fill="black"/>
<path d="M41.493 12.4482H38.8526V15.0887H41.493V12.4482Z" fill="black"/>
<path d="M49.4143 12.4482H46.7739V15.0887H49.4143V12.4482Z" fill="black"/>
<path d="M57.3356 12.4482H54.6952V15.0887H57.3356V12.4482Z" fill="black"/>
<path d="M62.6165 12.4482H59.9761V15.0887H62.6165V12.4482Z" fill="black"/>
<path d="M65.2569 12.4482H62.6165V15.0887H65.2569V12.4482Z" fill="black"/>
<path d="M67.8974 12.4482H65.2569V15.0887H67.8974V12.4482Z" fill="black"/>
<path d="M70.5378 12.4482H67.8974V15.0887H70.5378V12.4482Z" fill="black"/>
<path d="M73.1782 12.4482H70.5378V15.0887H73.1782V12.4482Z" fill="black"/>
<path d="M75.8187 12.4482H73.1782V15.0887H75.8187V12.4482Z" fill="black"/>
<path d="M78.4591 12.4482H75.8187V15.0887H78.4591V12.4482Z" fill="black"/>
<path d="M83.74 12.4482H81.0995V15.0887H83.74V12.4482Z" fill="black"/>
<path d="M86.3804 12.4482H83.74V15.0887H86.3804V12.4482Z" fill="black"/>
<path d="M89.0208 12.4482H86.3804V15.0887H89.0208V12.4482Z" fill="black"/>
<path d="M91.6613 12.4482H89.0208V15.0887H91.6613V12.4482Z" fill="black"/>
<path d="M94.3017 12.4482H91.6613V15.0887H94.3017V12.4482Z" fill="black"/>
<path d="M96.9421 12.4482H94.3017V15.0887H96.9421V12.4482Z" fill="black"/>
<path d="M99.5826 12.4482H96.9421V15.0887H99.5826V12.4482Z" fill="black"/>
<path d="M15.0887 15.0887H12.4482V17.7291H15.0887V15.0887Z" fill="black"/>
<path d="M30.9313 15.0887H28.2908V17.7291H30.9313V15.0887Z" fill="black"/>
<path d="M38.8526 15.0887H36.2122V17.7291H38.8526V15.0887Z" fill="black"/>
<path d="M41.493 15.0887H38.8526V17.7291H41.493V15.0887Z" fill="black"/>
<path d="M44.1335 15.0887H41.493V17.7291H44.1335V15.0887Z" fill="black"/>
<path d="M49.4143 15.0887H46.7739V17.7291H49.4143V15.0887Z" fill="black"/>
<path d="M54.6952 15.0887H52.0548V17.7291H54.6952V15.0887Z" fill="black"/>
<path d="M62.6165 15.0887H59.9761V17.7291H62.6165V15.0887Z" fill="black"/>
<path d="M65.2569 15.0887H62.6165V17.7291H65.2569V15.0887Z" fill="black"/>
<path d="M67.8974 15.0887H65.2569V17.7291H67.8974V15.0887Z" fill="black"/>
<path d="M78.4591 15.0887H75.8187V17.7291H78.4591V15.0887Z" fill="black"/>
<path d="M83.74 15.0887H81.0995V17.7291H83.74V15.0887Z" fill="black"/>
<path d="M99.5826 15.0887H96.9421V17.7291H99.5826V15.0887Z" fill="black"/>
<path d="M15.0887 17.7291H12.4482V20.3695H15.0887V17.7291Z" fill="black"/>
<path d="M20.3695 17.7291H17.7291V20.3695H20.3695V17.7291Z" fill="black"/>
<path d="M23.01 17.7291H20.3695V20.3695H23.01V17.7291Z" fill="black"/>
<path d="M25.6504 17.7291H23.01V20.3695H25.6504V17.7291Z" fill="black"/>
<path d="M30.9313 17.7291H28.2908V20.3695H30.9313V17.7291Z" fill="black"/>
<path d="M38.8526 17.7291H36.2122V20.3695H38.8526V17.7291Z" fill="black"/>
<path d="M41.493 17.7291H38.8526V20.3695H41.493V17.7291Z" fill="black"/>
<path d="M44.1335 17.7291H41.493V20.3695H44.1335V17.7291Z" fill="black"/>
<path d="M49.4143 17.7291H46.7739V20.3695H49.4143V17.7291Z" fill="black"/>
<path d="M54.6952 17.7291H52.0548V20.3695H54.6952V17.7291Z" fill="black"/>
<path d="M59.9761 17.7291H57.3356V20.3695H59.9761V17.7291Z" fill="black"/>
<path d="M65.2569 17.7291H62.6165L62.6165 20.3695H65.2569V17.7291Z" fill="black"/>
<path d="M67.8974 17.7291H65.2569V20.3695H67.8974V17.7291Z" fill="black"/>
<path d="M83.74 17.7291H81.0995V20.3695H83.74V17.7291Z" fill="black"/>
<path d="M89.0208 17.7291H86.3804V20.3695H89.0208V17.7291Z" fill="black"/>
<path d="M91.6613 17.7291H89.0208V20.3695H91.6613V17.7291Z" fill="black"/>
<path d="M94.3017 17.7291H91.6613V20.3695H94.3017V17.7291Z" fill="black"/>
<path d="M99.5826 17.7291H96.9421V20.3695H99.5826V17.7291Z" fill="black"/>
<path d="M15.0887 20.3695H12.4482V23.01H15.0887V20.3695Z" fill="black"/>
<path d="M20.3695 20.3695H17.7291V23.01H20.3695V20.3695Z" fill="black"/>
<path d="M23.01 20.3695H20.3695V23.01H23.01V20.3695Z" fill="black"/>
<path d="M25.6504 20.3695H23.01V23.01H25.6504V20.3695Z" fill="black"/>
<path d="M30.9313 20.3695H28.2908V23.01H30.9313V20.3695Z" fill="black"/>
<path d="M36.2122 20.3695H33.5717V23.01H36.2122V20.3695Z" fill="black"/>
<path d="M38.8526 20.3695H36.2122V23.01H38.8526V20.3695Z" fill="black"/>
<path d="M41.493 20.3695H38.8526V23.01H41.493V20.3695Z" fill="black"/>
<path d="M46.7739 20.3695H44.1335V23.01H46.7739V20.3695Z" fill="black"/>
<path d="M54.6952 20.3695H52.0548V23.01H54.6952V20.3695Z" fill="black"/>
<path d="M59.9761 20.3695H57.3356V23.01H59.9761V20.3695Z" fill="black"/>
<path d="M62.6165 20.3695H59.9761V23.01H62.6165L62.6165 20.3695Z" fill="black"/>
<path d="M67.8974 20.3695H65.2569V23.01H67.8974V20.3695Z" fill="black"/>
<path d="M73.1782 20.3695H70.5378V23.01H73.1782V20.3695Z" fill="black"/>
<path d="M75.8187 20.3695H73.1782V23.01H75.8187V20.3695Z" fill="black"/>
<path d="M78.4591 20.3695H75.8187V23.01H78.4591V20.3695Z" fill="black"/>
<path d="M83.74 20.3695H81.0995V23.01H83.74V20.3695Z" fill="black"/>
<path d="M89.0208 20.3695H86.3804V23.01H89.0208V20.3695Z" fill="black"/>
<path d="M91.6613 20.3695H89.0208V23.01H91.6613V20.3695Z" fill="black"/>
<path d="M94.3017 20.3695H91.6613V23.01H94.3017V20.3695Z" fill="black"/>
<path d="M99.5826 20.3695H96.9421V23.01H99.5826V20.3695Z" fill="black"/>
<path d="M15.0887 23.01H12.4482V25.6504H15.0887V23.01Z" fill="black"/>
<path d="M20.3695 23.01H17.7291V25.6504H20.3695V23.01Z" fill="black"/>
<path d="M23.01 23.01H20.3695V25.6504H23.01V23.01Z" fill="black"/>
<path d="M25.6504 23.01H23.01V25.6504H25.6504V23.01Z" fill="black"/>
<path d="M30.9313 23.01H28.2908V25.6504H30.9313V23.01Z" fill="black"/>
<path d="M36.2122 23.01H33.5717V25.6504H36.2122V23.01Z" fill="black"/>
<path d="M38.8526 23.01H36.2122V25.6504H38.8526V23.01Z" fill="black"/>
<path d="M44.1335 23.01H41.493V25.6504H44.1335V23.01Z" fill="black"/>
<path d="M46.7739 23.01H44.1335V25.6504H46.7739V23.01Z" fill="black"/>
<path d="M52.0548 23.01H49.4143V25.6504H52.0548V23.01Z" fill="black"/>
<path d="M54.6952 23.01H52.0548V25.6504H54.6952V23.01Z" fill="black"/>
<path d="M57.3356 23.01H54.6952V25.6504H57.3356V23.01Z" fill="black"/>
<path d="M62.6165 23.01H59.9761V25.6504H62.6165V23.01Z" fill="black"/>
<path d="M65.2569 23.01H62.6165V25.6504H65.2569V23.01Z" fill="black"/>
<path d="M73.1782 23.01H70.5378V25.6504H73.1782V23.01Z" fill="black"/>
<path d="M83.74 23.01H81.0995V25.6504H83.74V23.01Z" fill="black"/>
<path d="M89.0208 23.01H86.3804V25.6504H89.0208V23.01Z" fill="black"/>
<path d="M91.6613 23.01H89.0208V25.6504H91.6613V23.01Z" fill="black"/>
<path d="M94.3017 23.01H91.6613V25.6504H94.3017V23.01Z" fill="black"/>
<path d="M99.5826 23.01H96.9421V25.6504H99.5826V23.01Z" fill="black"/>
<path d="M15.0887 25.6504H12.4482V28.2908H15.0887V25.6504Z" fill="black"/>
<path d="M30.9313 25.6504H28.2908V28.2908H30.9313V25.6504Z" fill="black"/>
<path d="M36.2122 25.6504H33.5717V28.2908H36.2122V25.6504Z" fill="black"/>
<path d="M38.8526 25.6504H36.2122V28.2908H38.8526V25.6504Z" fill="black"/>
<path d="M52.0548 25.6504H49.4143V28.2908H52.0548V25.6504Z" fill="black"/>
<path d="M54.6952 25.6504H52.0548V28.2908H54.6952V25.6504Z" fill="black"/>
<path d="M67.8974 25.6504H65.2569V28.2908H67.8974V25.6504Z" fill="black"/>
<path d="M70.5378 25.6504H67.8974V28.2908H70.5378V25.6504Z" fill="black"/>
<path d="M78.4591 25.6504H75.8187V28.2908H78.4591V25.6504Z" fill="black"/>
<path d="M83.74 25.6504H81.0995V28.2908H83.74V25.6504Z" fill="black"/>
<path d="M99.5826 25.6504H96.9421V28.2908H99.5826V25.6504Z" fill="black"/>
<path d="M15.0887 28.2908H12.4482V30.9313H15.0887V28.2908Z" fill="black"/>
<path d="M17.7291 28.2908H15.0887V30.9313H17.7291V28.2908Z" fill="black"/>
<path d="M20.3695 28.2908H17.7291V30.9313H20.3695V28.2908Z" fill="black"/>
<path d="M23.01 28.2908H20.3695V30.9313H23.01V28.2908Z" fill="black"/>
<path d="M25.6504 28.2908H23.01V30.9313H25.6504V28.2908Z" fill="black"/>
<path d="M28.2908 28.2908H25.6504V30.9313H28.2908V28.2908Z" fill="black"/>
<path d="M30.9313 28.2908H28.2908V30.9313H30.9313V28.2908Z" fill="black"/>
<path d="M36.2122 28.2908H33.5717V30.9313H36.2122V28.2908Z" fill="black"/>
<path d="M41.493 28.2908H38.8526V30.9313H41.493V28.2908Z" fill="black"/>
<path d="M46.7739 28.2908H44.1335V30.9313H46.7739V28.2908Z" fill="black"/>
<path d="M52.0548 28.2908H49.4143V30.9313H52.0548V28.2908Z" fill="black"/>
<path d="M57.3356 28.2908H54.6952V30.9313H57.3356V28.2908Z" fill="black"/>
<path d="M62.6165 28.2908H59.9761V30.9313H62.6165V28.2908Z" fill="black"/>
<path d="M67.8974 28.2908H65.2569V30.9313H67.8974V28.2908Z" fill="black"/>
<path d="M73.1782 28.2908H70.5378V30.9313H73.1782V28.2908Z" fill="black"/>
<path d="M78.4591 28.2908H75.8187V30.9313H78.4591V28.2908Z" fill="black"/>
<path d="M83.74 28.2908H81.0995V30.9313H83.74V28.2908Z" fill="black"/>
<path d="M86.3804 28.2908H83.74V30.9313H86.3804V28.2908Z" fill="black"/>
<path d="M89.0208 28.2908H86.3804V30.9313H89.0208V28.2908Z" fill="black"/>
<path d="M91.6613 28.2908H89.0208V30.9313H91.6613V28.2908Z" fill="black"/>
<path d="M94.3017 28.2908H91.6613V30.9313H94.3017V28.2908Z" fill="black"/>
<path d="M96.9421 28.2908H94.3017V30.9313H96.9421V28.2908Z" fill="black"/>
<path d="M99.5826 28.2908H96.9421V30.9313H99.5826V28.2908Z" fill="black"/>
<path d="M36.2122 30.9313H33.5717V33.5717H36.2122V30.9313Z" fill="black"/>
<path d="M38.8526 30.9313H36.2122V33.5717H38.8526V30.9313Z" fill="black"/>
<path d="M41.493 30.9313H38.8526V33.5717H41.493V30.9313Z" fill="black"/>
<path d="M46.7739 30.9313H44.1335V33.5717H46.7739V30.9313Z" fill="black"/>
<path d="M52.0548 30.9313H49.4143V33.5717H52.0548V30.9313Z" fill="black"/>
<path d="M57.3356 30.9313H54.6952V33.5717H57.3356V30.9313Z" fill="black"/>
<path d="M65.2569 30.9313H62.6165L62.6165 33.5717H65.2569V30.9313Z" fill="black"/>
<path d="M67.8974 30.9313H65.2569V33.5717H67.8974V30.9313Z" fill="black"/>
<path d="M73.1782 30.9313H70.5378V33.5717H73.1782V30.9313Z" fill="black"/>
<path d="M78.4591 30.9313H75.8187V33.5717H78.4591V30.9313Z" fill="black"/>
<path d="M15.0887 33.5717H12.4482V36.2122H15.0887V33.5717Z" fill="black"/>
<path d="M17.7291 33.5717H15.0887V36.2122H17.7291V33.5717Z" fill="black"/>
<path d="M20.3695 33.5717H17.7291V36.2122H20.3695V33.5717Z" fill="black"/>
<path d="M25.6504 33.5717H23.01V36.2122H25.6504V33.5717Z" fill="black"/>
<path d="M30.9313 33.5717H28.2908V36.2122H30.9313V33.5717Z" fill="black"/>
<path d="M36.2122 33.5717H33.5717V36.2122H36.2122V33.5717Z" fill="black"/>
<path d="M38.8526 33.5717H36.2122V36.2122H38.8526V33.5717Z" fill="black"/>
<path d="M52.0548 33.5717H49.4143V36.2122H52.0548V33.5717Z" fill="black"/>
<path d="M54.6952 33.5717H52.0548V36.2122H54.6952V33.5717Z" fill="black"/>
<path d="M62.6165 33.5717H59.9761V36.2122H62.6165L62.6165 33.5717Z" fill="black"/>
<path d="M65.2569 33.5717H62.6165L62.6165 36.2122H65.2569V33.5717Z" fill="black"/>
<path d="M73.1782 33.5717H70.5378V36.2122H73.1782V33.5717Z" fill="black"/>
<path d="M78.4591 33.5717H75.8187V36.2122H78.4591V33.5717Z" fill="black"/>
<path d="M81.0995 33.5717H78.4591V36.2122H81.0995V33.5717Z" fill="black"/>
<path d="M83.74 33.5717H81.0995V36.2122H83.74V33.5717Z" fill="black"/>
<path d="M86.3804 33.5717H83.74V36.2122H86.3804V33.5717Z" fill="black"/>
<path d="M89.0208 33.5717H86.3804V36.2122H89.0208V33.5717Z" fill="black"/>
<path d="M91.6613 33.5717H89.0208V36.2122H91.6613V33.5717Z" fill="black"/>
<path d="M99.5826 33.5717H96.9421V36.2122H99.5826V33.5717Z" fill="black"/>
<path d="M17.7291 36.2122H15.0887V38.8526H17.7291V36.2122Z" fill="black"/>
<path d="M44.1335 36.2122H41.493V38.8526H44.1335V36.2122Z" fill="black"/>
<path d="M46.7739 36.2122H44.1335V38.8526H46.7739V36.2122Z" fill="black"/>
<path d="M49.4143 36.2122H46.7739V38.8526H49.4143V36.2122Z" fill="black"/>
<path d="M65.2569 36.2122H62.6165L62.6165 38.8526H65.2569V36.2122Z" fill="black"/>
<path d="M73.1782 36.2122H70.5378V38.8526H73.1782V36.2122Z" fill="black"/>
<path d="M75.8187 36.2122H73.1782V38.8526H75.8187V36.2122Z" fill="black"/>
<path d="M81.0995 36.2122H78.4591V38.8526H81.0995V36.2122Z" fill="black"/>
<path d="M83.74 36.2122H81.0995V38.8526H83.74V36.2122Z" fill="black"/>
<path d="M86.3804 36.2122H83.74V38.8526H86.3804V36.2122Z" fill="black"/>
<path d="M89.0208 36.2122H86.3804V38.8526H89.0208V36.2122Z" fill="black"/>
<path d="M91.6613 36.2122H89.0208V38.8526H91.6613V36.2122Z" fill="black"/>
<path d="M96.9421 36.2122H94.3017V38.8526H96.9421V36.2122Z" fill="black"/>
<path d="M15.0887 38.8526H12.4482V41.493H15.0887V38.8526Z" fill="black"/>
<path d="M30.9313 38.8526H28.2908V41.493H30.9313V38.8526Z" fill="black"/>
<path d="M36.2122 38.8526H33.5717V41.493H36.2122V38.8526Z" fill="black"/>
<path d="M41.493 38.8526H38.8526V41.493H41.493V38.8526Z" fill="black"/>
<path d="M44.1335 38.8526H41.493V41.493H44.1335V38.8526Z" fill="black"/>
<path d="M46.7739 38.8526H44.1335V41.493H46.7739V38.8526Z" fill="black"/>
<path d="M49.4143 38.8526H46.7739V41.493H49.4143V38.8526Z" fill="black"/>
<path d="M54.6952 38.8526H52.0548V41.493H54.6952V38.8526Z" fill="black"/>
<path d="M73.1782 38.8526H70.5378V41.493H73.1782V38.8526Z" fill="black"/>
<path d="M81.0995 38.8526H78.4591V41.493H81.0995V38.8526Z" fill="black"/>
<path d="M83.74 38.8526H81.0995V41.493H83.74V38.8526Z" fill="black"/>
<path d="M94.3017 38.8526H91.6613V41.493H94.3017V38.8526Z" fill="black"/>
<path d="M96.9421 38.8526H94.3017V41.493H96.9421V38.8526Z" fill="black"/>
<path d="M99.5826 38.8526H96.9421V41.493H99.5826V38.8526Z" fill="black"/>
<path d="M15.0887 41.493H12.4482V44.1335H15.0887V41.493Z" fill="black"/>
<path d="M20.3695 41.493H17.7291V44.1335H20.3695V41.493Z" fill="black"/>
<path d="M23.01 41.493H20.3695V44.1335H23.01V41.493Z" fill="black"/>
<path d="M25.6504 41.493H23.01V44.1335H25.6504V41.493Z" fill="black"/>
<path d="M38.8526 41.493H36.2122V44.1335H38.8526V41.493Z" fill="black"/>
<path d="M44.1335 41.493H41.493V44.1335H44.1335V41.493Z" fill="black"/>
<path d="M46.7739 41.493H44.1335V44.1335H46.7739V41.493Z" fill="black"/>
<path d="M49.4143 41.493H46.7739V44.1335H49.4143V41.493Z" fill="black"/>
<path d="M52.0548 41.493H49.4143V44.1335H52.0548V41.493Z" fill="black"/>
<path d="M59.9761 41.493H57.3356V44.1335H59.9761V41.493Z" fill="black"/>
<path d="M65.2569 41.493H62.6165V44.1335H65.2569V41.493Z" fill="black"/>
<path d="M67.8974 41.493H65.2569V44.1335H67.8974V41.493Z" fill="black"/>
<path d="M78.4591 41.493H75.8187V44.1335H78.4591V41.493Z" fill="black"/>
<path d="M86.3804 41.493H83.74V44.1335H86.3804V41.493Z" fill="black"/>
<path d="M94.3017 41.493H91.6613V44.1335H94.3017V41.493Z" fill="black"/>
<path d="M25.6504 44.1335H23.01V46.7739H25.6504V44.1335Z" fill="black"/>
<path d="M30.9313 44.1335H28.2908V46.7739H30.9313V44.1335Z" fill="black"/>
<path d="M44.1335 44.1335H41.493V46.7739H44.1335V44.1335Z" fill="black"/>
<path d="M49.4143 44.1335H46.7739V46.7739H49.4143V44.1335Z" fill="black"/>
<path d="M52.0548 44.1335H49.4143V46.7739H52.0548V44.1335Z" fill="black"/>
<path d="M65.2569 44.1335H62.6165V46.7739H65.2569V44.1335Z" fill="black"/>
<path d="M67.8974 44.1335H65.2569V46.7739H67.8974V44.1335Z" fill="black"/>
<path d="M78.4591 44.1335H75.8187V46.7739H78.4591V44.1335Z" fill="black"/>
<path d="M81.0995 44.1335H78.4591V46.7739H81.0995V44.1335Z" fill="black"/>
<path d="M83.74 44.1335H81.0995V46.7739H83.74V44.1335Z" fill="black"/>
<path d="M86.3804 44.1335H83.74V46.7739H86.3804V44.1335Z" fill="black"/>
<path d="M89.0208 44.1335H86.3804V46.7739H89.0208V44.1335Z" fill="black"/>
<path d="M91.6613 44.1335H89.0208V46.7739H91.6613V44.1335Z" fill="black"/>
<path d="M94.3017 44.1335H91.6613V46.7739H94.3017V44.1335Z" fill="black"/>
<path d="M99.5826 44.1335H96.9421V46.7739H99.5826V44.1335Z" fill="black"/>
<path d="M15.0887 46.7739H12.4482V49.4143H15.0887V46.7739Z" fill="black"/>
<path d="M17.7291 46.7739H15.0887V49.4143H17.7291V46.7739Z" fill="black"/>
<path d="M20.3695 46.7739H17.7291V49.4143H20.3695V46.7739Z" fill="black"/>
<path d="M25.6504 46.7739H23.01V49.4143H25.6504V46.7739Z" fill="black"/>
<path d="M28.2908 46.7739H25.6504V49.4143H28.2908V46.7739Z" fill="black"/>
<path d="M33.5717 46.7739H30.9313V49.4143H33.5717V46.7739Z" fill="black"/>
<path d="M38.8526 46.7739H36.2122V49.4143H38.8526V46.7739Z" fill="black"/>
<path d="M41.493 46.7739H38.8526V49.4143H41.493V46.7739Z" fill="black"/>
<path d="M44.1335 46.7739H41.493V49.4143H44.1335V46.7739Z" fill="black"/>
<path d="M46.7739 46.7739H44.1335V49.4143H46.7739V46.7739Z" fill="black"/>
<path d="M52.0548 46.7739H49.4143V49.4143H52.0548V46.7739Z" fill="black"/>
<path d="M62.6165 46.7739H59.9761V49.4143H62.6165L62.6165 46.7739Z" fill="black"/>
<path d="M65.2569 46.7739H62.6165L62.6165 49.4143H65.2569V46.7739Z" fill="black"/>
<path d="M67.8974 46.7739H65.2569V49.4143H67.8974V46.7739Z" fill="black"/>
<path d="M70.5378 46.7739H67.8974V49.4143H70.5378V46.7739Z" fill="black"/>
<path d="M73.1782 46.7739H70.5378V49.4143H73.1782V46.7739Z" fill="black"/>
<path d="M75.8187 46.7739H73.1782V49.4143H75.8187V46.7739Z" fill="black"/>
<path d="M78.4591 46.7739H75.8187V49.4143H78.4591V46.7739Z" fill="black"/>
<path d="M81.0995 46.7739H78.4591V49.4143H81.0995V46.7739Z" fill="black"/>
<path d="M89.0208 46.7739H86.3804V49.4143H89.0208V46.7739Z" fill="black"/>
<path d="M91.6613 46.7739H89.0208V49.4143H91.6613V46.7739Z" fill="black"/>
<path d="M94.3017 46.7739H91.6613V49.4143H94.3017V46.7739Z" fill="black"/>
<path d="M96.9421 46.7739H94.3017V49.4143H96.9421V46.7739Z" fill="black"/>
<path d="M15.0887 49.4143H12.4482V52.0548H15.0887V49.4143Z" fill="black"/>
<path d="M17.7291 49.4143H15.0887V52.0548H17.7291V49.4143Z" fill="black"/>
<path d="M20.3695 49.4143H17.7291V52.0548H20.3695V49.4143Z" fill="black"/>
<path d="M23.01 49.4143H20.3695V52.0548H23.01V49.4143Z" fill="black"/>
<path d="M28.2908 49.4143H25.6504V52.0548H28.2908V49.4143Z" fill="black"/>
<path d="M30.9313 49.4143H28.2908V52.0548H30.9313V49.4143Z" fill="black"/>
<path d="M36.2122 49.4143H33.5717V52.0548H36.2122V49.4143Z" fill="black"/>
<path d="M38.8526 49.4143H36.2122V52.0548H38.8526V49.4143Z" fill="black"/>
<path d="M49.4143 49.4143H46.7739V52.0548H49.4143V49.4143Z" fill="black"/>
<path d="M52.0548 49.4143H49.4143V52.0548H52.0548V49.4143Z" fill="black"/>
<path d="M57.3356 49.4143H54.6952V52.0548H57.3356V49.4143Z" fill="black"/>
<path d="M59.9761 49.4143H57.3356V52.0548H59.9761V49.4143Z" fill="black"/>
<path d="M67.8974 49.4143H65.2569V52.0548H67.8974V49.4143Z" fill="black"/>
<path d="M75.8187 49.4143H73.1782V52.0548H75.8187V49.4143Z" fill="black"/>
<path d="M81.0995 49.4143H78.4591V52.0548H81.0995V49.4143Z" fill="black"/>
<path d="M83.74 49.4143H81.0995V52.0548H83.74V49.4143Z" fill="black"/>
<path d="M89.0208 49.4143H86.3804V52.0548H89.0208V49.4143Z" fill="black"/>
<path d="M94.3017 49.4143H91.6613V52.0548H94.3017V49.4143Z" fill="black"/>
<path d="M99.5826 49.4143H96.9421V52.0548H99.5826V49.4143Z" fill="black"/>
<path d="M20.3695 52.0548H17.7291V54.6952H20.3695V52.0548Z" fill="black"/>
<path d="M25.6504 52.0548H23.01V54.6952H25.6504V52.0548Z" fill="black"/>
<path d="M28.2908 52.0548H25.6504V54.6952H28.2908V52.0548Z" fill="black"/>
<path d="M33.5717 52.0548H30.9313V54.6952H33.5717V52.0548Z" fill="black"/>
<path d="M38.8526 52.0548H36.2122V54.6952H38.8526V52.0548Z" fill="black"/>
<path d="M41.493 52.0548H38.8526V54.6952H41.493V52.0548Z" fill="black"/>
<path d="M46.7739 52.0548H44.1335V54.6952H46.7739V52.0548Z" fill="black"/>
<path d="M52.0548 52.0548H49.4143V54.6952H52.0548V52.0548Z" fill="black"/>
<path d="M57.3356 52.0548H54.6952V54.6952H57.3356V52.0548Z" fill="black"/>
<path d="M59.9761 52.0548H57.3356V54.6952H59.9761V52.0548Z" fill="black"/>
<path d="M62.6165 52.0548H59.9761V54.6952H62.6165V52.0548Z" fill="black"/>
<path d="M67.8974 52.0548H65.2569V54.6952H67.8974V52.0548Z" fill="black"/>
<path d="M75.8187 52.0548H73.1782V54.6952H75.8187V52.0548Z" fill="black"/>
<path d="M81.0995 52.0548H78.4591V54.6952H81.0995V52.0548Z" fill="black"/>
<path d="M83.74 52.0548H81.0995V54.6952H83.74V52.0548Z" fill="black"/>
<path d="M86.3804 52.0548H83.74V54.6952H86.3804V52.0548Z" fill="black"/>
<path d="M94.3017 52.0548H91.6613V54.6952H94.3017V52.0548Z" fill="black"/>
<path d="M96.9421 52.0548H94.3017V54.6952H96.9421V52.0548Z" fill="black"/>
<path d="M99.5826 52.0548H96.9421V54.6952H99.5826V52.0548Z" fill="black"/>
<path d="M15.0887 54.6952H12.4482V57.3356H15.0887V54.6952Z" fill="black"/>
<path d="M20.3695 54.6952H17.7291V57.3356H20.3695V54.6952Z" fill="black"/>
<path d="M23.01 54.6952H20.3695V57.3356H23.01V54.6952Z" fill="black"/>
<path d="M25.6504 54.6952H23.01V57.3356H25.6504V54.6952Z" fill="black"/>
<path d="M28.2908 54.6952H25.6504V57.3356H28.2908V54.6952Z" fill="black"/>
<path d="M30.9313 54.6952H28.2908V57.3356H30.9313V54.6952Z" fill="black"/>
<path d="M33.5717 54.6952H30.9313V57.3356H33.5717V54.6952Z" fill="black"/>
<path d="M44.1335 54.6952H41.493V57.3356H44.1335V54.6952Z" fill="black"/>
<path d="M54.6952 54.6952H52.0548V57.3356H54.6952V54.6952Z" fill="black"/>
<path d="M57.3356 54.6952H54.6952V57.3356H57.3356V54.6952Z" fill="black"/>
<path d="M67.8974 54.6952H65.2569V57.3356H67.8974V54.6952Z" fill="black"/>
<path d="M78.4591 54.6952H75.8187V57.3356H78.4591V54.6952Z" fill="black"/>
<path d="M81.0995 54.6952H78.4591V57.3356H81.0995V54.6952Z" fill="black"/>
<path d="M91.6613 54.6952H89.0208V57.3356H91.6613V54.6952Z" fill="black"/>
<path d="M99.5826 54.6952H96.9421V57.3356H99.5826V54.6952Z" fill="black"/>
<path d="M15.0887 57.3356H12.4482V59.9761H15.0887V57.3356Z" fill="black"/>
<path d="M17.7291 57.3356H15.0887V59.9761H17.7291V57.3356Z" fill="black"/>
<path d="M23.01 57.3356H20.3695V59.9761H23.01V57.3356Z" fill="black"/>
<path d="M28.2908 57.3356H25.6504V59.9761H28.2908V57.3356Z" fill="black"/>
<path d="M36.2122 57.3356H33.5717V59.9761H36.2122V57.3356Z" fill="black"/>
<path d="M41.493 57.3356H38.8526V59.9761H41.493V57.3356Z" fill="black"/>
<path d="M44.1335 57.3356H41.493V59.9761H44.1335V57.3356Z" fill="black"/>
<path d="M49.4143 57.3356H46.7739V59.9761H49.4143V57.3356Z" fill="black"/>
<path d="M52.0548 57.3356H49.4143V59.9761H52.0548V57.3356Z" fill="black"/>
<path d="M59.9761 57.3356H57.3356V59.9761H59.9761V57.3356Z" fill="black"/>
<path d="M62.6165 57.3356H59.9761V59.9761H62.6165V57.3356Z" fill="black"/>
<path d="M67.8974 57.3356H65.2569V59.9761H67.8974V57.3356Z" fill="black"/>
<path d="M73.1782 57.3356H70.5378V59.9761H73.1782V57.3356Z" fill="black"/>
<path d="M75.8187 57.3356H73.1782V59.9761H75.8187V57.3356Z" fill="black"/>
<path d="M83.74 57.3356H81.0995V59.9761H83.74V57.3356Z" fill="black"/>
<path d="M99.5826 57.3356H96.9421V59.9761H99.5826V57.3356Z" fill="black"/>
<path d="M15.0887 59.9761H12.4482V62.6165H15.0887V59.9761Z" fill="black"/>
<path d="M17.7291 59.9761H15.0887V62.6165H17.7291V59.9761Z" fill="black"/>
<path d="M23.01 59.9761H20.3695V62.6165H23.01V59.9761Z" fill="black"/>
<path d="M30.9313 59.9761H28.2908V62.6165H30.9313V59.9761Z" fill="black"/>
<path d="M36.2122 59.9761H33.5717V62.6165H36.2122V59.9761Z" fill="black"/>
<path d="M38.8526 59.9761H36.2122V62.6165H38.8526V59.9761Z" fill="black"/>
<path d="M41.493 59.9761H38.8526V62.6165H41.493V59.9761Z" fill="black"/>
<path d="M44.1335 59.9761H41.493V62.6165H44.1335V59.9761Z" fill="black"/>
<path d="M46.7739 59.9761H44.1335V62.6165H46.7739V59.9761Z" fill="black"/>
<path d="M65.2569 59.9761H62.6165L62.6165 62.6165H65.2569V59.9761Z" fill="black"/>
<path d="M67.8974 59.9761H65.2569V62.6165H67.8974V59.9761Z" fill="black"/>
<path d="M83.74 59.9761H81.0995V62.6165H83.74V59.9761Z" fill="black"/>
<path d="M86.3804 59.9761H83.74V62.6165H86.3804V59.9761Z" fill="black"/>
<path d="M89.0208 59.9761H86.3804V62.6165H89.0208V59.9761Z" fill="black"/>
<path d="M94.3017 59.9761H91.6613V62.6165H94.3017V59.9761Z" fill="black"/>
<path d="M96.9421 59.9761H94.3017V62.6165H96.9421V59.9761Z" fill="black"/>
<path d="M99.5826 59.9761H96.9421V62.6165H99.5826V59.9761Z" fill="black"/>
<path d="M17.7291 62.6165H15.0887V65.2569H17.7291V62.6165Z" fill="black"/>
<path d="M23.01 62.6165H20.3695V65.2569H23.01V62.6165Z" fill="black"/>
<path d="M25.6504 62.6165L23.01 62.6165V65.2569H25.6504V62.6165Z" fill="black"/>
<path d="M33.5717 62.6165H30.9313V65.2569H33.5717V62.6165Z" fill="black"/>
<path d="M38.8526 62.6165H36.2122V65.2569H38.8526V62.6165Z" fill="black"/>
<path d="M44.1335 62.6165H41.493V65.2569H44.1335V62.6165Z" fill="black"/>
<path d="M46.7739 62.6165H44.1335V65.2569H46.7739V62.6165Z" fill="black"/>
<path d="M52.0548 62.6165H49.4143V65.2569H52.0548V62.6165Z" fill="black"/>
<path d="M54.6952 62.6165H52.0548V65.2569H54.6952V62.6165Z" fill="black"/>
<path d="M59.9761 62.6165H57.3356V65.2569H59.9761V62.6165Z" fill="black"/>
<path d="M62.6165 62.6165L59.9761 62.6165V65.2569H62.6165L62.6165 62.6165Z" fill="black"/>
<path d="M70.5378 62.6165L67.8974 62.6165V65.2569H70.5378V62.6165Z" fill="black"/>
<path d="M75.8187 62.6165H73.1782V65.2569H75.8187V62.6165Z" fill="black"/>
<path d="M78.4591 62.6165H75.8187V65.2569H78.4591V62.6165Z" fill="black"/>
<path d="M83.74 62.6165H81.0995V65.2569H83.74V62.6165Z" fill="black"/>
<path d="M91.6613 62.6165H89.0208V65.2569H91.6613V62.6165Z" fill="black"/>
<path d="M94.3017 62.6165H91.6613V65.2569H94.3017V62.6165Z" fill="black"/>
<path d="M96.9421 62.6165H94.3017V65.2569H96.9421V62.6165Z" fill="black"/>
<path d="M99.5826 62.6165H96.9421V65.2569H99.5826V62.6165Z" fill="black"/>
<path d="M20.3695 65.2569H17.7291V67.8974H20.3695V65.2569Z" fill="black"/>
<path d="M25.6504 65.2569H23.01V67.8974H25.6504V65.2569Z" fill="black"/>
<path d="M28.2908 65.2569H25.6504V67.8974H28.2908V65.2569Z" fill="black"/>
<path d="M30.9313 65.2569H28.2908V67.8974H30.9313V65.2569Z" fill="black"/>
<path d="M33.5717 65.2569H30.9313V67.8974H33.5717V65.2569Z" fill="black"/>
<path d="M49.4143 65.2569H46.7739V67.8974H49.4143V65.2569Z" fill="black"/>
<path d="M52.0548 65.2569H49.4143V67.8974H52.0548V65.2569Z" fill="black"/>
<path d="M57.3356 65.2569H54.6952V67.8974H57.3356V65.2569Z" fill="black"/>
<path d="M59.9761 65.2569H57.3356V67.8974H59.9761V65.2569Z" fill="black"/>
<path d="M62.6165 65.2569H59.9761V67.8974H62.6165V65.2569Z" fill="black"/>
<path d="M67.8974 65.2569H65.2569V67.8974H67.8974V65.2569Z" fill="black"/>
<path d="M70.5378 65.2569H67.8974V67.8974H70.5378V65.2569Z" fill="black"/>
<path d="M73.1782 65.2569H70.5378V67.8974H73.1782V65.2569Z" fill="black"/>
<path d="M78.4591 65.2569H75.8187V67.8974H78.4591V65.2569Z" fill="black"/>
<path d="M81.0995 65.2569H78.4591V67.8974H81.0995V65.2569Z" fill="black"/>
<path d="M83.74 65.2569H81.0995V67.8974H83.74V65.2569Z" fill="black"/>
<path d="M17.7291 67.8974H15.0887V70.5378H17.7291V67.8974Z" fill="black"/>
<path d="M20.3695 67.8974H17.7291V70.5378H20.3695V67.8974Z" fill="black"/>
<path d="M23.01 67.8974H20.3695V70.5378H23.01V67.8974Z" fill="black"/>
<path d="M25.6504 67.8974H23.01V70.5378H25.6504V67.8974Z" fill="black"/>
<path d="M38.8526 67.8974H36.2122V70.5378H38.8526V67.8974Z" fill="black"/>
<path d="M41.493 67.8974H38.8526V70.5378H41.493V67.8974Z" fill="black"/>
<path d="M52.0548 67.8974H49.4143V70.5378H52.0548V67.8974Z" fill="black"/>
<path d="M62.6165 67.8974H59.9761V70.5378H62.6165V67.8974Z" fill="black"/>
<path d="M73.1782 67.8974H70.5378V70.5378H73.1782V67.8974Z" fill="black"/>
<path d="M83.74 67.8974H81.0995V70.5378H83.74V67.8974Z" fill="black"/>
<path d="M91.6613 67.8974H89.0208V70.5378H91.6613V67.8974Z" fill="black"/>
<path d="M94.3017 67.8974H91.6613V70.5378H94.3017V67.8974Z" fill="black"/>
<path d="M15.0887 70.5378H12.4482V73.1782H15.0887V70.5378Z" fill="black"/>
<path d="M17.7291 70.5378H15.0887V73.1782H17.7291V70.5378Z" fill="black"/>
<path d="M28.2908 70.5378H25.6504V73.1782H28.2908V70.5378Z" fill="black"/>
<path d="M30.9313 70.5378H28.2908V73.1782H30.9313V70.5378Z" fill="black"/>
<path d="M33.5717 70.5378H30.9313V73.1782H33.5717V70.5378Z" fill="black"/>
<path d="M52.0548 70.5378H49.4143V73.1782H52.0548V70.5378Z" fill="black"/>
<path d="M54.6952 70.5378H52.0548V73.1782H54.6952V70.5378Z" fill="black"/>
<path d="M57.3356 70.5378H54.6952V73.1782H57.3356V70.5378Z" fill="black"/>
<path d="M67.8974 70.5378H65.2569V73.1782H67.8974V70.5378Z" fill="black"/>
<path d="M75.8187 70.5378H73.1782V73.1782H75.8187V70.5378Z" fill="black"/>
<path d="M83.74 70.5378H81.0995V73.1782H83.74V70.5378Z" fill="black"/>
<path d="M20.3695 73.1782H17.7291V75.8187H20.3695V73.1782Z" fill="black"/>
<path d="M23.01 73.1782H20.3695V75.8187H23.01V73.1782Z" fill="black"/>
<path d="M28.2908 73.1782H25.6504V75.8187H28.2908V73.1782Z" fill="black"/>
<path d="M38.8526 73.1782H36.2122V75.8187H38.8526V73.1782Z" fill="black"/>
<path d="M41.493 73.1782H38.8526V75.8187H41.493V73.1782Z" fill="black"/>
<path d="M46.7739 73.1782H44.1335V75.8187H46.7739V73.1782Z" fill="black"/>
<path d="M49.4143 73.1782H46.7739V75.8187H49.4143V73.1782Z" fill="black"/>
<path d="M54.6952 73.1782H52.0548V75.8187H54.6952V73.1782Z" fill="black"/>
<path d="M62.6165 73.1782H59.9761V75.8187H62.6165V73.1782Z" fill="black"/>
<path d="M70.5378 73.1782H67.8974V75.8187H70.5378V73.1782Z" fill="black"/>
<path d="M73.1782 73.1782H70.5378V75.8187H73.1782V73.1782Z" fill="black"/>
<path d="M75.8187 73.1782H73.1782V75.8187H75.8187V73.1782Z" fill="black"/>
<path d="M81.0995 73.1782H78.4591V75.8187H81.0995V73.1782Z" fill="black"/>
<path d="M83.74 73.1782H81.0995V75.8187H83.74V73.1782Z" fill="black"/>
<path d="M86.3804 73.1782H83.74V75.8187H86.3804V73.1782Z" fill="black"/>
<path d="M89.0208 73.1782H86.3804V75.8187H89.0208V73.1782Z" fill="black"/>
<path d="M91.6613 73.1782H89.0208V75.8187H91.6613V73.1782Z" fill="black"/>
<path d="M94.3017 73.1782H91.6613V75.8187H94.3017V73.1782Z" fill="black"/>
<path d="M99.5826 73.1782H96.9421V75.8187H99.5826V73.1782Z" fill="black"/>
<path d="M17.7291 75.8187H15.0887V78.4591H17.7291V75.8187Z" fill="black"/>
<path d="M23.01 75.8187H20.3695V78.4591H23.01V75.8187Z" fill="black"/>
<path d="M25.6504 75.8187H23.01V78.4591H25.6504V75.8187Z" fill="black"/>
<path d="M30.9313 75.8187H28.2908V78.4591H30.9313V75.8187Z" fill="black"/>
<path d="M36.2122 75.8187H33.5717V78.4591H36.2122V75.8187Z" fill="black"/>
<path d="M38.8526 75.8187H36.2122V78.4591H38.8526V75.8187Z" fill="black"/>
<path d="M44.1335 75.8187H41.493V78.4591H44.1335V75.8187Z" fill="black"/>
<path d="M46.7739 75.8187H44.1335V78.4591H46.7739V75.8187Z" fill="black"/>
<path d="M52.0548 75.8187H49.4143V78.4591H52.0548V75.8187Z" fill="black"/>
<path d="M62.6165 75.8187H59.9761V78.4591H62.6165V75.8187Z" fill="black"/>
<path d="M65.2569 75.8187H62.6165V78.4591H65.2569V75.8187Z" fill="black"/>
<path d="M67.8974 75.8187H65.2569V78.4591H67.8974V75.8187Z" fill="black"/>
<path d="M75.8187 75.8187H73.1782V78.4591H75.8187V75.8187Z" fill="black"/>
<path d="M78.4591 75.8187H75.8187V78.4591H78.4591V75.8187Z" fill="black"/>
<path d="M81.0995 75.8187H78.4591V78.4591H81.0995V75.8187Z" fill="black"/>
<path d="M83.74 75.8187H81.0995V78.4591H83.74V75.8187Z" fill="black"/>
<path d="M86.3804 75.8187H83.74V78.4591H86.3804V75.8187Z" fill="black"/>
<path d="M89.0208 75.8187H86.3804V78.4591H89.0208V75.8187Z" fill="black"/>
<path d="M91.6613 75.8187H89.0208V78.4591H91.6613V75.8187Z" fill="black"/>
<path d="M94.3017 75.8187H91.6613V78.4591H94.3017V75.8187Z" fill="black"/>
<path d="M99.5826 75.8187H96.9421V78.4591H99.5826V75.8187Z" fill="black"/>
<path d="M36.2122 78.4591H33.5717V81.0995H36.2122V78.4591Z" fill="black"/>
<path d="M41.493 78.4591H38.8526V81.0995H41.493V78.4591Z" fill="black"/>
<path d="M44.1335 78.4591H41.493V81.0995H44.1335V78.4591Z" fill="black"/>
<path d="M49.4143 78.4591H46.7739V81.0995H49.4143V78.4591Z" fill="black"/>
<path d="M54.6952 78.4591H52.0548V81.0995H54.6952V78.4591Z" fill="black"/>
<path d="M57.3356 78.4591H54.6952V81.0995H57.3356V78.4591Z" fill="black"/>
<path d="M65.2569 78.4591H62.6165L62.6165 81.0995H65.2569V78.4591Z" fill="black"/>
<path d="M75.8187 78.4591H73.1782V81.0995H75.8187V78.4591Z" fill="black"/>
<path d="M78.4591 78.4591H75.8187V81.0995H78.4591V78.4591Z" fill="black"/>
<path d="M89.0208 78.4591H86.3804V81.0995H89.0208V78.4591Z" fill="black"/>
<path d="M91.6613 78.4591H89.0208V81.0995H91.6613V78.4591Z" fill="black"/>
<path d="M99.5826 78.4591H96.9421V81.0995H99.5826V78.4591Z" fill="black"/>
<path d="M15.0887 81.0995H12.4482V83.74H15.0887V81.0995Z" fill="black"/>
<path d="M17.7291 81.0995H15.0887V83.74H17.7291V81.0995Z" fill="black"/>
<path d="M20.3695 81.0995H17.7291V83.74H20.3695V81.0995Z" fill="black"/>
<path d="M23.01 81.0995H20.3695V83.74H23.01V81.0995Z" fill="black"/>
<path d="M25.6504 81.0995H23.01V83.74H25.6504V81.0995Z" fill="black"/>
<path d="M28.2908 81.0995H25.6504V83.74H28.2908V81.0995Z" fill="black"/>
<path d="M30.9313 81.0995H28.2908V83.74H30.9313V81.0995Z" fill="black"/>
<path d="M44.1335 81.0995H41.493V83.74H44.1335V81.0995Z" fill="black"/>
<path d="M46.7739 81.0995H44.1335V83.74H46.7739V81.0995Z" fill="black"/>
<path d="M52.0548 81.0995H49.4143V83.74H52.0548V81.0995Z" fill="black"/>
<path d="M57.3356 81.0995H54.6952V83.74H57.3356V81.0995Z" fill="black"/>
<path d="M59.9761 81.0995H57.3356V83.74H59.9761V81.0995Z" fill="black"/>
<path d="M73.1782 81.0995H70.5378V83.74H73.1782V81.0995Z" fill="black"/>
<path d="M78.4591 81.0995H75.8187V83.74H78.4591V81.0995Z" fill="black"/>
<path d="M83.74 81.0995H81.0995V83.74H83.74V81.0995Z" fill="black"/>
<path d="M89.0208 81.0995H86.3804V83.74H89.0208V81.0995Z" fill="black"/>
<path d="M15.0887 83.74H12.4482V86.3804H15.0887V83.74Z" fill="black"/>
<path d="M30.9313 83.74H28.2908V86.3804H30.9313V83.74Z" fill="black"/>
<path d="M44.1335 83.74H41.493V86.3804H44.1335V83.74Z" fill="black"/>
<path d="M46.7739 83.74H44.1335V86.3804H46.7739V83.74Z" fill="black"/>
<path d="M49.4143 83.74H46.7739V86.3804H49.4143V83.74Z" fill="black"/>
<path d="M54.6952 83.74H52.0548V86.3804H54.6952V83.74Z" fill="black"/>
<path d="M57.3356 83.74H54.6952V86.3804H57.3356V83.74Z" fill="black"/>
<path d="M62.6165 83.74H59.9761V86.3804H62.6165V83.74Z" fill="black"/>
<path d="M67.8974 83.74H65.2569V86.3804H67.8974V83.74Z" fill="black"/>
<path d="M75.8187 83.74H73.1782V86.3804H75.8187V83.74Z" fill="black"/>
<path d="M78.4591 83.74H75.8187V86.3804H78.4591V83.74Z" fill="black"/>
<path d="M89.0208 83.74H86.3804V86.3804H89.0208V83.74Z" fill="black"/>
<path d="M91.6613 83.74H89.0208V86.3804H91.6613V83.74Z" fill="black"/>
<path d="M94.3017 83.74H91.6613V86.3804H94.3017V83.74Z" fill="black"/>
<path d="M96.9421 83.74H94.3017V86.3804H96.9421V83.74Z" fill="black"/>
<path d="M99.5826 83.74H96.9421V86.3804H99.5826V83.74Z" fill="black"/>
<path d="M15.0887 86.3804H12.4482V89.0208H15.0887V86.3804Z" fill="black"/>
<path d="M20.3695 86.3804H17.7291V89.0208H20.3695V86.3804Z" fill="black"/>
<path d="M23.01 86.3804H20.3695V89.0208H23.01V86.3804Z" fill="black"/>
<path d="M25.6504 86.3804H23.01V89.0208H25.6504V86.3804Z" fill="black"/>
<path d="M30.9313 86.3804H28.2908V89.0208H30.9313V86.3804Z" fill="black"/>
<path d="M36.2122 86.3804H33.5717V89.0208H36.2122V86.3804Z" fill="black"/>
<path d="M38.8526 86.3804H36.2122V89.0208H38.8526V86.3804Z" fill="black"/>
<path d="M41.493 86.3804H38.8526V89.0208H41.493V86.3804Z" fill="black"/>
<path d="M52.0548 86.3804H49.4143V89.0208H52.0548V86.3804Z" fill="black"/>
<path d="M57.3356 86.3804H54.6952V89.0208H57.3356V86.3804Z" fill="black"/>
<path d="M59.9761 86.3804H57.3356V89.0208H59.9761V86.3804Z" fill="black"/>
<path d="M65.2569 86.3804H62.6165L62.6165 89.0208H65.2569V86.3804Z" fill="black"/>
<path d="M70.5378 86.3804H67.8974V89.0208H70.5378V86.3804Z" fill="black"/>
<path d="M78.4591 86.3804H75.8187V89.0208H78.4591V86.3804Z" fill="black"/>
<path d="M81.0995 86.3804H78.4591V89.0208H81.0995V86.3804Z" fill="black"/>
<path d="M83.74 86.3804H81.0995V89.0208H83.74V86.3804Z" fill="black"/>
<path d="M86.3804 86.3804H83.74V89.0208H86.3804V86.3804Z" fill="black"/>
<path d="M89.0208 86.3804H86.3804V89.0208H89.0208V86.3804Z" fill="black"/>
<path d="M94.3017 86.3804H91.6613V89.0208H94.3017V86.3804Z" fill="black"/>
<path d="M96.9421 86.3804H94.3017V89.0208H96.9421V86.3804Z" fill="black"/>
<path d="M99.5826 86.3804H96.9421V89.0208H99.5826V86.3804Z" fill="black"/>
<path d="M15.0887 89.0208H12.4482V91.6613H15.0887V89.0208Z" fill="black"/>
<path d="M20.3695 89.0208H17.7291V91.6613H20.3695V89.0208Z" fill="black"/>
<path d="M23.01 89.0208H20.3695V91.6613H23.01V89.0208Z" fill="black"/>
<path d="M25.6504 89.0208H23.01V91.6613H25.6504V89.0208Z" fill="black"/>
<path d="M30.9313 89.0208H28.2908V91.6613H30.9313V89.0208Z" fill="black"/>
<path d="M38.8526 89.0208H36.2122V91.6613H38.8526V89.0208Z" fill="black"/>
<path d="M41.493 89.0208H38.8526V91.6613H41.493V89.0208Z" fill="black"/>
<path d="M54.6952 89.0208H52.0548V91.6613H54.6952V89.0208Z" fill="black"/>
<path d="M57.3356 89.0208H54.6952V91.6613H57.3356V89.0208Z" fill="black"/>
<path d="M62.6165 89.0208H59.9761V91.6613H62.6165L62.6165 89.0208Z" fill="black"/>
<path d="M65.2569 89.0208H62.6165L62.6165 91.6613H65.2569V89.0208Z" fill="black"/>
<path d="M67.8974 89.0208H65.2569V91.6613H67.8974V89.0208Z" fill="black"/>
<path d="M86.3804 89.0208H83.74V91.6613H86.3804V89.0208Z" fill="black"/>
<path d="M91.6613 89.0208H89.0208V91.6613H91.6613V89.0208Z" fill="black"/>
<path d="M94.3017 89.0208H91.6613V91.6613H94.3017V89.0208Z" fill="black"/>
<path d="M96.9421 89.0208H94.3017V91.6613H96.9421V89.0208Z" fill="black"/>
<path d="M15.0887 91.6613H12.4482V94.3017H15.0887V91.6613Z" fill="black"/>
<path d="M20.3695 91.6613H17.7291V94.3017H20.3695V91.6613Z" fill="black"/>
<path d="M23.01 91.6613H20.3695V94.3017H23.01V91.6613Z" fill="black"/>
<path d="M25.6504 91.6613H23.01V94.3017H25.6504V91.6613Z" fill="black"/>
<path d="M30.9313 91.6613H28.2908V94.3017H30.9313V91.6613Z" fill="black"/>
<path d="M36.2122 91.6613H33.5717V94.3017H36.2122V91.6613Z" fill="black"/>
<path d="M38.8526 91.6613H36.2122V94.3017H38.8526V91.6613Z" fill="black"/>
<path d="M41.493 91.6613H38.8526V94.3017H41.493V91.6613Z" fill="black"/>
<path d="M44.1335 91.6613H41.493V94.3017H44.1335V91.6613Z" fill="black"/>
<path d="M52.0548 91.6613H49.4143V94.3017H52.0548V91.6613Z" fill="black"/>
<path d="M54.6952 91.6613H52.0548V94.3017H54.6952V91.6613Z" fill="black"/>
<path d="M59.9761 91.6613H57.3356V94.3017H59.9761V91.6613Z" fill="black"/>
<path d="M62.6165 91.6613H59.9761V94.3017H62.6165V91.6613Z" fill="black"/>
<path d="M65.2569 91.6613H62.6165V94.3017H65.2569V91.6613Z" fill="black"/>
<path d="M70.5378 91.6613H67.8974V94.3017H70.5378V91.6613Z" fill="black"/>
<path d="M73.1782 91.6613H70.5378V94.3017H73.1782V91.6613Z" fill="black"/>
<path d="M75.8187 91.6613H73.1782V94.3017H75.8187V91.6613Z" fill="black"/>
<path d="M81.0995 91.6613H78.4591V94.3017H81.0995V91.6613Z" fill="black"/>
<path d="M83.74 91.6613H81.0995V94.3017H83.74V91.6613Z" fill="black"/>
<path d="M86.3804 91.6613H83.74V94.3017H86.3804V91.6613Z" fill="black"/>
<path d="M91.6613 91.6613H89.0208V94.3017H91.6613V91.6613Z" fill="black"/>
<path d="M96.9421 91.6613H94.3017V94.3017H96.9421V91.6613Z" fill="black"/>
<path d="M15.0887 94.3017H12.4482V96.9421H15.0887V94.3017Z" fill="black"/>
<path d="M30.9313 94.3017H28.2908V96.9421H30.9313V94.3017Z" fill="black"/>
<path d="M36.2122 94.3017H33.5717V96.9421H36.2122V94.3017Z" fill="black"/>
<path d="M41.493 94.3017H38.8526V96.9421H41.493V94.3017Z" fill="black"/>
<path d="M46.7739 94.3017H44.1335V96.9421H46.7739V94.3017Z" fill="black"/>
<path d="M59.9761 94.3017H57.3356V96.9421H59.9761V94.3017Z" fill="black"/>
<path d="M73.1782 94.3017H70.5378V96.9421H73.1782V94.3017Z" fill="black"/>
<path d="M75.8187 94.3017H73.1782V96.9421H75.8187V94.3017Z" fill="black"/>
<path d="M78.4591 94.3017H75.8187V96.9421H78.4591V94.3017Z" fill="black"/>
<path d="M81.0995 94.3017H78.4591V96.9421H81.0995V94.3017Z" fill="black"/>
<path d="M86.3804 94.3017H83.74V96.9421H86.3804V94.3017Z" fill="black"/>
<path d="M89.0208 94.3017H86.3804V96.9421H89.0208V94.3017Z" fill="black"/>
<path d="M91.6613 94.3017H89.0208V96.9421H91.6613V94.3017Z" fill="black"/>
<path d="M94.3017 94.3017H91.6613V96.9421H94.3017V94.3017Z" fill="black"/>
<path d="M96.9421 94.3017H94.3017V96.9421H96.9421V94.3017Z" fill="black"/>
<path d="M15.0887 96.9421H12.4482V99.5826H15.0887V96.9421Z" fill="black"/>
<path d="M17.7291 96.9421H15.0887V99.5826H17.7291V96.9421Z" fill="black"/>
<path d="M20.3695 96.9421H17.7291V99.5826H20.3695V96.9421Z" fill="black"/>
<path d="M23.01 96.9421H20.3695V99.5826H23.01V96.9421Z" fill="black"/>
<path d="M25.6504 96.9421H23.01V99.5826H25.6504V96.9421Z" fill="black"/>
<path d="M28.2908 96.9421H25.6504V99.5826H28.2908V96.9421Z" fill="black"/>
<path d="M30.9313 96.9421H28.2908V99.5826H30.9313V96.9421Z" fill="black"/>
<path d="M36.2122 96.9421H33.5717V99.5826H36.2122V96.9421Z" fill="black"/>
<path d="M41.493 96.9421H38.8526V99.5826H41.493V96.9421Z" fill="black"/>
<path d="M46.7739 96.9421H44.1335V99.5826H46.7739V96.9421Z" fill="black"/>
<path d="M54.6952 96.9421H52.0548V99.5826H54.6952V96.9421Z" fill="black"/>
<path d="M59.9761 96.9421H57.3356V99.5826H59.9761V96.9421Z" fill="black"/>
<path d="M62.6165 96.9421H59.9761V99.5826H62.6165V96.9421Z" fill="black"/>
<path d="M67.8974 96.9421H65.2569V99.5826H67.8974V96.9421Z" fill="black"/>
<path d="M73.1782 96.9421H70.5378V99.5826H73.1782V96.9421Z" fill="black"/>
<path d="M89.0208 96.9421H86.3804V99.5826H89.0208V96.9421Z" fill="black"/>
<path d="M91.6613 96.9421H89.0208V99.5826H91.6613V96.9421Z" fill="black"/>
<path d="M94.3017 96.9421H91.6613V99.5826H94.3017V96.9421Z" fill="black"/>
<path d="M96.9421 96.9421H94.3017V99.5826H96.9421V96.9421Z" fill="black"/>
<path d="M25.6846 121.254C25.6617 118.711 27.7678 117.474 27.8641 117.416C26.6713 115.677 24.8226 115.44 24.173 115.421C22.6203 115.258 21.1142 116.35 20.3232 116.35C19.5165 116.35 18.2985 115.437 16.9857 115.464C15.2965 115.49 13.7162 116.467 12.8494 117.986C11.0607 121.082 12.3948 125.631 14.1085 128.134C14.9657 129.36 15.9675 130.728 17.2786 130.679C18.5613 130.627 19.0405 129.863 20.5884 129.863C22.1222 129.863 22.5721 130.679 23.9093 130.649C25.286 130.627 26.1527 129.417 26.98 128.181C27.9706 126.777 28.3685 125.393 28.3843 125.322C28.3527 125.311 25.7114 124.302 25.6846 121.254ZM23.1586 113.775C23.8485 112.912 24.3206 111.739 24.1895 110.548C23.191 110.592 21.9422 111.238 21.2231 112.082C20.5869 112.825 20.0185 114.044 20.1653 115.19C21.287 115.273 22.4387 114.624 23.1586 113.775Z" fill="#F5F5F5"/>
<path d="M44.2641 130.503H42.4714L41.4895 127.418H38.0762L37.1408 130.503H35.3955L38.778 120.001H40.8666L44.2641 130.503ZM41.1934 126.124L40.3054 123.382C40.2115 123.102 40.0346 122.442 39.7757 121.404H39.7442C39.64 121.85 39.4734 122.51 39.2453 123.382L38.3722 126.124H41.1934ZM52.9456 126.624C52.9456 127.912 52.5959 128.93 51.8957 129.677C51.269 130.342 50.4899 130.675 49.5608 130.675C48.5575 130.675 47.836 130.317 47.3979 129.601V133.574H45.7149V125.42C45.7149 124.611 45.6936 123.781 45.6526 122.931H47.1327L47.2266 124.131H47.2582C47.8194 123.226 48.6711 122.774 49.8142 122.774C50.7077 122.774 51.4537 123.127 52.0504 123.833C52.6464 124.541 52.9456 125.471 52.9456 126.624ZM51.2311 126.685C51.2311 125.948 51.0653 125.341 50.7322 124.862C50.3683 124.364 49.8797 124.114 49.2671 124.114C48.8519 124.114 48.4746 124.253 48.1375 124.527C47.7997 124.803 47.5787 125.164 47.4752 125.611C47.4291 125.778 47.4029 125.949 47.3971 126.123V127.386C47.3971 127.936 47.566 128.401 47.9039 128.781C48.2417 129.16 48.6806 129.35 49.2205 129.35C49.8544 129.35 50.3478 129.105 50.7006 128.618C51.0543 128.13 51.2311 127.486 51.2311 126.685ZM61.6579 126.624C61.6579 127.912 61.3082 128.93 60.608 129.677C59.9805 130.342 59.2021 130.675 58.2723 130.675C57.269 130.675 56.5475 130.317 56.1094 129.601V133.574H54.4264V125.42C54.4264 124.611 54.4051 123.781 54.3641 122.931H55.8442L55.9381 124.131H55.9697C56.5301 123.226 57.3819 122.774 58.5257 122.774C59.4184 122.774 60.1644 123.127 60.7627 123.833C61.3579 124.541 61.6579 125.471 61.6579 126.624ZM59.9426 126.685C59.9426 125.948 59.776 125.341 59.4429 124.862C59.079 124.364 58.592 124.114 57.9794 124.114C57.5642 124.114 57.1869 124.253 56.8482 124.527C56.5104 124.803 56.2901 125.164 56.1867 125.611C56.1354 125.819 56.1078 125.989 56.1078 126.123V127.386C56.1078 127.936 56.2775 128.401 56.6138 128.781C56.9516 129.159 57.3905 129.35 57.932 129.35C58.5667 129.35 59.0601 129.105 59.4121 128.618C59.7658 128.13 59.9426 127.486 59.9426 126.685ZM71.3987 127.557C71.3987 128.452 71.0861 129.178 70.4649 129.739C69.7813 130.352 68.8269 130.659 67.6034 130.659C66.473 130.659 65.5668 130.441 64.8832 130.005L65.2724 128.602C66.0105 129.039 66.8211 129.257 67.7037 129.257C68.3383 129.257 68.8317 129.114 69.1837 128.829C69.5366 128.543 69.715 128.161 69.715 127.684C69.715 127.258 69.5674 126.9 69.2777 126.609C68.9864 126.318 68.5049 126.048 67.8284 125.799C65.9891 125.113 65.0687 124.11 65.0687 122.791C65.0687 121.929 65.394 121.224 66.0428 120.672C66.6917 120.121 67.5521 119.846 68.6225 119.846C69.5784 119.846 70.3749 120.012 71.0072 120.344L70.5849 121.716C69.9897 121.394 69.3179 121.233 68.5664 121.233C67.9728 121.233 67.5071 121.379 67.174 121.669C66.8938 121.929 66.7517 122.246 66.7517 122.621C66.7517 123.035 66.9135 123.38 67.2356 123.649C67.515 123.898 68.0249 124.169 68.7622 124.459C69.6668 124.824 70.3315 125.248 70.7569 125.736C71.1856 126.224 71.3987 126.832 71.3987 127.557ZM76.9772 124.193H75.1222V127.87C75.1222 128.805 75.449 129.271 76.1041 129.271C76.4049 129.271 76.6543 129.246 76.8517 129.193L76.8983 130.471C76.5667 130.595 76.1302 130.657 75.5895 130.657C74.9248 130.657 74.4054 130.454 74.0305 130.049C73.6571 129.643 73.4692 128.964 73.4692 128.007V124.19H72.3641V122.927H73.4692V121.541L75.1222 121.042V122.927H76.9772V124.193ZM85.3303 126.655C85.3303 127.819 84.9972 128.774 84.3325 129.522C83.6371 130.291 82.712 130.675 81.5587 130.675C80.4457 130.675 79.5608 130.306 78.9009 129.57C78.241 128.832 77.911 127.902 77.911 126.781C77.911 125.607 78.252 124.646 78.9317 123.899C79.6129 123.151 80.5302 122.777 81.6834 122.777C82.7949 122.777 83.6876 123.146 84.3633 123.883C85.009 124.598 85.3303 125.521 85.3303 126.655ZM83.5858 126.693C83.5858 126 83.4358 125.405 83.1351 124.907C82.7822 124.305 82.277 124.005 81.6226 124.005C80.9485 124.005 80.4315 124.305 80.0794 124.907C79.7779 125.405 79.6279 126.01 79.6279 126.725C79.6279 127.419 79.7779 128.016 80.0794 128.512C80.4433 129.114 80.9509 129.414 81.6084 129.414C82.2518 129.414 82.7562 129.107 83.1209 128.497C83.4303 127.987 83.5858 127.389 83.5858 126.693ZM90.803 124.41C90.628 124.379 90.4504 124.363 90.2726 124.364C89.6805 124.364 89.2227 124.586 88.9006 125.034C88.6212 125.429 88.4807 125.928 88.4807 126.53V130.503H86.7978V125.315C86.7993 124.52 86.7829 123.726 86.7488 122.931H88.2147L88.2762 124.38H88.3228C88.5012 123.882 88.7807 123.481 89.1643 123.18C89.5154 122.917 89.9421 122.775 90.3807 122.774C90.5362 122.774 90.6767 122.785 90.8014 122.805L90.803 124.41ZM98.3297 126.359C98.3339 126.614 98.3133 126.87 98.2681 127.122H93.2193C93.2382 127.87 93.4829 128.443 93.9518 128.837C94.3773 129.189 94.9275 129.366 95.6032 129.366C96.3507 129.366 97.0327 129.248 97.6461 129.009L97.9097 130.176C97.193 130.488 96.3468 130.644 95.3703 130.644C94.1957 130.644 93.2738 130.298 92.6028 129.608C91.9334 128.918 91.5979 127.99 91.5979 126.827C91.5979 125.686 91.9097 124.735 92.5341 123.977C93.1877 123.167 94.071 122.762 95.1824 122.762C96.2741 122.762 97.1006 123.167 97.6619 123.977C98.1063 124.619 98.3297 125.414 98.3297 126.359ZM96.7249 125.922C96.7367 125.423 96.6262 124.993 96.3981 124.629C96.1068 124.16 95.6584 123.926 95.0577 123.926C94.5075 123.926 94.0592 124.155 93.7182 124.612C93.4379 124.976 93.2714 125.413 93.2201 125.921L96.7249 125.922Z" fill="#F5F5F5"/>
<path d="M37.591 116.29C37.1229 116.29 36.7179 116.267 36.3809 116.228V111.151C36.8523 111.078 37.3287 111.042 37.8057 111.043C39.7357 111.043 40.6245 111.993 40.6245 113.54C40.6245 115.325 39.5747 116.29 37.591 116.29ZM37.8736 111.694C37.6131 111.694 37.3913 111.71 37.2073 111.748V115.608C37.3068 115.624 37.4978 115.631 37.7662 115.631C39.0308 115.631 39.7507 114.911 39.7507 113.563C39.7507 112.361 39.0995 111.694 37.8736 111.694ZM43.3944 116.328C42.3067 116.328 41.6018 115.516 41.6018 114.414C41.6018 113.265 42.3217 112.446 43.456 112.446C44.528 112.446 45.2486 113.219 45.2486 114.353C45.2486 115.516 44.5059 116.328 43.3944 116.328ZM43.426 113.05C42.8284 113.05 42.4456 113.609 42.4456 114.39C42.4456 115.156 42.8363 115.715 43.4181 115.715C43.9999 115.715 44.3906 115.118 44.3906 114.374C44.3906 113.617 44.0078 113.05 43.426 113.05ZM51.4515 112.522L50.2872 116.244H49.5286L49.0463 114.628C48.9264 114.232 48.8265 113.831 48.7471 113.426H48.7314C48.6706 113.831 48.5553 114.238 48.433 114.628L47.9199 116.244H47.1534L46.0578 112.522H46.9079L47.3294 114.291C47.4289 114.713 47.5126 115.111 47.582 115.486H47.5978C47.6586 115.173 47.7581 114.782 47.9041 114.299L48.433 112.523H49.1071L49.6131 114.262C49.7354 114.683 49.8349 115.096 49.9123 115.487H49.9344C49.988 115.104 50.0725 114.698 50.187 114.262L50.6393 112.523L51.4515 112.522ZM55.7378 116.244H54.9105V114.107C54.9105 113.449 54.6579 113.119 54.1599 113.119C53.6697 113.119 53.3326 113.54 53.3326 114.03V116.244H52.5053V113.586C52.5053 113.257 52.4974 112.904 52.4746 112.521H53.2024L53.241 113.096H53.2639C53.4865 112.698 53.938 112.446 54.444 112.446C55.2255 112.446 55.7386 113.043 55.7386 114.015L55.7378 116.244ZM58.0191 116.244H57.191V110.814H58.0191V116.244ZM61.0353 116.328C59.9483 116.328 59.2426 115.516 59.2426 114.414C59.2426 113.265 59.9625 112.446 61.0961 112.446C62.1688 112.446 62.8887 113.219 62.8887 114.353C62.8895 115.516 62.1459 116.328 61.0353 116.328ZM61.0661 113.05C60.4685 113.05 60.0857 113.609 60.0857 114.39C60.0857 115.156 60.4772 115.715 61.0574 115.715C61.6399 115.715 62.0299 115.118 62.0299 114.374C62.0307 113.617 61.6486 113.05 61.0661 113.05ZM66.1504 116.244L66.0904 115.815H66.0683C65.8157 116.16 65.4471 116.328 64.9798 116.328C64.3127 116.328 63.8391 115.861 63.8391 115.233C63.8391 114.314 64.6356 113.839 66.0146 113.839V113.771C66.0146 113.281 65.7549 113.035 65.2418 113.035C64.8748 113.035 64.5527 113.127 64.2693 113.311L64.1012 112.768C64.4454 112.553 64.8748 112.446 65.3792 112.446C66.3517 112.446 66.8427 112.959 66.8427 113.985V115.356C66.8427 115.732 66.8593 116.023 66.8964 116.245L66.1504 116.244ZM66.0367 114.39C65.1179 114.39 64.6569 114.613 64.6569 115.141C64.6569 115.531 64.8945 115.722 65.2245 115.722C65.6452 115.722 66.0367 115.401 66.0367 114.965V114.39ZM70.8598 116.244L70.8211 115.646H70.7982C70.5606 116.098 70.1612 116.328 69.6031 116.328C68.7056 116.328 68.0409 115.539 68.0409 114.429C68.0409 113.265 68.7301 112.445 69.671 112.445C70.1691 112.445 70.5219 112.613 70.7209 112.951H70.7374V110.814H71.5655V115.241C71.5655 115.601 71.5742 115.938 71.5963 116.244H70.8598ZM70.7374 114.054C70.7374 113.533 70.3925 113.089 69.866 113.089C69.2526 113.089 68.8777 113.633 68.8777 114.398C68.8777 115.149 69.2668 115.662 69.8494 115.662C70.3696 115.662 70.7374 115.21 70.7374 114.674V114.054ZM76.8156 116.328C75.7286 116.328 75.0237 115.516 75.0237 114.414C75.0237 113.265 75.7436 112.446 76.8772 112.446C77.9499 112.446 78.6698 113.219 78.6698 114.353C78.6706 115.516 77.9278 116.328 76.8156 116.328ZM76.8464 113.05C76.2496 113.05 75.8668 113.609 75.8668 114.39C75.8668 115.156 76.2575 115.715 76.8385 115.715C77.421 115.715 77.811 115.118 77.811 114.374C77.8126 113.617 77.4297 113.05 76.8464 113.05ZM83.1187 116.244H82.2907V114.107C82.2907 113.449 82.0381 113.119 81.54 113.119C81.0498 113.119 80.7135 113.54 80.7135 114.03V116.244H79.8855V113.586C79.8855 113.257 79.8776 112.904 79.8547 112.521H80.5825L80.6211 113.096H80.644C80.8658 112.698 81.3182 112.445 81.8234 112.445C82.6048 112.445 83.1187 113.042 83.1187 114.015V116.244ZM88.6846 113.142H87.7744V114.95C87.7744 115.41 87.9339 115.639 88.2559 115.639C88.402 115.639 88.5243 115.624 88.623 115.601L88.6459 116.229C88.4856 116.29 88.2709 116.321 88.0041 116.321C87.3521 116.321 86.9622 115.961 86.9622 115.019V113.142H86.4191V112.522H86.9622V111.84L87.7744 111.595V112.521H88.6846V113.142ZM93.064 116.244H92.2375V114.123C92.2375 113.457 91.9857 113.12 91.4868 113.12C91.0582 113.12 90.6588 113.411 90.6588 114V116.244H89.8323V110.814H90.6588V113.05H90.6754C90.9359 112.645 91.3132 112.445 91.7947 112.445C92.5825 112.445 93.064 113.057 93.064 114.03V116.244ZM97.5508 114.582H95.0682C95.084 115.287 95.5505 115.684 96.2412 115.684C96.6083 115.684 96.9461 115.623 97.2445 115.508L97.3732 116.083C97.0211 116.236 96.6067 116.313 96.1244 116.313C94.9601 116.313 94.2709 115.577 94.2709 114.437C94.2709 113.296 94.9766 112.438 96.0312 112.438C96.9824 112.438 97.5792 113.142 97.5792 114.207C97.5846 114.333 97.575 114.459 97.5508 114.582ZM96.7922 113.992C96.7922 113.418 96.5025 113.012 95.9736 113.012C95.4984 113.012 95.1227 113.426 95.069 113.992H96.7922Z" fill="#F5F5F5"/>
</svg>
