<svg width="12" height="10" viewBox="0 0 12 10" fill="none" xmlns="http://www.w3.org/2000/svg">
<path d="M1 4.35C0.641015 4.35 0.35 4.64101 0.35 5C0.35 5.35899 0.641015 5.65 1 5.65V4.35ZM10.9596 5.45962C11.2135 5.20578 11.2135 4.79422 10.9596 4.54038L6.82304 0.403806C6.5692 0.149965 6.15765 0.149965 5.90381 0.403806C5.64997 0.657647 5.64997 1.0692 5.90381 1.32304L9.58076 5L5.90381 8.67696C5.64997 8.9308 5.64997 9.34235 5.90381 9.59619C6.15765 9.85003 6.5692 9.85003 6.82304 9.59619L10.9596 5.45962ZM1 5.65H10.5V4.35H1V5.65Z" fill="#3F8AE0"/>
</svg>
