<svg width="17" height="19" viewBox="0 0 17 19" fill="none" xmlns="http://www.w3.org/2000/svg">
<path fill-rule="evenodd" clip-rule="evenodd" d="M6.6399 15.6667C6.6399 17.0475 5.52515 18.1668 4.15003 18.1668C2.77491 18.1668 1.66016 17.0475 1.66016 15.6667C1.66016 14.286 2.77491 13.1667 4.15003 13.1667C5.52515 13.1667 6.6399 14.286 6.6399 15.6667ZM4.97999 15.6667C4.97999 16.127 4.6084 16.5001 4.15003 16.5001C3.69166 16.5001 3.32007 16.127 3.32007 15.6667C3.32007 15.2065 3.69166 14.8334 4.15003 14.8334C4.6084 14.8334 4.97999 15.2065 4.97999 15.6667Z" fill="#3F8AE0"/>
<path fill-rule="evenodd" clip-rule="evenodd" d="M14.9395 15.6667C14.9395 17.0475 13.8247 18.1668 12.4496 18.1668C11.0745 18.1668 9.95973 17.0475 9.95973 15.6667C9.95973 14.286 11.0745 13.1667 12.4496 13.1667C13.8247 13.1667 14.9395 14.286 14.9395 15.6667ZM13.2796 15.6667C13.2796 16.127 12.908 16.5001 12.4496 16.5001C11.9912 16.5001 11.6196 16.127 11.6196 15.6667C11.6196 15.2065 11.9912 14.8334 12.4496 14.8334C12.908 14.8334 13.2796 15.2065 13.2796 15.6667Z" fill="#3F8AE0"/>
<path fill-rule="evenodd" clip-rule="evenodd" d="M0.0878028 1.12734C0.292793 0.715693 0.791327 0.548839 1.20131 0.754664L2.03418 1.17279C2.80543 1.55999 3.32225 2.32029 3.40032 3.18252L3.44003 3.62108C3.45946 3.83569 3.63867 4.00002 3.8533 4.00002H14.8029C16.2516 4.00002 17.2544 5.45288 16.7457 6.81486L15.2905 10.7112C14.9261 11.6869 13.997 12.3334 12.9591 12.3334H4.83587C3.5481 12.3334 2.47281 11.3474 2.35622 10.0597L1.74722 3.33341C1.7212 3.046 1.54892 2.79257 1.29184 2.6635L0.458971 2.24538C0.0489899 2.03955 -0.117188 1.53899 0.0878028 1.12734ZM4.07965 5.66669C3.83563 5.66669 3.64429 5.87707 3.66638 6.12108L4.00932 9.9088C4.04819 10.338 4.40662 10.6667 4.83587 10.6667H12.9591C13.3051 10.6667 13.6148 10.4512 13.7363 10.126L15.1915 6.22965C15.2932 5.95726 15.0926 5.66669 14.8029 5.66669H4.07965Z" fill="#3F8AE0"/>
</svg>
