<svg width="65" height="64" viewBox="0 0 65 64" fill="none" xmlns="http://www.w3.org/2000/svg">
<g clip-path="url(#clip0)">
<path d="M44.1364 0H20.8636C9.61711 0 0.5 9.11711 0.5 20.3636V43.6364C0.5 54.8829 9.61711 64 20.8636 64H44.1364C55.3829 64 64.5 54.8829 64.5 43.6364V20.3636C64.5 9.11711 55.3829 0 44.1364 0Z" fill="url(#paint0_linear)"/>
<g clip-path="url(#clip1)">
<path d="M48.0554 21V30.9375C48.0554 31.6279 47.4958 32.1875 46.8054 32.1875C46.1152 32.1875 45.5554 31.6279 45.5554 30.9375V21C45.5554 19.6216 44.4341 18.5 43.0554 18.5H21.0625C19.6841 18.5 18.5625 19.6216 18.5625 21V37.1875C18.5625 38.5659 19.6841 39.6875 21.0625 39.6875H27.3682C28.0583 39.6875 28.6182 40.2471 28.6182 40.9375C28.6182 41.6279 28.0583 42.1875 27.3682 42.1875H21.0625C18.3054 42.1875 16.0625 39.9446 16.0625 37.1875V21C16.0625 18.2429 18.3054 16 21.0625 16H43.0557C45.8125 16 48.0554 18.2429 48.0554 21ZM46.8054 35.9375C46.1152 35.9375 45.5554 36.4971 45.5554 37.1875C45.5554 38.5659 44.4341 39.6875 43.0554 39.6875C42.3652 39.6875 41.8054 40.2471 41.8054 40.9375C41.8054 41.6279 42.3652 42.1875 43.0554 42.1875C45.8125 42.1875 48.0554 39.9446 48.0554 37.1875C48.0554 36.4971 47.4958 35.9375 46.8054 35.9375ZM22.3679 23.5H29.5554C30.2458 23.5 30.8054 22.9404 30.8054 22.25C30.8054 21.5596 30.2458 21 29.5554 21H22.3679C21.6777 21 21.1179 21.5596 21.1179 22.25C21.1179 22.9404 21.6777 23.5 22.3679 23.5ZM41.8054 23.5C42.4958 23.5 43.0554 22.9404 43.0554 22.25C43.0554 21.5596 42.4958 21 41.8054 21H34.6179C33.9277 21 33.3679 21.5596 33.3679 22.25C33.3679 22.9404 33.9277 23.5 34.6179 23.5H41.8054ZM43.0554 27.25C43.0554 26.5596 42.4958 26 41.8054 26H22.3679C21.6777 26 21.1179 26.5596 21.1179 27.25C21.1179 27.9404 21.6777 28.5 22.3679 28.5H41.8054C42.4958 28.5 43.0554 27.9404 43.0554 27.25ZM22.3679 31C21.6777 31 21.1179 31.5596 21.1179 32.25C21.1179 32.9404 21.6777 33.5 22.3679 33.5H26.9929C27.6833 33.5 28.2429 32.9404 28.2429 32.25C28.2429 31.5596 27.6833 31 26.9929 31H22.3679ZM40.9304 36.75C40.9304 38.5183 40.1279 40.1025 38.8679 41.1582V46.75C38.8679 47.1694 38.6575 47.561 38.3076 47.7925C38.1001 47.9299 37.8596 48 37.6179 48C37.4524 48 37.2859 47.967 37.1292 47.9004L35.1177 47.0457L33.1064 47.8994C32.7205 48.0635 32.2778 48.0229 31.9282 47.7913C31.5784 47.5598 31.3679 47.1682 31.3679 46.7488V41.0503C30.1804 39.9961 29.4304 38.4592 29.4304 36.75C29.4304 33.5793 32.01 31 35.1804 31C38.3511 31 40.9304 33.5793 40.9304 36.75ZM31.9304 36.75C31.9304 38.542 33.3884 40 35.1804 40C36.9727 40 38.4304 38.542 38.4304 36.75C38.4304 34.958 36.9727 33.5 35.1804 33.5C33.3884 33.5 31.9304 34.958 31.9304 36.75ZM36.3679 42.3765C35.9846 42.4573 35.5874 42.5 35.1804 42.5C34.729 42.5 34.2898 42.4475 33.8679 42.3486V44.8604L34.6294 44.5369C34.9419 44.4043 35.2947 44.4045 35.6069 44.5371L36.3682 44.8606V42.3765H36.3679Z" fill="white"/>
</g>
</g>
<defs>
<linearGradient id="paint0_linear" x1="57.8091" y1="57.8909" x2="13.5909" y2="1.0053e-06" gradientUnits="userSpaceOnUse">
<stop stop-color="#FF9066"/>
<stop offset="1" stop-color="#FF9066" stop-opacity="0.5"/>
</linearGradient>
<clipPath id="clip0">
<rect width="64" height="64" fill="white" transform="translate(0.5)"/>
</clipPath>
<clipPath id="clip1">
<rect width="32" height="32" fill="white" transform="translate(16 16)"/>
</clipPath>
</defs>
</svg>
