<svg width="65" height="64" viewBox="0 0 65 64" fill="none" xmlns="http://www.w3.org/2000/svg">
<g clip-path="url(#clip0)">
<path d="M44.1364 0H20.8636C9.61711 0 0.5 9.11711 0.5 20.3636V43.6364C0.5 54.8829 9.61711 64 20.8636 64H44.1364C55.3829 64 64.5 54.8829 64.5 43.6364V20.3636C64.5 9.11711 55.3829 0 44.1364 0Z" fill="url(#paint0_linear)"/>
<g clip-path="url(#clip1)">
<path d="M44.6756 32.2111L43.9598 28.5696C43.7638 27.5475 43.4257 26.7672 42.9259 26.1839C42.2817 25.4321 41.3781 25.0346 40.3125 25.0346H36.125V20.0283C36.125 19.3379 35.5654 18.7783 34.875 18.7783H17.75C17.0596 18.7783 16.5 19.3379 16.5 20.0283V37.7221C16.5 40.4461 18.6901 42.6668 21.4017 42.7196C21.917 44.1758 23.3071 45.2221 24.9375 45.2221C26.5671 45.2221 27.9564 44.1769 28.4725 42.7221H36.215C36.731 44.1769 38.1204 45.2221 39.75 45.2221C41.3796 45.2221 42.7689 44.1769 43.285 42.7221H47.25C47.9404 42.7221 48.5 42.1624 48.5 41.4721V36.9721C48.5 34.6446 46.8604 32.6929 44.6756 32.2111ZM36.125 27.5346H40.3125C40.694 27.5346 41.2164 27.5346 41.5051 29.0429C41.5054 29.045 41.5059 29.0471 41.5063 29.0492L42.1177 32.1596H36.125V27.5346ZM24.9375 42.7221C24.2483 42.7221 23.6875 42.1613 23.6875 41.4721C23.6875 40.7828 24.2483 40.2221 24.9375 40.2221C25.6267 40.2221 26.1875 40.7828 26.1875 41.4721C26.1875 42.1613 25.6267 42.7221 24.9375 42.7221ZM39.75 42.7221C39.0607 42.7221 38.5 42.1613 38.5 41.4721C38.5 40.7828 39.0607 40.2221 39.75 40.2221C40.4393 40.2221 41 40.7828 41 41.4721C41 42.1613 40.4393 42.7221 39.75 42.7221ZM46 40.2221H43.285C42.769 38.7672 41.3796 37.7221 39.75 37.7221C38.1204 37.7221 36.7311 38.7672 36.215 40.2221H28.4725C27.9565 38.7672 26.5671 37.7221 24.9375 37.7221C23.3089 37.7221 21.9201 38.766 21.4034 40.2196C20.0695 40.1686 19 39.0682 19 37.7221V21.2783H33.625V32.1596H22.75C22.0596 32.1596 21.5 32.7192 21.5 33.4096C21.5 34.0999 22.0596 34.6596 22.75 34.6596H43.5625C43.6784 34.6596 43.7901 34.6426 43.8966 34.6131C45.0786 34.7483 46 35.7544 46 36.9721V40.2221Z" fill="white"/>
</g>
</g>
<defs>
<linearGradient id="paint0_linear" x1="55.4818" y1="58.7636" x2="11.2636" y2="4.36364" gradientUnits="userSpaceOnUse">
<stop stop-color="#25D9D9"/>
<stop offset="1" stop-color="#25D9D9" stop-opacity="0.5"/>
</linearGradient>
<clipPath id="clip0">
<rect width="64" height="64" fill="white" transform="translate(0.5)"/>
</clipPath>
<clipPath id="clip1">
<rect width="32" height="32" fill="white" transform="translate(16.5 16)"/>
</clipPath>
</defs>
</svg>
