<svg width="65" height="64" viewBox="0 0 65 64" fill="none" xmlns="http://www.w3.org/2000/svg">
<g clip-path="url(#clip0)">
<path d="M44.1364 0H20.8636C9.61711 0 0.5 9.11711 0.5 20.3636V43.6364C0.5 54.8829 9.61711 64 20.8636 64H44.1364C55.3829 64 64.5 54.8829 64.5 43.6364V20.3636C64.5 9.11711 55.3829 0 44.1364 0Z" fill="url(#paint0_linear)"/>
<g clip-path="url(#clip1)">
<path d="M33.8785 31.125V31H33.1271C32.4353 31 31.8746 30.4404 31.8746 29.75C31.8746 29.0596 32.4353 28.5 33.1271 28.5H35.6694C35.8979 28.5 36.0703 28.3362 36.0703 28.1187V27.6177C36.0703 27.4038 35.8979 27.2427 35.6694 27.2427H34.8362C33.2367 27.2427 31.9355 25.9282 31.9355 24.3125V24.2598C31.9355 23.0027 32.7484 21.9316 33.8785 21.5371V21.1875C33.8785 20.4971 34.4392 19.9375 35.131 19.9375C35.8228 19.9375 36.3834 20.4971 36.3834 21.1875V21.375H36.5713C37.2631 21.375 37.8237 21.9346 37.8237 22.625C37.8237 23.3154 37.2631 23.875 36.5713 23.875H34.8362C34.6104 23.875 34.4404 24.0403 34.4404 24.2598V24.3125C34.4404 24.5417 34.6254 24.7427 34.8362 24.7427H35.6694C37.2716 24.7427 38.5752 26.0325 38.5752 27.6177V28.1189C38.5752 29.4631 37.6415 30.5955 36.3834 30.9119V31.125C36.3834 31.8154 35.8228 32.375 35.131 32.375C34.4392 32.375 33.8785 31.8154 33.8785 31.125ZM46.8414 41.75C47.5331 41.75 48.0938 41.1904 48.0938 40.5V39.1948C48.0938 36.2271 45.6743 33.8125 42.7005 33.8125H40.5373C40.519 33.666 40.4754 33.5203 40.402 33.3821C40.0777 32.7725 39.3193 32.5408 38.7085 32.8645C37.6153 33.4438 36.3783 33.75 35.131 33.75C30.9184 33.75 27.4911 30.3293 27.4911 26.125C27.4911 21.9207 30.9184 18.5 35.131 18.5C39.3436 18.5 42.7709 21.9207 42.7709 26.125C42.7709 27.2004 42.5515 28.2395 42.1188 29.2131C41.8382 29.8442 42.1234 30.5828 42.7557 30.8625C43.3878 31.1423 44.1278 30.8579 44.4084 30.2268C44.984 28.9319 45.2758 27.5518 45.2758 26.125C45.2758 20.542 40.7249 16 35.131 16C29.5371 16 24.9862 20.542 24.9862 26.125C24.9862 29.4197 26.5715 32.3516 29.0204 34.2017C28.223 34.5969 27.585 35.2659 27.2318 36.0854L22.4028 31.6816C21.6973 30.999 20.7714 30.625 19.7895 30.625C19.7775 30.625 19.7653 30.625 19.7533 30.6252C18.7496 30.6345 17.8098 31.0334 17.1068 31.7485C16.4037 32.4634 16.0219 33.4087 16.0314 34.4104C16.0407 35.4119 16.4404 36.3499 17.1569 37.0515C17.1655 37.0601 17.1743 37.0684 17.1831 37.0767L23.5618 42.9707C25.2239 44.5745 27.1535 45.8267 29.2966 46.6926C31.4443 47.5601 33.708 48 36.0251 48H46.8414C47.5331 48 48.0938 47.4404 48.0938 46.75C48.0938 46.0596 47.5331 45.5 46.8414 45.5H36.0251C31.9982 45.5 28.187 43.9602 25.2937 41.1646C25.2871 41.1582 25.2802 41.1519 25.2734 41.1455L18.9006 35.2566C18.6684 35.0239 18.5393 34.7156 18.5361 34.3867C18.5329 34.053 18.6603 33.7378 18.8947 33.4995C19.129 33.2612 19.4424 33.1282 19.7768 33.125H19.7888C20.1188 33.125 20.4299 33.2517 20.6657 33.4829C20.6765 33.4934 20.6872 33.5037 20.6983 33.5137L27.9275 40.1064C28.6144 40.8474 29.596 41.3125 30.6848 41.3125H36.947C37.6388 41.3125 38.1995 40.7529 38.1995 40.0625C38.1995 39.3721 37.6388 38.8125 36.947 38.8125H30.6848C30.4262 38.8125 30.1858 38.7339 29.9859 38.5994C29.9786 38.592 29.9717 38.5842 29.9642 38.5771L29.7098 38.3455C29.5366 38.1309 29.4324 37.8586 29.4324 37.5625C29.4324 36.8733 29.9942 36.3125 30.6848 36.3125H42.7005C44.2932 36.3125 45.5889 37.6055 45.5889 39.1948V40.5C45.5889 41.1904 46.1496 41.75 46.8414 41.75Z" fill="white"/>
</g>
</g>
<defs>
<linearGradient id="paint0_linear" x1="60.7182" y1="61.0909" x2="8.35454" y2="-1.6244e-06" gradientUnits="userSpaceOnUse">
<stop stop-color="#0898E7"/>
<stop offset="1" stop-color="#0898E7" stop-opacity="0.5"/>
</linearGradient>
<clipPath id="clip0">
<rect width="64" height="64" fill="white" transform="translate(0.5)"/>
</clipPath>
<clipPath id="clip1">
<rect width="32" height="32" fill="white" transform="translate(16 16)"/>
</clipPath>
</defs>
</svg>
