<svg width="20" height="21" viewBox="0 0 20 21" fill="none" xmlns="http://www.w3.org/2000/svg">
<path d="M2.41221 16.2H2.51493L7.47031 15.1216C7.56683 15.1055 7.65628 15.0608 7.72704 14.9932L16.1229 6.59734C16.7362 5.98534 17.0784 5.15293 17.0729 4.28656C17.074 3.41346 16.733 2.57471 16.1229 1.95009C15.5109 1.33676 14.6785 0.994571 13.8121 1.00012C12.9402 0.992408 12.1039 1.34551 11.5013 1.97579L3.1311 10.3716C3.05728 10.4311 3.00347 10.5117 2.97703 10.6027L1.8987 15.5581C1.86927 15.736 1.92647 15.9172 2.05277 16.046C2.14757 16.1427 2.27677 16.1981 2.41221 16.2ZM13.8121 2.02715C15.0458 2.02705 16.0459 3.02709 16.046 4.26076C16.046 4.26936 16.046 4.27796 16.0459 4.28656C16.0543 4.87428 15.8224 5.43999 15.404 5.85275L12.2459 2.66897C12.662 2.25552 13.2255 2.02454 13.8121 2.02715ZM11.527 3.41361L14.6851 6.57168L7.36755 13.8635L4.20948 10.7311L11.527 3.41361ZM3.79868 11.7582L6.34053 14.3L3.07974 15.0189L3.79868 11.7582Z" fill="#3F8AE0" stroke="#3F8AE0" stroke-width="0.5"/>
<path d="M18.7161 18.973H1.51351C1.2299 18.973 1 19.2029 1 19.4865C1 19.7701 1.2299 20 1.51351 20H18.7161C18.9997 20 19.2296 19.7701 19.2296 19.4865C19.2296 19.2029 18.9997 18.973 18.7161 18.973Z" fill="#3F8AE0" stroke="#3F8AE0" stroke-width="0.5"/>
</svg>
