<svg width="29" height="29" viewBox="0 0 29 29" fill="none" xmlns="http://www.w3.org/2000/svg">
<circle cx="14.5" cy="14.5" r="14.5" fill="white"/>
<path d="M29 14.5C29 6.4931 22.5069 0 14.5 0C6.4931 0 0 6.4931 0 14.5C0 22.5069 6.4931 29 14.5 29C14.5852 29 14.6699 28.9982 14.7549 28.9967V17.709H11.6396V14.0785H14.7549V11.4069C14.7549 8.30847 16.6464 6.62209 19.4103 6.62209C20.7338 6.62209 21.8715 6.72076 22.2031 6.76479V10.003H20.2973C18.7936 10.003 18.5025 10.7177 18.5025 11.7662V14.0785H22.0978L21.6292 17.709H18.5025V28.4398C24.5632 26.7023 29 21.1185 29 14.5Z" fill="#4E68A7"/>
</svg>
