<svg width="29" height="29" viewBox="0 0 29 29" fill="none" xmlns="http://www.w3.org/2000/svg">
<circle cx="14.5" cy="14.5" r="14.5" fill="white"/>
<path d="M14.5 0C6.4931 0 0 6.4931 0 14.5C0 22.5069 6.4931 29 14.5 29C22.5069 29 29 22.5069 29 14.5C29 6.4931 22.5069 0 14.5 0Z" fill="#D43753"/>
<path d="M21.5095 11.0117C20.5964 11.0117 19.7539 10.7092 19.0773 10.1989C18.3014 9.61391 17.7439 8.75578 17.547 7.76672C17.4982 7.52234 17.472 7.27016 17.4695 7.01172H14.861V14.1392L14.8579 18.0433C14.8579 19.087 14.1782 19.972 13.236 20.2833C12.9626 20.3736 12.6673 20.4164 12.3598 20.3995C11.9673 20.378 11.5995 20.2595 11.2798 20.0683C10.5995 19.6614 10.1382 18.9233 10.1257 18.0789C10.106 16.7592 11.1729 15.6833 12.4917 15.6833C12.752 15.6833 13.002 15.7258 13.236 15.803V13.8548V13.1545C12.9892 13.118 12.7379 13.0989 12.4839 13.0989C11.0404 13.0989 9.69042 13.6989 8.72542 14.7798C7.99605 15.5967 7.55855 16.6389 7.49105 17.7317C7.40261 19.1673 7.92792 20.532 8.94667 21.5389C9.09636 21.6867 9.25355 21.8239 9.41792 21.9505C10.2914 22.6227 11.3592 22.987 12.4839 22.987C12.7379 22.987 12.9892 22.9683 13.236 22.9317C14.2867 22.7761 15.256 22.2952 16.021 21.5389C16.961 20.6098 17.4804 19.3764 17.486 18.0636L17.4726 12.2336C17.921 12.5795 18.4114 12.8658 18.9376 13.088C19.756 13.4333 20.6239 13.6083 21.517 13.608V11.7139V11.0111C21.5176 11.0117 21.5101 11.0117 21.5095 11.0117Z" fill="white"/>
</svg>
