<svg width="29" height="29" viewBox="0 0 29 29" fill="none" xmlns="http://www.w3.org/2000/svg">
<circle cx="14.5" cy="14.5" r="14.5" fill="#EB3323"/>
<g clip-path="url(#clip0)">
<path fill-rule="evenodd" clip-rule="evenodd" d="M20.7602 9.2489C21.4455 9.43347 21.9859 9.97375 22.1703 10.6592C22.5131 11.9111 22.4999 14.5207 22.4999 14.5207C22.4999 14.5207 22.4999 17.117 22.1705 18.3691C21.9859 19.0544 21.4456 19.5948 20.7602 19.7793C19.5081 20.1088 14.5 20.1088 14.5 20.1088C14.5 20.1088 9.50487 20.1088 8.23974 19.7662C7.55432 19.5816 7.01404 19.0412 6.82947 18.3559C6.5 17.117 6.5 14.5075 6.5 14.5075C6.5 14.5075 6.5 11.9111 6.82947 10.6592C7.01391 9.97387 7.5675 9.42029 8.23962 9.23584C9.49169 8.90625 14.4998 8.90625 14.4998 8.90625C14.4998 8.90625 19.5081 8.90625 20.7602 9.2489ZM17.0699 14.5076L12.9053 16.9062V12.1089L17.0699 14.5076Z" fill="white"/>
</g>
<defs>
<clipPath id="clip0">
<rect width="16" height="16" fill="white" transform="translate(6.5 6.5)"/>
</clipPath>
</defs>
</svg>
