<svg width="29" height="29" viewBox="0 0 29 29" fill="none" xmlns="http://www.w3.org/2000/svg">
<circle cx="14.5" cy="14.5" r="14.5" fill="#5376A4"/>
<g clip-path="url(#clip0)">
<path d="M21.8574 18.5782C21.8144 18.5062 21.5483 17.9282 20.2683 16.7401C18.9282 15.496 19.1082 15.698 20.7223 13.5469C21.7054 12.2368 22.0984 11.4367 21.9754 11.0947C21.8584 10.7687 21.1353 10.8547 21.1353 10.8547L18.7311 10.8687C18.7311 10.8687 18.5531 10.8447 18.4201 10.9237C18.2911 11.0017 18.2081 11.1817 18.2081 11.1817C18.2081 11.1817 17.8271 12.1958 17.319 13.0578C16.248 14.877 15.8189 14.973 15.6439 14.86C15.2369 14.5969 15.3389 13.8019 15.3389 13.2378C15.3389 11.4747 15.6059 10.7397 14.8179 10.5496C14.5558 10.4866 14.3638 10.4446 13.6948 10.4376C12.8367 10.4286 12.1097 10.4406 11.6986 10.6416C11.4246 10.7757 11.2136 11.0747 11.3426 11.0917C11.5016 11.1127 11.8616 11.1887 12.0527 11.4487C12.2997 11.7837 12.2907 12.5378 12.2907 12.5378C12.2907 12.5378 12.4327 14.6129 11.9597 14.871C11.6346 15.048 11.1896 14.6869 10.2345 13.0358C9.74549 12.1908 9.37547 11.2557 9.37547 11.2557C9.37547 11.2557 9.30446 11.0817 9.17745 10.9887C9.02344 10.8757 8.80743 10.8397 8.80743 10.8397L6.52126 10.8537C6.52126 10.8537 6.17824 10.8637 6.05223 11.0127C5.94022 11.1457 6.04323 11.4197 6.04323 11.4197C6.04323 11.4197 7.83336 15.607 9.8595 17.7182C11.7186 19.6533 13.8288 19.5263 13.8288 19.5263H14.7849C14.7849 19.5263 15.0739 19.4943 15.2209 19.3353C15.3569 19.1893 15.3519 18.9153 15.3519 18.9153C15.3519 18.9153 15.3329 17.6322 15.9289 17.4432C16.516 17.2571 17.27 18.6832 18.0691 19.2323C18.6731 19.6473 19.1322 19.5563 19.1322 19.5563L21.2693 19.5263C21.2693 19.5263 22.3874 19.4573 21.8574 18.5782Z" fill="white"/>
</g>
<defs>
<clipPath id="clip0">
<rect width="16" height="16" fill="white" transform="translate(6 7)"/>
</clipPath>
</defs>
</svg>
