<svg width="29" height="29" viewBox="0 0 29 29" fill="none" xmlns="http://www.w3.org/2000/svg">
<circle cx="14.5" cy="14.5" r="14.5" fill="white"/>
<path d="M17.4006 14.4996C17.4006 16.1013 16.1022 17.3996 14.5006 17.3996C12.8989 17.3996 11.6006 16.1013 11.6006 14.4996C11.6006 12.898 12.8989 11.5996 14.5006 11.5996C16.1022 11.5996 17.4006 12.898 17.4006 14.4996Z" fill="url(#paint0_radial)"/>
<path d="M20.5668 9.91036C20.4421 9.57245 20.2432 9.2666 19.9847 9.01555C19.7336 8.75705 19.428 8.55811 19.0899 8.43341C18.8157 8.32691 18.4037 8.20015 17.645 8.16561C16.8242 8.12818 16.5781 8.12012 14.5002 8.12012C12.4221 8.12012 12.176 8.12798 11.3555 8.16541C10.5967 8.20015 10.1846 8.32691 9.91057 8.43341C9.57245 8.55811 9.2666 8.75705 9.01576 9.01555C8.75726 9.2666 8.55832 9.57225 8.43341 9.91036C8.32691 10.1846 8.20015 10.5967 8.16561 11.3555C8.12818 12.176 8.12012 12.4221 8.12012 14.5002C8.12012 16.5781 8.12818 16.8242 8.16561 17.645C8.20015 18.4037 8.32691 18.8157 8.43341 19.0899C8.55832 19.428 8.75705 19.7336 9.01555 19.9847C9.2666 20.2432 9.57225 20.4421 9.91036 20.5668C10.1846 20.6735 10.5967 20.8003 11.3555 20.8348C12.176 20.8723 12.4219 20.8801 14.5 20.8801C16.5783 20.8801 16.8244 20.8723 17.6448 20.8348C18.4035 20.8003 18.8157 20.6735 19.0899 20.5668C19.7686 20.305 20.305 19.7686 20.5668 19.0899C20.6733 18.8157 20.8001 18.4037 20.8348 17.645C20.8723 16.8242 20.8801 16.5781 20.8801 14.5002C20.8801 12.4221 20.8723 12.176 20.8348 11.3555C20.8003 10.5967 20.6735 10.1846 20.5668 9.91036ZM14.5002 18.4962C12.2931 18.4962 10.5039 16.7072 10.5039 14.5C10.5039 12.2929 12.2931 10.5039 14.5002 10.5039C16.7072 10.5039 18.4964 12.2929 18.4964 14.5C18.4964 16.7072 16.7072 18.4962 14.5002 18.4962ZM18.6544 11.2798C18.1386 11.2798 17.7205 10.8616 17.7205 10.3459C17.7205 9.83012 18.1386 9.41198 18.6544 9.41198C19.1701 9.41198 19.5883 9.83012 19.5883 10.3459C19.588 10.8616 19.1701 11.2798 18.6544 11.2798Z" fill="url(#paint1_radial)"/>
<path d="M14.5 0C6.4931 0 0 6.4931 0 14.5C0 22.5069 6.4931 29 14.5 29C22.5069 29 29 22.5069 29 14.5C29 6.4931 22.5069 0 14.5 0ZM22.7759 17.9327C22.7357 18.8191 22.5947 19.4242 22.389 19.9539C21.9564 21.0723 21.0723 21.9564 19.9539 22.389C19.4244 22.5947 18.8191 22.7355 17.933 22.7759C17.0451 22.8164 16.7614 22.8262 14.5002 22.8262C12.2388 22.8262 11.9554 22.8164 11.0673 22.7759C10.1812 22.7355 9.57581 22.5947 9.04635 22.389C8.49056 22.1799 7.98743 21.8522 7.57148 21.4285C7.148 21.0128 6.82033 20.5094 6.61124 19.9539C6.40548 19.4244 6.26454 18.8191 6.22427 17.933C6.18334 17.0448 6.17383 16.7612 6.17383 14.5C6.17383 12.2388 6.18334 11.9552 6.22405 11.0673C6.26432 10.1809 6.40504 9.57581 6.6108 9.04613C6.81988 8.49056 7.14778 7.98721 7.57148 7.57148C7.98721 7.14778 8.49056 6.82011 9.04613 6.61102C9.57581 6.40526 10.1809 6.26454 11.0673 6.22405C11.9552 6.18356 12.2388 6.17383 14.5 6.17383C16.7612 6.17383 17.0448 6.18356 17.9327 6.22427C18.8191 6.26454 19.4242 6.40526 19.9539 6.6108C20.5094 6.81989 21.0128 7.14778 21.4287 7.57148C21.8522 7.98743 22.1801 8.49056 22.389 9.04613C22.595 9.57581 22.7357 10.1809 22.7762 11.0673C22.8167 11.9552 22.8262 12.2388 22.8262 14.5C22.8262 16.7612 22.8167 17.0448 22.7759 17.9327Z" fill="url(#paint2_radial)"/>
<defs>
<radialGradient id="paint0_radial" cx="0" cy="0" r="1" gradientUnits="userSpaceOnUse" gradientTransform="translate(13.1412 17.8463) rotate(-90) scale(5.74823)">
<stop stop-color="#FFDD55"/>
<stop offset="0.1" stop-color="#FFDD55"/>
<stop offset="0.5" stop-color="#FF543E"/>
<stop offset="1" stop-color="#C837AB"/>
</radialGradient>
<radialGradient id="paint1_radial" cx="0" cy="0" r="1" gradientUnits="userSpaceOnUse" gradientTransform="translate(11.5095 21.8629) rotate(-90) scale(12.6461)">
<stop stop-color="#FFDD55"/>
<stop offset="0.1" stop-color="#FFDD55"/>
<stop offset="0.5" stop-color="#FF543E"/>
<stop offset="1" stop-color="#C837AB"/>
</radialGradient>
<radialGradient id="paint2_radial" cx="0" cy="0" r="1" gradientUnits="userSpaceOnUse" gradientTransform="translate(7.70316 31.2336) rotate(-90) scale(28.7411)">
<stop stop-color="#FFDD55"/>
<stop offset="0.1" stop-color="#FFDD55"/>
<stop offset="0.5" stop-color="#FF543E"/>
<stop offset="1" stop-color="#C837AB"/>
</radialGradient>
</defs>
</svg>
