<svg width="20" height="20" viewBox="0 0 20 20" fill="none" xmlns="http://www.w3.org/2000/svg">
<path d="M13.7007 3.125C16.4893 3.125 18.75 5.38567 18.75 8.17434C18.75 10.943 17.6451 12.3256 13.1 15.8607L11.7267 16.9288C10.7111 17.7188 9.28892 17.7188 8.27329 16.9288L6.9 15.8607C2.35488 12.3256 1.25 10.943 1.25 8.17434C1.25 5.38567 3.51067 3.125 6.29934 3.125C7.6888 3.125 8.92924 3.72773 10 4.88001C11.0708 3.72773 12.3112 3.125 13.7007 3.125ZM6.29934 5C4.5462 5 3.125 6.4212 3.125 8.17434C3.125 10.1625 3.94158 11.1843 8.05114 14.3807L9.42443 15.4488C9.76297 15.7121 10.237 15.7121 10.5756 15.4488L11.9489 14.3807C16.0584 11.1843 16.875 10.1625 16.875 8.17434C16.875 6.4212 15.4538 5 13.7007 5C12.6401 5 11.677 5.60308 10.7711 6.91312L10.5141 7.28479C10.3177 7.5687 9.92841 7.63969 9.64451 7.44336C9.58253 7.40049 9.52881 7.34677 9.48594 7.28479L9.22892 6.91312C8.32298 5.60308 7.35991 5 6.29934 5Z" fill="#3F8AE0"/>
</svg>
