<svg width="170" height="35" viewBox="0 0 170 35" fill="none" xmlns="http://www.w3.org/2000/svg">
<path d="M9.1122 32.5945C5.89065 30.7626 5.63798 26.3409 7.53301 23.1193L7.65934 22.3613H22.1248L18.1452 29.2466C16.2502 32.4682 12.3338 34.4264 9.1122 32.5945Z" fill="#5065A7"/>
<path d="M27.494 0.757616C30.7156 2.58948 30.9682 7.01122 29.0732 10.2328L28.6942 10.9908H14.4814L18.461 4.10551C20.356 0.883952 24.3356 -1.07425 27.494 0.757616Z" fill="#5576AA"/>
<path d="M28.6311 10.9912L18.1452 29.2467C16.8187 31.5839 14.3551 33.2894 11.8916 33.2894L24.7778 33.3526C26.736 33.3526 28.5679 32.3419 29.5154 30.6364L34.632 21.7929L28.6311 10.9912Z" fill="#9FD0DB"/>
<path d="M0.710637 19.3925C-0.236879 17.687 -0.236879 15.6024 0.710637 13.8969L7.15375 2.71621C8.16443 1.01068 9.93313 0 11.8913 0L24.7776 0.0631678C22.314 0.126336 19.8505 1.7687 18.5239 4.10591L7.53276 23.1194C6.20623 25.4566 5.95356 28.4255 7.15375 30.5732L0.710637 19.3925Z" fill="#6EABE1"/>
<path d="M69.6271 15.9182V17.4342C69.6271 20.2136 68.7427 22.4877 66.9109 24.2564C65.079 26.0251 62.805 26.8462 59.9624 26.8462C56.9304 26.8462 54.4036 25.8356 52.4454 23.8774C50.4241 21.856 49.4766 19.4556 49.4766 16.6131C49.4766 13.7705 50.4872 11.3701 52.4454 9.34877C54.4668 7.3274 56.8672 6.37988 59.7729 6.37988C63.4366 6.37988 66.6582 8.14858 68.3006 10.928L65.0158 12.823C64.0683 11.2438 62.0469 10.1068 59.7729 10.1068C57.8779 10.1068 56.3618 10.7385 55.1617 11.9386C53.9615 13.1388 53.393 14.718 53.393 16.5499C53.393 18.3818 54.0246 19.961 55.2248 21.1611C56.4882 22.3613 58.0674 22.9298 60.0887 22.9298C63.1208 22.9298 65.079 21.5401 65.837 19.2029H59.8992V15.7919H69.6271V15.9182Z" fill="#6EABE1"/>
<path d="M78.9131 26.8467C76.8286 26.8467 75.0599 26.1518 73.6702 24.699C72.2805 23.2461 71.5225 21.4774 71.5225 19.4561C71.5225 17.4347 72.2173 15.666 73.6702 14.2131C75.123 12.7603 76.8917 12.0654 78.9131 12.0654C80.9976 12.0654 82.7663 12.8234 84.156 14.2131C85.5457 15.6028 86.3037 17.3715 86.3037 19.4561C86.3037 21.5406 85.5457 23.3093 84.156 24.699C82.7663 26.0887 80.9976 26.8467 78.9131 26.8467ZM78.9131 23.3093C79.9869 23.3093 80.9345 22.9303 81.6293 22.2354C82.3241 21.5406 82.7032 20.5931 82.7032 19.4561C82.7032 18.319 82.3241 17.4347 81.6293 16.6767C80.8713 15.9187 79.9869 15.6028 78.9131 15.6028C77.8392 15.6028 76.8917 15.9818 76.1969 16.6767C75.502 17.4347 75.123 18.319 75.123 19.4561C75.123 20.5931 75.502 21.4774 76.1969 22.2354C76.8917 22.9935 77.8392 23.3093 78.9131 23.3093Z" fill="#6EABE1"/>
<path d="M96.4105 6.82227C98.3055 6.82227 99.8847 7.45394 101.148 8.7173C102.411 9.98065 103.106 11.5598 103.106 13.3917C103.106 15.2236 102.475 16.8028 101.148 18.0661C99.8847 19.3295 98.2423 19.9612 96.4105 19.9612H92.9362V26.4043H89.083V6.82227H96.4105ZM96.4105 16.4238C98.0528 16.4238 99.253 15.1604 99.253 13.4549C99.253 11.7494 98.0528 10.486 96.4105 10.486H92.9362V16.4238H96.4105Z" fill="#5065A7"/>
<path d="M117.066 13.5812C118.077 14.5919 118.582 16.0448 118.582 17.8135V26.4043H114.919V18.3188C114.919 16.4238 113.845 15.4131 112.139 15.4131C110.244 15.4131 109.044 16.5501 109.044 18.8873V26.4674H105.443V6.82227H109.044V14.0234C109.928 12.6969 111.318 12.0652 113.213 12.0652C114.792 12.0652 116.056 12.5705 117.066 13.5812Z" fill="#5065A7"/>
<path d="M132.289 12.4444H135.89V26.4677H132.289V24.8253C131.215 26.215 129.699 26.8467 127.741 26.8467C125.846 26.8467 124.267 26.1518 122.94 24.699C121.614 23.2461 120.919 21.4774 120.919 19.4561C120.919 17.4347 121.614 15.666 122.94 14.2131C124.267 12.7603 125.909 12.0654 127.741 12.0654C129.699 12.0654 131.215 12.7603 132.289 14.0868V12.4444ZM128.373 23.4356C129.51 23.4356 130.394 23.0566 131.152 22.3618C131.91 21.6038 132.289 20.6562 132.289 19.5192C132.289 18.3822 131.91 17.4347 131.152 16.6767C130.394 15.9187 129.51 15.5397 128.373 15.5397C127.236 15.5397 126.351 15.9187 125.593 16.6767C124.835 17.4347 124.52 18.3822 124.52 19.5192C124.52 20.6562 124.899 21.6038 125.593 22.3618C126.351 23.0566 127.299 23.4356 128.373 23.4356Z" fill="#5065A7"/>
<path d="M142.838 14.8441C143.533 13.0754 145.175 12.1279 147.07 12.1279V16.1707C145.996 16.0443 144.986 16.2338 144.101 16.8655C143.217 17.434 142.838 18.3815 142.838 19.7712V26.467H139.237V12.4438H142.838V14.8441Z" fill="#5065A7"/>
<path d="M170 17.8137V26.4677H166.4V18.0664C166.4 16.3608 165.515 15.4133 164.063 15.4133C162.42 15.4133 161.473 16.5503 161.473 18.5717V26.4677H157.872V18.0664C157.872 16.3608 156.988 15.4133 155.535 15.4133C153.956 15.4133 152.882 16.5503 152.882 18.5717V26.4677H149.281V12.4444H152.882V13.9605C153.703 12.6971 155.03 12.0654 156.798 12.0654C158.504 12.0654 159.83 12.7603 160.588 14.0868C161.536 12.7603 162.925 12.0654 164.757 12.0654C167.916 12.0654 170 14.3395 170 17.8137Z" fill="#5065A7"/>
<path d="M108.052 29.8352H108.624V33.1836H108.052V30.7419L106.507 33.1836H105.935V29.8352H106.507V32.28L108.052 29.8352ZM112.279 33.1836H111.706V31.7539H110.168V33.1836H109.593V29.8352H110.168V31.2866H111.706V29.8352H112.279V33.1836ZM115.689 30.2994H114.566V33.1836H113.993V30.2994H112.892V29.8352H115.689V30.2994ZM117.388 33.2455C116.934 33.2455 116.565 33.0969 116.28 32.7999C115.996 32.5007 115.853 32.1015 115.853 31.6022V31.497C115.853 31.1649 115.916 30.8688 116.042 30.6089C116.17 30.3468 116.347 30.1426 116.574 29.9961C116.803 29.8476 117.051 29.7733 117.317 29.7733C117.752 29.7733 118.091 29.9167 118.332 30.2035C118.573 30.4902 118.694 30.9008 118.694 31.4351V31.6734H116.426C116.434 32.0035 116.53 32.2707 116.714 32.4749C116.899 32.6771 117.134 32.7782 117.419 32.7782C117.621 32.7782 117.793 32.7369 117.933 32.6544C118.073 32.5719 118.196 32.4625 118.301 32.3264L118.651 32.5987C118.37 33.0299 117.949 33.2455 117.388 33.2455ZM117.317 30.2437C117.086 30.2437 116.892 30.3283 116.735 30.4975C116.578 30.6646 116.481 30.8998 116.444 31.203H118.122V31.1597C118.105 30.8688 118.027 30.6439 117.886 30.4851C117.746 30.3242 117.556 30.2437 117.317 30.2437ZM122.188 31.5465C122.188 32.0561 122.071 32.4667 121.838 32.7782C121.605 33.0897 121.289 33.2455 120.891 33.2455C120.485 33.2455 120.165 33.1165 119.932 32.8587V34.471H119.359V29.8352H119.882L119.91 30.2066C120.143 29.9177 120.467 29.7733 120.882 29.7733C121.284 29.7733 121.602 29.9249 121.835 30.2282C122.07 30.5315 122.188 30.9534 122.188 31.4939V31.5465ZM121.615 31.4815C121.615 31.104 121.535 30.8059 121.374 30.5872C121.213 30.3685 120.992 30.2592 120.712 30.2592C120.365 30.2592 120.105 30.4129 119.932 30.7203V32.3202C120.103 32.6255 120.365 32.7782 120.718 32.7782C120.992 32.7782 121.21 32.6699 121.371 32.4533C121.534 32.2346 121.615 31.9107 121.615 31.4815ZM125.654 33.1836H125.081V31.7539H123.543V33.1836H122.968V29.8352H123.543V31.2866H125.081V29.8352H125.654V33.1836ZM127.966 33.2455C127.512 33.2455 127.142 33.0969 126.858 32.7999C126.573 32.5007 126.431 32.1015 126.431 31.6022V31.497C126.431 31.1649 126.494 30.8688 126.619 30.6089C126.747 30.3468 126.925 30.1426 127.152 29.9961C127.381 29.8476 127.628 29.7733 127.894 29.7733C128.33 29.7733 128.668 29.9167 128.909 30.2035C129.151 30.4902 129.272 30.9008 129.272 31.4351V31.6734H127.003C127.011 32.0035 127.107 32.2707 127.291 32.4749C127.477 32.6771 127.712 32.7782 127.997 32.7782C128.199 32.7782 128.37 32.7369 128.51 32.6544C128.651 32.5719 128.773 32.4625 128.879 32.3264L129.228 32.5987C128.948 33.0299 128.527 33.2455 127.966 33.2455ZM127.894 30.2437C127.663 30.2437 127.469 30.3283 127.313 30.4975C127.156 30.6646 127.059 30.8998 127.022 31.203H128.699V31.1597C128.683 30.8688 128.604 30.6439 128.464 30.4851C128.324 30.3242 128.134 30.2437 127.894 30.2437ZM132.388 30.2994H131.264V33.1836H130.692V30.2994H129.59V29.8352H132.388V30.2994ZM136.584 33.1836C136.551 33.1176 136.524 33 136.504 32.8308C136.238 33.1073 135.92 33.2455 135.551 33.2455C135.22 33.2455 134.949 33.1526 134.737 32.967C134.526 32.7792 134.421 32.542 134.421 32.2552C134.421 31.9065 134.553 31.6363 134.817 31.4444C135.083 31.2505 135.457 31.1535 135.937 31.1535H136.494V30.8905C136.494 30.6904 136.435 30.5315 136.315 30.4139C136.195 30.2942 136.019 30.2344 135.786 30.2344C135.582 30.2344 135.41 30.286 135.272 30.3891C135.134 30.4923 135.065 30.6171 135.065 30.7636H134.489C134.489 30.5965 134.548 30.4356 134.665 30.2808C134.785 30.124 134.946 30.0002 135.148 29.9095C135.353 29.8187 135.576 29.7733 135.82 29.7733C136.206 29.7733 136.508 29.8703 136.727 30.0642C136.945 30.2561 137.059 30.5212 137.067 30.8595V32.4007C137.067 32.7081 137.106 32.9525 137.185 33.1341V33.1836H136.584ZM135.634 32.7473C135.814 32.7473 135.984 32.7008 136.145 32.608C136.306 32.5152 136.422 32.3945 136.494 32.2459V31.5589H136.046C135.344 31.5589 134.994 31.7642 134.994 32.1747C134.994 32.3542 135.053 32.4945 135.173 32.5956C135.293 32.6967 135.446 32.7473 135.634 32.7473ZM140.703 33.1836H140.131V30.3087H138.589V33.1836H138.014V29.8352H140.703V33.1836ZM144.11 30.2994H142.987V33.1836H142.414V30.2994H141.313V29.8352H144.11V30.2994ZM145.809 33.2455C145.355 33.2455 144.986 33.0969 144.701 32.7999C144.417 32.5007 144.274 32.1015 144.274 31.6022V31.497C144.274 31.1649 144.337 30.8688 144.463 30.6089C144.591 30.3468 144.768 30.1426 144.995 29.9961C145.224 29.8476 145.472 29.7733 145.738 29.7733C146.173 29.7733 146.512 29.9167 146.753 30.2035C146.995 30.4902 147.115 30.9008 147.115 31.4351V31.6734H144.847C144.855 32.0035 144.951 32.2707 145.135 32.4749C145.32 32.6771 145.556 32.7782 145.84 32.7782C146.042 32.7782 146.214 32.7369 146.354 32.6544C146.494 32.5719 146.617 32.4625 146.722 32.3264L147.072 32.5987C146.791 33.0299 146.37 33.2455 145.809 33.2455ZM145.738 30.2437C145.507 30.2437 145.313 30.3283 145.156 30.4975C145 30.6646 144.903 30.8998 144.865 31.203H146.543V31.1597C146.526 30.8688 146.448 30.6439 146.308 30.4851C146.167 30.3242 145.977 30.2437 145.738 30.2437ZM148.823 31.757H148.406V33.1836H147.83V29.8352H148.406V31.2525H148.78L149.907 29.8352H150.6L149.275 31.4444L150.711 33.1836H149.984L148.823 31.757ZM153.27 33.1836C153.237 33.1176 153.211 33 153.19 32.8308C152.924 33.1073 152.606 33.2455 152.237 33.2455C151.907 33.2455 151.635 33.1526 151.423 32.967C151.213 32.7792 151.107 32.542 151.107 32.2552C151.107 31.9065 151.239 31.6363 151.503 31.4444C151.77 31.2505 152.143 31.1535 152.624 31.1535H153.181V30.8905C153.181 30.6904 153.121 30.5315 153.001 30.4139C152.882 30.2942 152.705 30.2344 152.472 30.2344C152.268 30.2344 152.097 30.286 151.958 30.3891C151.82 30.4923 151.751 30.6171 151.751 30.7636H151.175C151.175 30.5965 151.234 30.4356 151.352 30.2808C151.471 30.124 151.632 30.0002 151.835 29.9095C152.039 29.8187 152.263 29.7733 152.506 29.7733C152.892 29.7733 153.194 29.8703 153.413 30.0642C153.631 30.2561 153.745 30.5212 153.753 30.8595V32.4007C153.753 32.7081 153.792 32.9525 153.871 33.1341V33.1836H153.27ZM152.32 32.7473C152.5 32.7473 152.67 32.7008 152.831 32.608C152.992 32.5152 153.108 32.3945 153.181 32.2459V31.5589H152.732C152.031 31.5589 151.68 31.7642 151.68 32.1747C151.68 32.3542 151.74 32.4945 151.859 32.5956C151.979 32.6967 152.133 32.7473 152.32 32.7473Z" fill="#5065A7"/>
</svg>
