<svg width="42" height="42" viewBox="0 0 42 42" fill="none" xmlns="http://www.w3.org/2000/svg">
<rect width="42" height="42" rx="12" fill="#D434AB" fill-opacity="0.1"/>
<path d="M14.3479 12H12V17.4783C12 19.6305 13.7609 21.3914 15.9131 21.3914C18.0653 21.3914 19.8262 19.6305 19.8262 17.4783V12H17.4783" stroke="#D434AB" stroke-width="2" stroke-miterlimit="10"/>
<path d="M15.9131 21.391V24.3258C15.9131 27.4563 18.4566 29.9998 21.5871 29.9998C24.7175 29.9998 27.261 27.4563 27.261 24.3258V20.6084" stroke="#D434AB" stroke-width="2" stroke-miterlimit="10"/>
<path d="M27.2606 20.6092C28.7734 20.6092 29.9998 19.3828 29.9998 17.87C29.9998 16.3572 28.7734 15.1309 27.2606 15.1309C25.7478 15.1309 24.5215 16.3572 24.5215 17.87C24.5215 19.3828 25.7478 20.6092 27.2606 20.6092Z" stroke="#D434AB" stroke-width="2" stroke-miterlimit="10"/>
</svg>
