<svg width="24" height="24" viewBox="0 0 24 24" fill="none" xmlns="http://www.w3.org/2000/svg">
<path d="M16.7917 3.42856C18.7021 3.42856 19.3949 3.62747 20.0933 4.00099C20.7917 4.3745 21.3398 4.92262 21.7134 5.62103C22.0869 6.31944 22.2858 7.0122 22.2858 8.9226V15.0774C22.2858 16.9878 22.0869 17.6805 21.7134 18.3789C21.3398 19.0774 20.7917 19.6255 20.0933 19.999C19.3949 20.3725 18.7021 20.5714 16.7917 20.5714H7.20839C5.298 20.5714 4.60524 20.3725 3.90683 19.999C3.20842 19.6255 2.6603 19.0774 2.28678 18.3789C1.91327 17.6805 1.71436 16.9878 1.71436 15.0774V8.9226C1.71436 7.0122 1.91327 6.31944 2.28678 5.62103C2.6603 4.92262 3.20842 4.3745 3.90683 4.00099C4.60524 3.62747 5.298 3.42856 7.20839 3.42856H16.7917ZM20.5706 11.1428H3.42778L3.42864 15.5607C3.42864 16.7069 3.54799 17.1226 3.7721 17.5416C3.99621 17.9607 4.32508 18.2896 4.74412 18.5137C5.13698 18.7238 5.52686 18.8418 6.51853 18.8557L6.72506 18.8571H17.2751C18.4213 18.8571 18.837 18.7378 19.256 18.5137C19.6751 18.2896 20.0039 17.9607 20.228 17.5416C20.4381 17.1488 20.5562 16.7589 20.5701 15.7672L20.5715 15.5607L20.5706 11.1428ZM7.49612 13.7143C7.85008 13.7143 7.99332 13.7541 8.133 13.8288C8.27269 13.9035 8.38231 14.0131 8.45701 14.1528C8.53172 14.2924 8.5715 14.4357 8.5715 14.7896V15.2103C8.5715 15.5643 8.53172 15.7075 8.45701 15.8472C8.38231 15.9869 8.27269 16.0965 8.133 16.1712C7.99332 16.2459 7.85008 16.2857 7.49612 16.2857H7.07544C6.72148 16.2857 6.57825 16.2459 6.43856 16.1712C6.29888 16.0965 6.18926 15.9869 6.11455 15.8472C6.03985 15.7075 6.00007 15.5643 6.00007 15.2103V14.7896C6.00007 14.4357 6.03985 14.2924 6.11455 14.1528C6.18926 14.0131 6.29888 13.9035 6.43856 13.8288C6.57825 13.7541 6.72148 13.7143 7.07544 13.7143H7.49612ZM17.2751 5.14284H6.72506C5.57883 5.14284 5.16317 5.26219 4.74412 5.4863C4.32508 5.71041 3.99621 6.03928 3.7721 6.45833C3.562 6.85119 3.44397 7.24106 3.43004 8.23273L3.42864 8.43927L3.42778 8.57141H20.5706L20.5715 8.43927C20.5715 7.29303 20.4521 6.87738 20.228 6.45833C20.0039 6.03928 19.6751 5.71041 19.256 5.4863C18.8632 5.2762 18.4733 5.15817 17.4816 5.14424L17.2751 5.14284Z" fill="#818C99"/>
</svg>
