<svg width="20" height="18" viewBox="0 0 20 18" fill="none" xmlns="http://www.w3.org/2000/svg">
<path d="M16.4284 7.72397C16.4284 4.5236 13.5506 1.92871 9.99986 1.92871C6.44916 1.92871 3.57129 4.5236 3.57129 7.72397C3.57129 10.0046 5.12785 12.7575 8.20011 16.0267C9.04078 16.9213 10.5281 17.0331 11.522 16.2765C11.6221 16.2004 11.715 16.1168 11.7996 16.0267C14.8719 12.7575 16.4284 10.0046 16.4284 7.72397ZM10.5995 15.2949C10.2079 15.5929 9.62204 15.5489 9.29087 15.1964C6.41658 12.1379 4.99986 9.63234 4.99986 7.72397C4.99986 5.23315 7.23873 3.21443 9.99986 3.21443C12.761 3.21443 14.9999 5.23315 14.9999 7.72397C14.9999 9.63235 13.5831 12.1379 10.7089 15.1964C10.6755 15.2319 10.6389 15.2648 10.5995 15.2949ZM7.14272 7.71443C7.14272 6.29463 8.42231 5.143 9.99986 5.143C11.5774 5.143 12.857 6.29463 12.857 7.71443C12.857 9.13422 11.5774 10.2859 9.99986 10.2859C8.42231 10.2859 7.14272 9.13422 7.14272 7.71443ZM8.57129 7.71443C8.57129 8.42414 9.21129 9.00014 9.99986 9.00014C10.7884 9.00014 11.4284 8.42414 11.4284 7.71443C11.4284 7.00471 10.7884 6.42871 9.99986 6.42871C9.21129 6.42871 8.57129 7.00471 8.57129 7.71443Z" fill="#3F8AE0"/>
</svg>
