<svg width="113" height="139" viewBox="0 0 113 139" fill="none" xmlns="http://www.w3.org/2000/svg">
<rect x="0.458845" y="0.428571" width="111.173" height="138.143" rx="8.57143" fill="#1B1B1B" stroke="#333333" stroke-width="0.857143"/>
<path d="M39.8018 114.252C39.8018 114.868 39.648 115.406 39.2634 115.791C38.8018 116.252 38.2634 116.483 37.5711 116.483C36.8788 116.483 36.3403 116.252 35.8788 115.791C35.4173 115.329 35.1865 114.791 35.1865 114.098C35.1865 113.406 35.4173 112.868 35.8788 112.406C36.3403 111.945 36.8788 111.714 37.5711 111.714C37.8788 111.714 38.1865 111.791 38.4941 111.945C38.8018 112.098 39.0326 112.252 39.1864 112.483L38.8018 112.868C38.4941 112.483 38.1095 112.329 37.5711 112.329C37.1096 112.329 36.648 112.483 36.3403 112.868C35.9557 113.175 35.8019 113.637 35.8019 114.175C35.8019 114.714 35.9557 115.175 36.3403 115.483C36.7249 115.791 37.1096 116.021 37.5711 116.021C38.1095 116.021 38.4941 115.868 38.8787 115.483C39.1095 115.252 39.2634 114.945 39.2634 114.56H37.5711V113.945H39.8018V114.252ZM43.3402 112.329H41.2633V113.791H43.1863V114.329H41.2633V115.791H43.3402V116.406H40.6479V111.791H43.3402V112.329ZM45.8786 116.406H45.2632V112.329H43.9555V111.791H47.1862V112.329H45.8786V116.406ZM49.417 116.406V111.791H50.0323V116.406H49.417ZM52.6477 116.406H52.0323V112.329H50.7246V111.791H53.8784V112.329H52.5707V116.406H52.6477ZM59.9552 115.791C59.4936 116.252 58.9552 116.483 58.2629 116.483C57.5706 116.483 57.0322 116.252 56.5706 115.791C56.1091 115.329 55.8784 114.791 55.8784 114.098C55.8784 113.406 56.1091 112.868 56.5706 112.406C57.0322 111.945 57.5706 111.714 58.2629 111.714C58.9552 111.714 59.4936 111.945 59.9552 112.406C60.4167 112.868 60.6475 113.406 60.6475 114.098C60.6475 114.791 60.4167 115.329 59.9552 115.791ZM57.0322 115.406C57.3399 115.714 57.8014 115.945 58.2629 115.945C58.7244 115.945 59.186 115.791 59.4937 115.406C59.8013 115.098 60.0321 114.637 60.0321 114.098C60.0321 113.56 59.8783 113.098 59.4937 112.791C59.186 112.483 58.7244 112.252 58.2629 112.252C57.8014 112.252 57.3399 112.406 57.0322 112.791C56.7245 113.098 56.4937 113.56 56.4937 114.098C56.4937 114.637 56.6476 115.098 57.0322 115.406ZM61.4936 116.406V111.791H62.1859L64.4166 115.406V111.791H65.032V116.406H64.4166L62.0321 112.637V116.406H61.4936Z" fill="#F5F5F5"/>
<path d="M55.7238 123.175C53.8777 123.175 52.4162 124.559 52.4162 126.482C52.4162 128.329 53.8777 129.79 55.7238 129.79C57.5699 129.79 59.0314 128.406 59.0314 126.482C59.0314 124.483 57.5699 123.175 55.7238 123.175ZM55.7238 128.406C54.7239 128.406 53.8777 127.559 53.8777 126.406C53.8777 125.252 54.7239 124.406 55.7238 124.406C56.7238 124.406 57.5699 125.175 57.5699 126.406C57.5699 127.559 56.7238 128.406 55.7238 128.406ZM48.5701 123.175C46.724 123.175 45.2625 124.559 45.2625 126.482C45.2625 128.329 46.724 129.79 48.5701 129.79C50.4163 129.79 51.8778 128.406 51.8778 126.482C51.8778 124.483 50.4163 123.175 48.5701 123.175ZM48.5701 128.406C47.5702 128.406 46.724 127.559 46.724 126.406C46.724 125.252 47.5702 124.406 48.5701 124.406C49.5701 124.406 50.4163 125.175 50.4163 126.406C50.4163 127.559 49.5701 128.406 48.5701 128.406ZM40.0319 124.175V125.559H43.3395C43.2626 126.329 42.9549 126.944 42.5703 127.329C42.1088 127.79 41.3395 128.329 40.0319 128.329C37.955 128.329 36.4166 126.713 36.4166 124.636C36.4166 122.56 38.0319 120.944 40.0319 120.944C41.1088 120.944 41.9549 121.406 42.5703 121.944L43.5703 120.944C42.7241 120.175 41.6472 119.56 40.1088 119.56C37.3396 119.56 34.9551 121.867 34.9551 124.636C34.9551 127.406 37.3396 129.713 40.1088 129.713C41.6472 129.713 42.7241 129.252 43.6472 128.252C44.5702 127.329 44.8779 126.021 44.8779 125.021C44.8779 124.713 44.8779 124.406 44.801 124.175H40.0319ZM74.9541 125.252C74.6465 124.483 73.8773 123.175 72.185 123.175C70.4927 123.175 69.1081 124.483 69.1081 126.482C69.1081 128.329 70.4927 129.79 72.3388 129.79C73.8003 129.79 74.7234 128.867 75.0311 128.329L73.9542 127.559C73.5696 128.098 73.108 128.482 72.3388 128.482C71.5696 128.482 71.1081 128.175 70.7235 127.482L75.108 125.636L74.9541 125.252ZM70.4927 126.329C70.4927 125.098 71.4927 124.406 72.185 124.406C72.7234 124.406 73.2619 124.713 73.4157 125.098L70.4927 126.329ZM66.8774 129.482H68.3389V119.867H66.8774V129.482ZM64.5698 123.867C64.1852 123.483 63.5698 123.098 62.8006 123.098C61.1852 123.098 59.6468 124.559 59.6468 126.406C59.6468 128.252 61.1083 129.636 62.8006 129.636C63.5698 129.636 64.1852 129.252 64.4929 128.867H64.5698V129.329C64.5698 130.559 63.8775 131.252 62.8006 131.252C61.9545 131.252 61.3391 130.636 61.1852 130.098L59.9545 130.636C60.3391 131.482 61.2622 132.559 62.8775 132.559C64.5698 132.559 65.9544 131.559 65.9544 129.175V123.329H64.5698V123.867ZM62.8775 128.406C61.8775 128.406 61.0314 127.559 61.0314 126.406C61.0314 125.252 61.8775 124.406 62.8775 124.406C63.8775 124.406 64.6467 125.252 64.6467 126.406C64.6467 127.559 63.8775 128.406 62.8775 128.406ZM81.6463 119.867H78.1848V129.482H79.6463V125.867H81.6463C83.2617 125.867 84.8001 124.713 84.8001 122.867C84.8001 121.021 83.2617 119.867 81.6463 119.867ZM81.7232 124.483H79.6463V121.175H81.7232C82.8001 121.175 83.4155 122.098 83.4155 122.79C83.3386 123.636 82.7232 124.483 81.7232 124.483ZM90.5692 123.098C89.4923 123.098 88.4154 123.559 88.0308 124.559L89.3384 125.098C89.6461 124.559 90.1076 124.406 90.6461 124.406C91.4153 124.406 92.1076 124.867 92.1845 125.636V125.713C91.9538 125.559 91.3384 125.329 90.723 125.329C89.3384 125.329 87.9538 126.098 87.9538 127.482C87.9538 128.79 89.1077 129.636 90.3384 129.636C91.3384 129.636 91.7999 129.175 92.1845 128.713H92.2614V129.482H93.646V125.79C93.4922 124.098 92.1845 123.098 90.5692 123.098ZM90.4153 128.406C89.9538 128.406 89.2615 128.175 89.2615 127.559C89.2615 126.79 90.1076 126.559 90.7999 126.559C91.4153 126.559 91.723 126.713 92.1076 126.867C91.9538 127.79 91.1845 128.406 90.4153 128.406ZM98.4921 123.329L96.8767 127.482H96.7998L95.1075 123.329H93.5691L96.1075 129.175L94.646 132.405H96.1075L100.03 123.329H98.4921ZM85.5693 129.482H87.0308V119.867H85.5693V129.482Z" fill="#F5F5F5"/>
<path d="M11.338 112.176C11.1072 112.407 11.0303 112.791 11.0303 113.253V130.252C11.0303 130.714 11.1841 131.098 11.4149 131.329L11.4918 131.406L21.03 121.868V121.714L11.338 112.176Z" fill="url(#paint0_linear)"/>
<path d="M24.1069 125.097L20.9531 121.943V121.712L24.1069 118.559L24.1838 118.636L27.953 120.789C29.0299 121.405 29.0299 122.405 27.953 123.02L24.1069 125.097Z" fill="url(#paint1_linear)"/>
<path d="M24.1818 125.022L20.9511 121.791L11.3359 131.406C11.7205 131.791 12.259 131.791 12.9513 131.483L24.1818 125.022Z" fill="url(#paint2_linear)"/>
<path d="M24.1818 118.559L12.9513 112.175C12.259 111.79 11.7205 111.867 11.3359 112.252L20.9511 121.79L24.1818 118.559Z" fill="url(#paint3_linear)"/>
<path opacity="0.2" d="M24.1049 124.944L12.9513 131.252C12.3359 131.636 11.7975 131.56 11.4129 131.252L11.3359 131.329L11.4129 131.406C11.7975 131.713 12.3359 131.79 12.9513 131.406L24.1049 124.944Z" fill="black"/>
<path opacity="0.2" d="M11.338 131.252C11.1072 131.022 11.0303 130.637 11.0303 130.175V130.252C11.0303 130.714 11.1841 131.098 11.4149 131.329V131.252H11.338ZM27.953 122.791L24.1069 124.945L24.1838 125.022L27.953 122.868C28.4914 122.56 28.7222 122.176 28.7222 121.791C28.7222 122.176 28.4145 122.483 27.953 122.791Z" fill="black"/>
<path opacity="0.2" d="M12.9533 112.253L27.953 120.791C28.4145 121.099 28.7222 121.406 28.7222 121.791C28.7222 121.406 28.4914 121.022 27.953 120.714L12.9533 112.176C11.8764 111.56 11.0303 112.022 11.0303 113.253V113.33C11.0303 112.176 11.8764 111.637 12.9533 112.253Z" fill="#F5F5F5"/>
<path d="M100.144 6.91602H11.9453C9.18389 6.91602 6.94531 9.15459 6.94531 11.916V100.115C6.94531 102.876 9.18389 105.115 11.9453 105.115H100.144C102.906 105.115 105.144 102.876 105.144 100.115V11.916C105.144 9.15459 102.906 6.91602 100.144 6.91602Z" fill="white"/>
<path d="M14.6969 12H12.0303V14.6667H14.6969V12Z" fill="black"/>
<path d="M17.3636 12H14.6969V14.6667H17.3636V12Z" fill="black"/>
<path d="M20.0303 12H17.3636V14.6667H20.0303V12Z" fill="black"/>
<path d="M22.6969 12H20.0303V14.6667H22.6969V12Z" fill="black"/>
<path d="M25.3636 12H22.6969V14.6667H25.3636V12Z" fill="black"/>
<path d="M28.0303 12H25.3636V14.6667H28.0303V12Z" fill="black"/>
<path d="M30.6969 12H28.0303V14.6667H30.6969V12Z" fill="black"/>
<path d="M36.0303 12H33.3636V14.6667H36.0303V12Z" fill="black"/>
<path d="M46.6969 12H44.0303V14.6667H46.6969V12Z" fill="black"/>
<path d="M49.3636 12H46.6969V14.6667H49.3636V12Z" fill="black"/>
<path d="M52.0303 12H49.3636V14.6667H52.0303V12Z" fill="black"/>
<path d="M54.6969 12H52.0303V14.6667H54.6969V12Z" fill="black"/>
<path d="M62.6969 12H60.0303V14.6667H62.6969V12Z" fill="black"/>
<path d="M68.0303 12H65.3636V14.6667H68.0303V12Z" fill="black"/>
<path d="M73.3636 12H70.6969V14.6667H73.3636V12Z" fill="black"/>
<path d="M78.6969 12H76.0303V14.6667H78.6969V12Z" fill="black"/>
<path d="M84.0303 12H81.3636V14.6667H84.0303V12Z" fill="black"/>
<path d="M86.6969 12H84.0303V14.6667H86.6969V12Z" fill="black"/>
<path d="M89.3636 12H86.6969V14.6667H89.3636V12Z" fill="black"/>
<path d="M92.0303 12H89.3636V14.6667H92.0303V12Z" fill="black"/>
<path d="M94.6969 12H92.0303V14.6667H94.6969V12Z" fill="black"/>
<path d="M97.3636 12H94.6969V14.6667H97.3636V12Z" fill="black"/>
<path d="M100.03 12H97.3636V14.6667H100.03V12Z" fill="black"/>
<path d="M14.6969 14.6667H12.0303V17.3333H14.6969V14.6667Z" fill="black"/>
<path d="M30.6969 14.6667H28.0303V17.3333H30.6969V14.6667Z" fill="black"/>
<path d="M38.6969 14.6667H36.0303V17.3333H38.6969V14.6667Z" fill="black"/>
<path d="M41.3636 14.6667H38.6969V17.3333H41.3636V14.6667Z" fill="black"/>
<path d="M44.0303 14.6667H41.3636V17.3333H44.0303V14.6667Z" fill="black"/>
<path d="M46.6969 14.6667H44.0303V17.3333H46.6969V14.6667Z" fill="black"/>
<path d="M49.3636 14.6667H46.6969V17.3333H49.3636V14.6667Z" fill="black"/>
<path d="M65.3636 14.6667H62.6969L62.6969 17.3333H65.3636V14.6667Z" fill="black"/>
<path d="M73.3636 14.6667H70.6969V17.3333H73.3636V14.6667Z" fill="black"/>
<path d="M76.0303 14.6667H73.3636V17.3333H76.0303V14.6667Z" fill="black"/>
<path d="M84.0303 14.6667H81.3636V17.3333H84.0303V14.6667Z" fill="black"/>
<path d="M100.03 14.6667H97.3636V17.3333H100.03V14.6667Z" fill="black"/>
<path d="M14.6969 17.3333H12.0303V20H14.6969V17.3333Z" fill="black"/>
<path d="M20.0303 17.3333H17.3636V20H20.0303V17.3333Z" fill="black"/>
<path d="M22.6969 17.3333H20.0303V20H22.6969V17.3333Z" fill="black"/>
<path d="M25.3636 17.3333H22.6969V20H25.3636V17.3333Z" fill="black"/>
<path d="M30.6969 17.3333H28.0303V20H30.6969V17.3333Z" fill="black"/>
<path d="M38.6969 17.3333H36.0303V20H38.6969V17.3333Z" fill="black"/>
<path d="M44.0303 17.3333H41.3636V20H44.0303V17.3333Z" fill="black"/>
<path d="M54.6969 17.3333H52.0303V20H54.6969V17.3333Z" fill="black"/>
<path d="M57.3636 17.3333H54.6969V20H57.3636V17.3333Z" fill="black"/>
<path d="M60.0303 17.3333H57.3636V20H60.0303V17.3333Z" fill="black"/>
<path d="M62.6969 17.3333H60.0303V20H62.6969L62.6969 17.3333Z" fill="black"/>
<path d="M65.3636 17.3333H62.6969L62.6969 20H65.3636V17.3333Z" fill="black"/>
<path d="M68.0303 17.3333H65.3636V20H68.0303V17.3333Z" fill="black"/>
<path d="M70.6969 17.3333H68.0303V20H70.6969V17.3333Z" fill="black"/>
<path d="M78.6969 17.3333H76.0303V20H78.6969V17.3333Z" fill="black"/>
<path d="M84.0303 17.3333H81.3636V20H84.0303V17.3333Z" fill="black"/>
<path d="M89.3636 17.3333H86.6969V20H89.3636V17.3333Z" fill="black"/>
<path d="M92.0303 17.3333H89.3636V20H92.0303V17.3333Z" fill="black"/>
<path d="M94.6969 17.3333H92.0303V20H94.6969V17.3333Z" fill="black"/>
<path d="M100.03 17.3333H97.3636V20H100.03V17.3333Z" fill="black"/>
<path d="M14.6969 20H12.0303V22.6667H14.6969V20Z" fill="black"/>
<path d="M20.0303 20H17.3636V22.6667H20.0303V20Z" fill="black"/>
<path d="M22.6969 20H20.0303V22.6667H22.6969V20Z" fill="black"/>
<path d="M25.3636 20H22.6969V22.6667H25.3636V20Z" fill="black"/>
<path d="M30.6969 20H28.0303V22.6667H30.6969V20Z" fill="black"/>
<path d="M36.0303 20H33.3636V22.6667H36.0303V20Z" fill="black"/>
<path d="M41.3636 20H38.6969V22.6667H41.3636V20Z" fill="black"/>
<path d="M49.3636 20H46.6969V22.6667H49.3636V20Z" fill="black"/>
<path d="M52.0303 20H49.3636V22.6667H52.0303V20Z" fill="black"/>
<path d="M54.6969 20H52.0303V22.6667H54.6969V20Z" fill="black"/>
<path d="M65.3636 20H62.6969L62.6969 22.6667H65.3636V20Z" fill="black"/>
<path d="M70.6969 20H68.0303V22.6667H70.6969V20Z" fill="black"/>
<path d="M84.0303 20H81.3636V22.6667H84.0303V20Z" fill="black"/>
<path d="M89.3636 20H86.6969V22.6667H89.3636V20Z" fill="black"/>
<path d="M92.0303 20H89.3636V22.6667H92.0303V20Z" fill="black"/>
<path d="M94.6969 20H92.0303V22.6667H94.6969V20Z" fill="black"/>
<path d="M100.03 20H97.3636V22.6667H100.03V20Z" fill="black"/>
<path d="M14.6969 22.6667H12.0303V25.3333H14.6969V22.6667Z" fill="black"/>
<path d="M20.0303 22.6667H17.3636V25.3333H20.0303V22.6667Z" fill="black"/>
<path d="M22.6969 22.6667H20.0303V25.3333H22.6969V22.6667Z" fill="black"/>
<path d="M25.3636 22.6667H22.6969V25.3333H25.3636V22.6667Z" fill="black"/>
<path d="M30.6969 22.6667H28.0303V25.3333H30.6969V22.6667Z" fill="black"/>
<path d="M38.6969 22.6667H36.0303V25.3333H38.6969V22.6667Z" fill="black"/>
<path d="M44.0303 22.6667H41.3636V25.3333H44.0303V22.6667Z" fill="black"/>
<path d="M46.6969 22.6667H44.0303V25.3333H46.6969V22.6667Z" fill="black"/>
<path d="M54.6969 22.6667H52.0303V25.3333H54.6969V22.6667Z" fill="black"/>
<path d="M60.0303 22.6667H57.3636V25.3333H60.0303V22.6667Z" fill="black"/>
<path d="M62.6969 22.6667H60.0303V25.3333H62.6969L62.6969 22.6667Z" fill="black"/>
<path d="M65.3636 22.6667H62.6969L62.6969 25.3333H65.3636V22.6667Z" fill="black"/>
<path d="M68.0303 22.6667H65.3636V25.3333H68.0303V22.6667Z" fill="black"/>
<path d="M70.6969 22.6667H68.0303V25.3333H70.6969V22.6667Z" fill="black"/>
<path d="M78.6969 22.6667H76.0303V25.3333H78.6969V22.6667Z" fill="black"/>
<path d="M84.0303 22.6667H81.3636V25.3333H84.0303V22.6667Z" fill="black"/>
<path d="M89.3636 22.6667H86.6969V25.3333H89.3636V22.6667Z" fill="black"/>
<path d="M92.0303 22.6667H89.3636V25.3333H92.0303V22.6667Z" fill="black"/>
<path d="M94.6969 22.6667H92.0303V25.3333H94.6969V22.6667Z" fill="black"/>
<path d="M100.03 22.6667H97.3636V25.3333H100.03V22.6667Z" fill="black"/>
<path d="M14.6969 25.3333H12.0303V28H14.6969V25.3333Z" fill="black"/>
<path d="M30.6969 25.3333H28.0303V28H30.6969V25.3333Z" fill="black"/>
<path d="M36.0303 25.3333H33.3636V28H36.0303V25.3333Z" fill="black"/>
<path d="M44.0303 25.3333H41.3636V28H44.0303V25.3333Z" fill="black"/>
<path d="M46.6969 25.3333H44.0303V28H46.6969V25.3333Z" fill="black"/>
<path d="M65.3636 25.3333H62.6969L62.6969 28H65.3636V25.3333Z" fill="black"/>
<path d="M73.3636 25.3333H70.6969V28H73.3636V25.3333Z" fill="black"/>
<path d="M84.0303 25.3333H81.3636V28H84.0303V25.3333Z" fill="black"/>
<path d="M100.03 25.3333H97.3636V28H100.03V25.3333Z" fill="black"/>
<path d="M14.6969 28H12.0303V30.6667H14.6969V28Z" fill="black"/>
<path d="M17.3636 28H14.6969V30.6667H17.3636V28Z" fill="black"/>
<path d="M20.0303 28H17.3636V30.6667H20.0303V28Z" fill="black"/>
<path d="M22.6969 28H20.0303V30.6667H22.6969V28Z" fill="black"/>
<path d="M25.3636 28H22.6969V30.6667H25.3636V28Z" fill="black"/>
<path d="M28.0303 28H25.3636V30.6667H28.0303V28Z" fill="black"/>
<path d="M30.6969 28H28.0303V30.6667H30.6969V28Z" fill="black"/>
<path d="M36.0303 28H33.3636V30.6667H36.0303V28Z" fill="black"/>
<path d="M41.3636 28H38.6969V30.6667H41.3636V28Z" fill="black"/>
<path d="M46.6969 28H44.0303V30.6667H46.6969V28Z" fill="black"/>
<path d="M52.0303 28H49.3636V30.6667H52.0303V28Z" fill="black"/>
<path d="M57.3636 28H54.6969V30.6667H57.3636V28Z" fill="black"/>
<path d="M62.6969 28H60.0303V30.6667H62.6969L62.6969 28Z" fill="black"/>
<path d="M68.0303 28H65.3636V30.6667H68.0303V28Z" fill="black"/>
<path d="M73.3636 28H70.6969V30.6667H73.3636V28Z" fill="black"/>
<path d="M78.6969 28H76.0303V30.6667H78.6969V28Z" fill="black"/>
<path d="M84.0303 28H81.3636V30.6667H84.0303V28Z" fill="black"/>
<path d="M86.6969 28H84.0303V30.6667H86.6969V28Z" fill="black"/>
<path d="M89.3636 28H86.6969V30.6667H89.3636V28Z" fill="black"/>
<path d="M92.0303 28H89.3636V30.6667H92.0303V28Z" fill="black"/>
<path d="M94.6969 28H92.0303V30.6667H94.6969V28Z" fill="black"/>
<path d="M97.3636 28H94.6969V30.6667H97.3636V28Z" fill="black"/>
<path d="M100.03 28H97.3636V30.6667H100.03V28Z" fill="black"/>
<path d="M38.6969 30.6667H36.0303V33.3333H38.6969V30.6667Z" fill="black"/>
<path d="M41.3636 30.6667H38.6969V33.3333H41.3636V30.6667Z" fill="black"/>
<path d="M46.6969 30.6667H44.0303V33.3333H46.6969V30.6667Z" fill="black"/>
<path d="M57.3636 30.6667H54.6969V33.3333H57.3636V30.6667Z" fill="black"/>
<path d="M62.6969 30.6667H60.0303V33.3333H62.6969V30.6667Z" fill="black"/>
<path d="M68.0303 30.6667H65.3636V33.3333H68.0303V30.6667Z" fill="black"/>
<path d="M73.3636 30.6667H70.6969V33.3333H73.3636V30.6667Z" fill="black"/>
<path d="M28.0303 33.3333H25.3636V36H28.0303V33.3333Z" fill="black"/>
<path d="M30.6969 33.3333H28.0303V36H30.6969V33.3333Z" fill="black"/>
<path d="M36.0303 33.3333H33.3636V36H36.0303V33.3333Z" fill="black"/>
<path d="M44.0303 33.3333H41.3636V36H44.0303V33.3333Z" fill="black"/>
<path d="M52.0303 33.3333H49.3636V36H52.0303V33.3333Z" fill="black"/>
<path d="M60.0303 33.3333H57.3636V36H60.0303V33.3333Z" fill="black"/>
<path d="M68.0303 33.3333H65.3636V36H68.0303V33.3333Z" fill="black"/>
<path d="M73.3636 33.3333H70.6969V36H73.3636V33.3333Z" fill="black"/>
<path d="M76.0303 33.3333H73.3636V36H76.0303V33.3333Z" fill="black"/>
<path d="M78.6969 33.3333H76.0303V36H78.6969V33.3333Z" fill="black"/>
<path d="M81.3636 33.3333H78.6969V36H81.3636V33.3333Z" fill="black"/>
<path d="M86.6969 33.3333H84.0303V36H86.6969V33.3333Z" fill="black"/>
<path d="M92.0303 33.3333H89.3636V36H92.0303V33.3333Z" fill="black"/>
<path d="M100.03 33.3333H97.3636V36H100.03V33.3333Z" fill="black"/>
<path d="M22.6969 36H20.0303V38.6667H22.6969V36Z" fill="black"/>
<path d="M25.3636 36H22.6969V38.6667H25.3636V36Z" fill="black"/>
<path d="M38.6969 36H36.0303V38.6667H38.6969V36Z" fill="black"/>
<path d="M41.3636 36H38.6969V38.6667H41.3636V36Z" fill="black"/>
<path d="M44.0303 36H41.3636V38.6667H44.0303V36Z" fill="black"/>
<path d="M52.0303 36H49.3636V38.6667H52.0303V36Z" fill="black"/>
<path d="M57.3636 36H54.6969V38.6667H57.3636V36Z" fill="black"/>
<path d="M60.0303 36H57.3636V38.6667H60.0303V36Z" fill="black"/>
<path d="M65.3636 36H62.6969V38.6667H65.3636V36Z" fill="black"/>
<path d="M70.6969 36H68.0303V38.6667H70.6969V36Z" fill="black"/>
<path d="M73.3636 36H70.6969V38.6667H73.3636V36Z" fill="black"/>
<path d="M78.6969 36H76.0303V38.6667H78.6969V36Z" fill="black"/>
<path d="M81.3636 36H78.6969V38.6667H81.3636V36Z" fill="black"/>
<path d="M84.0303 36H81.3636V38.6667H84.0303V36Z" fill="black"/>
<path d="M92.0303 36H89.3636V38.6667H92.0303V36Z" fill="black"/>
<path d="M94.6969 36H92.0303V38.6667H94.6969V36Z" fill="black"/>
<path d="M100.03 36H97.3636V38.6667H100.03V36Z" fill="black"/>
<path d="M20.0303 38.6667H17.3636V41.3333H20.0303V38.6667Z" fill="black"/>
<path d="M22.6969 38.6667H20.0303V41.3333H22.6969V38.6667Z" fill="black"/>
<path d="M25.3636 38.6667H22.6969V41.3333H25.3636V38.6667Z" fill="black"/>
<path d="M28.0303 38.6667H25.3636V41.3333H28.0303V38.6667Z" fill="black"/>
<path d="M30.6969 38.6667H28.0303V41.3333H30.6969V38.6667Z" fill="black"/>
<path d="M36.0303 38.6667H33.3636V41.3333H36.0303V38.6667Z" fill="black"/>
<path d="M44.0303 38.6667H41.3636V41.3333H44.0303V38.6667Z" fill="black"/>
<path d="M52.0303 38.6667H49.3636V41.3333H52.0303V38.6667Z" fill="black"/>
<path d="M57.3636 38.6667H54.6969V41.3333H57.3636V38.6667Z" fill="black"/>
<path d="M60.0303 38.6667H57.3636V41.3333H60.0303V38.6667Z" fill="black"/>
<path d="M62.6969 38.6667H60.0303V41.3333H62.6969L62.6969 38.6667Z" fill="black"/>
<path d="M65.3636 38.6667H62.6969L62.6969 41.3333H65.3636V38.6667Z" fill="black"/>
<path d="M70.6969 38.6667H68.0303V41.3333H70.6969V38.6667Z" fill="black"/>
<path d="M76.0303 38.6667H73.3636V41.3333H76.0303V38.6667Z" fill="black"/>
<path d="M81.3636 38.6667H78.6969V41.3333H81.3636V38.6667Z" fill="black"/>
<path d="M86.6969 38.6667H84.0303V41.3333H86.6969V38.6667Z" fill="black"/>
<path d="M92.0303 38.6667H89.3636V41.3333H92.0303V38.6667Z" fill="black"/>
<path d="M94.6969 38.6667H92.0303V41.3333H94.6969V38.6667Z" fill="black"/>
<path d="M20.0303 41.3333H17.3636V44H20.0303V41.3333Z" fill="black"/>
<path d="M22.6969 41.3333H20.0303V44H22.6969V41.3333Z" fill="black"/>
<path d="M25.3636 41.3333H22.6969V44H25.3636V41.3333Z" fill="black"/>
<path d="M33.3636 41.3333H30.6969V44H33.3636V41.3333Z" fill="black"/>
<path d="M36.0303 41.3333H33.3636V44H36.0303V41.3333Z" fill="black"/>
<path d="M44.0303 41.3333H41.3636V44H44.0303V41.3333Z" fill="black"/>
<path d="M46.6969 41.3333H44.0303V44H46.6969V41.3333Z" fill="black"/>
<path d="M49.3636 41.3333H46.6969V44H49.3636V41.3333Z" fill="black"/>
<path d="M52.0303 41.3333H49.3636V44H52.0303V41.3333Z" fill="black"/>
<path d="M54.6969 41.3333H52.0303V44H54.6969V41.3333Z" fill="black"/>
<path d="M60.0303 41.3333H57.3636V44H60.0303V41.3333Z" fill="black"/>
<path d="M86.6969 41.3333H84.0303V44H86.6969V41.3333Z" fill="black"/>
<path d="M89.3636 41.3333H86.6969V44H89.3636V41.3333Z" fill="black"/>
<path d="M100.03 41.3333H97.3636V44H100.03V41.3333Z" fill="black"/>
<path d="M14.6969 44H12.0303V46.6667H14.6969V44Z" fill="black"/>
<path d="M22.6969 44H20.0303V46.6667H22.6969V44Z" fill="black"/>
<path d="M25.3636 44H22.6969V46.6667H25.3636V44Z" fill="black"/>
<path d="M28.0303 44H25.3636V46.6667H28.0303V44Z" fill="black"/>
<path d="M30.6969 44H28.0303V46.6667H30.6969V44Z" fill="black"/>
<path d="M38.6969 44H36.0303V46.6667H38.6969V44Z" fill="black"/>
<path d="M41.3636 44H38.6969V46.6667H41.3636V44Z" fill="black"/>
<path d="M46.6969 44H44.0303V46.6667H46.6969V44Z" fill="black"/>
<path d="M52.0303 44H49.3636V46.6667H52.0303V44Z" fill="black"/>
<path d="M57.3636 44H54.6969V46.6667H57.3636V44Z" fill="black"/>
<path d="M60.0303 44H57.3636V46.6667H60.0303V44Z" fill="black"/>
<path d="M65.3636 44H62.6969V46.6667H65.3636V44Z" fill="black"/>
<path d="M68.0303 44H65.3636V46.6667H68.0303V44Z" fill="black"/>
<path d="M70.6969 44H68.0303V46.6667H70.6969V44Z" fill="black"/>
<path d="M73.3636 44H70.6969V46.6667H73.3636V44Z" fill="black"/>
<path d="M78.6969 44H76.0303V46.6667H78.6969V44Z" fill="black"/>
<path d="M81.3636 44H78.6969V46.6667H81.3636V44Z" fill="black"/>
<path d="M89.3636 44H86.6969V46.6667H89.3636V44Z" fill="black"/>
<path d="M100.03 44H97.3636V46.6667H100.03V44Z" fill="black"/>
<path d="M22.6969 46.6667H20.0303V49.3333H22.6969V46.6667Z" fill="black"/>
<path d="M36.0303 46.6667H33.3636V49.3333H36.0303V46.6667Z" fill="black"/>
<path d="M49.3636 46.6667H46.6969V49.3333H49.3636V46.6667Z" fill="black"/>
<path d="M52.0303 46.6667H49.3636V49.3333H52.0303V46.6667Z" fill="black"/>
<path d="M54.6969 46.6667H52.0303V49.3333H54.6969V46.6667Z" fill="black"/>
<path d="M57.3636 46.6667H54.6969V49.3333H57.3636V46.6667Z" fill="black"/>
<path d="M65.3636 46.6667H62.6969V49.3333H65.3636V46.6667Z" fill="black"/>
<path d="M70.6969 46.6667H68.0303V49.3333H70.6969V46.6667Z" fill="black"/>
<path d="M89.3636 46.6667H86.6969V49.3333H89.3636V46.6667Z" fill="black"/>
<path d="M92.0303 46.6667H89.3636V49.3333H92.0303V46.6667Z" fill="black"/>
<path d="M97.3636 46.6667H94.6969V49.3333H97.3636V46.6667Z" fill="black"/>
<path d="M100.03 46.6667H97.3636V49.3333H100.03V46.6667Z" fill="black"/>
<path d="M14.6969 49.3333H12.0303V52H14.6969V49.3333Z" fill="black"/>
<path d="M20.0303 49.3333H17.3636V52H20.0303V49.3333Z" fill="black"/>
<path d="M30.6969 49.3333H28.0303V52H30.6969V49.3333Z" fill="black"/>
<path d="M33.3636 49.3333H30.6969V52H33.3636V49.3333Z" fill="black"/>
<path d="M36.0303 49.3333H33.3636V52H36.0303V49.3333Z" fill="black"/>
<path d="M44.0303 49.3333H41.3636V52H44.0303V49.3333Z" fill="black"/>
<path d="M57.3636 49.3333H54.6969V52H57.3636V49.3333Z" fill="black"/>
<path d="M70.6969 49.3333H68.0303V52H70.6969V49.3333Z" fill="black"/>
<path d="M73.3636 49.3333H70.6969V52H73.3636V49.3333Z" fill="black"/>
<path d="M76.0303 49.3333H73.3636V52H76.0303V49.3333Z" fill="black"/>
<path d="M84.0303 49.3333H81.3636V52H84.0303V49.3333Z" fill="black"/>
<path d="M86.6969 49.3333H84.0303V52H86.6969V49.3333Z" fill="black"/>
<path d="M97.3636 49.3333H94.6969V52H97.3636V49.3333Z" fill="black"/>
<path d="M14.6969 52H12.0303V54.6667H14.6969V52Z" fill="black"/>
<path d="M17.3636 52H14.6969V54.6667H17.3636V52Z" fill="black"/>
<path d="M22.6969 52H20.0303V54.6667H22.6969V52Z" fill="black"/>
<path d="M36.0303 52H33.3636V54.6667H36.0303V52Z" fill="black"/>
<path d="M49.3636 52H46.6969V54.6667H49.3636V52Z" fill="black"/>
<path d="M54.6969 52H52.0303V54.6667H54.6969V52Z" fill="black"/>
<path d="M68.0303 52H65.3636V54.6667H68.0303V52Z" fill="black"/>
<path d="M70.6969 52H68.0303V54.6667H70.6969V52Z" fill="black"/>
<path d="M73.3636 52H70.6969V54.6667H73.3636V52Z" fill="black"/>
<path d="M78.6969 52H76.0303V54.6667H78.6969V52Z" fill="black"/>
<path d="M86.6969 52H84.0303V54.6667H86.6969V52Z" fill="black"/>
<path d="M92.0303 52H89.3636V54.6667H92.0303V52Z" fill="black"/>
<path d="M97.3636 52H94.6969V54.6667H97.3636V52Z" fill="black"/>
<path d="M100.03 52H97.3636V54.6667H100.03V52Z" fill="black"/>
<path d="M14.6969 54.6667H12.0303V57.3333H14.6969V54.6667Z" fill="black"/>
<path d="M25.3636 54.6667H22.6969V57.3333H25.3636V54.6667Z" fill="black"/>
<path d="M30.6969 54.6667H28.0303V57.3333H30.6969V54.6667Z" fill="black"/>
<path d="M36.0303 54.6667H33.3636V57.3333H36.0303V54.6667Z" fill="black"/>
<path d="M38.6969 54.6667H36.0303V57.3333H38.6969V54.6667Z" fill="black"/>
<path d="M49.3636 54.6667H46.6969V57.3333H49.3636V54.6667Z" fill="black"/>
<path d="M57.3636 54.6667H54.6969V57.3333H57.3636V54.6667Z" fill="black"/>
<path d="M60.0303 54.6667H57.3636V57.3333H60.0303V54.6667Z" fill="black"/>
<path d="M68.0303 54.6667H65.3636V57.3333H68.0303V54.6667Z" fill="black"/>
<path d="M70.6969 54.6667H68.0303V57.3333H70.6969V54.6667Z" fill="black"/>
<path d="M76.0303 54.6667H73.3636V57.3333H76.0303V54.6667Z" fill="black"/>
<path d="M78.6969 54.6667H76.0303V57.3333H78.6969V54.6667Z" fill="black"/>
<path d="M84.0303 54.6667H81.3636V57.3333H84.0303V54.6667Z" fill="black"/>
<path d="M86.6969 54.6667H84.0303V57.3333H86.6969V54.6667Z" fill="black"/>
<path d="M17.3636 57.3333H14.6969V60H17.3636V57.3333Z" fill="black"/>
<path d="M20.0303 57.3333H17.3636V60H20.0303V57.3333Z" fill="black"/>
<path d="M25.3636 57.3333H22.6969V60H25.3636V57.3333Z" fill="black"/>
<path d="M28.0303 57.3333H25.3636V60H28.0303V57.3333Z" fill="black"/>
<path d="M33.3636 57.3333H30.6969V60H33.3636V57.3333Z" fill="black"/>
<path d="M46.6969 57.3333H44.0303V60H46.6969V57.3333Z" fill="black"/>
<path d="M52.0303 57.3333H49.3636V60H52.0303V57.3333Z" fill="black"/>
<path d="M54.6969 57.3333H52.0303V60H54.6969V57.3333Z" fill="black"/>
<path d="M57.3636 57.3333H54.6969V60H57.3636V57.3333Z" fill="black"/>
<path d="M65.3636 57.3333H62.6969V60H65.3636V57.3333Z" fill="black"/>
<path d="M73.3636 57.3333H70.6969V60H73.3636V57.3333Z" fill="black"/>
<path d="M78.6969 57.3333H76.0303V60H78.6969V57.3333Z" fill="black"/>
<path d="M81.3636 57.3333H78.6969V60H81.3636V57.3333Z" fill="black"/>
<path d="M86.6969 57.3333H84.0303V60H86.6969V57.3333Z" fill="black"/>
<path d="M89.3636 57.3333H86.6969V60H89.3636V57.3333Z" fill="black"/>
<path d="M94.6969 57.3333H92.0303V60H94.6969V57.3333Z" fill="black"/>
<path d="M97.3636 57.3333H94.6969V60H97.3636V57.3333Z" fill="black"/>
<path d="M14.6969 60H12.0303V62.6667H14.6969V60Z" fill="black"/>
<path d="M20.0303 60H17.3636V62.6667H20.0303V60Z" fill="black"/>
<path d="M22.6969 60H20.0303V62.6667H22.6969V60Z" fill="black"/>
<path d="M25.3636 60H22.6969V62.6667H25.3636V60Z" fill="black"/>
<path d="M28.0303 60H25.3636V62.6667H28.0303V60Z" fill="black"/>
<path d="M30.6969 60H28.0303V62.6667H30.6969V60Z" fill="black"/>
<path d="M33.3636 60H30.6969V62.6667H33.3636V60Z" fill="black"/>
<path d="M41.3636 60H38.6969V62.6667H41.3636V60Z" fill="black"/>
<path d="M54.6969 60H52.0303V62.6667H54.6969V60Z" fill="black"/>
<path d="M57.3636 60H54.6969V62.6667H57.3636V60Z" fill="black"/>
<path d="M62.6969 60H60.0303V62.6667H62.6969L62.6969 60Z" fill="black"/>
<path d="M65.3636 60H62.6969L62.6969 62.6667H65.3636V60Z" fill="black"/>
<path d="M70.6969 60H68.0303V62.6667H70.6969V60Z" fill="black"/>
<path d="M76.0303 60H73.3636V62.6667H76.0303V60Z" fill="black"/>
<path d="M81.3636 60H78.6969V62.6667H81.3636V60Z" fill="black"/>
<path d="M84.0303 60H81.3636V62.6667H84.0303V60Z" fill="black"/>
<path d="M94.6969 60H92.0303V62.6667H94.6969V60Z" fill="black"/>
<path d="M97.3636 60H94.6969V62.6667H97.3636V60Z" fill="black"/>
<path d="M14.6969 62.6667H12.0303V65.3333H14.6969V62.6667Z" fill="black"/>
<path d="M20.0303 62.6667H17.3636V65.3333H20.0303V62.6667Z" fill="black"/>
<path d="M22.6969 62.6667H20.0303V65.3333H22.6969V62.6667Z" fill="black"/>
<path d="M28.0303 62.6667H25.3636V65.3333H28.0303V62.6667Z" fill="black"/>
<path d="M33.3636 62.6667H30.6969V65.3333H33.3636V62.6667Z" fill="black"/>
<path d="M36.0303 62.6667L33.3636 62.6667V65.3333H36.0303V62.6667Z" fill="black"/>
<path d="M41.3636 62.6667H38.6969V65.3333H41.3636V62.6667Z" fill="black"/>
<path d="M46.6969 62.6667H44.0303V65.3333H46.6969V62.6667Z" fill="black"/>
<path d="M49.3636 62.6667H46.6969V65.3333H49.3636V62.6667Z" fill="black"/>
<path d="M73.3636 62.6667H70.6969V65.3333H73.3636V62.6667Z" fill="black"/>
<path d="M81.3636 62.6667H78.6969V65.3333H81.3636V62.6667Z" fill="black"/>
<path d="M86.6969 62.6667L84.0303 62.6667V65.3333H86.6969V62.6667Z" fill="black"/>
<path d="M97.3636 62.6667H94.6969V65.3333H97.3636V62.6667Z" fill="black"/>
<path d="M100.03 62.6667L97.3636 62.6667V65.3333H100.03V62.6667Z" fill="black"/>
<path d="M17.3636 65.3333H14.6969V68H17.3636V65.3333Z" fill="black"/>
<path d="M22.6969 65.3333H20.0303V68H22.6969V65.3333Z" fill="black"/>
<path d="M28.0303 65.3333H25.3636V68H28.0303V65.3333Z" fill="black"/>
<path d="M30.6969 65.3333H28.0303V68H30.6969V65.3333Z" fill="black"/>
<path d="M33.3636 65.3333H30.6969V68H33.3636V65.3333Z" fill="black"/>
<path d="M38.6969 65.3333H36.0303V68H38.6969V65.3333Z" fill="black"/>
<path d="M41.3636 65.3333H38.6969V68H41.3636V65.3333Z" fill="black"/>
<path d="M46.6969 65.3333H44.0303V68H46.6969V65.3333Z" fill="black"/>
<path d="M52.0303 65.3333H49.3636V68H52.0303V65.3333Z" fill="black"/>
<path d="M54.6969 65.3333H52.0303V68H54.6969V65.3333Z" fill="black"/>
<path d="M57.3636 65.3333H54.6969V68H57.3636V65.3333Z" fill="black"/>
<path d="M60.0303 65.3333H57.3636V68H60.0303V65.3333Z" fill="black"/>
<path d="M65.3636 65.3333H62.6969V68H65.3636V65.3333Z" fill="black"/>
<path d="M70.6969 65.3333H68.0303V68H70.6969V65.3333Z" fill="black"/>
<path d="M78.6969 65.3333H76.0303V68H78.6969V65.3333Z" fill="black"/>
<path d="M81.3636 65.3333H78.6969V68H81.3636V65.3333Z" fill="black"/>
<path d="M86.6969 65.3333H84.0303V68H86.6969V65.3333Z" fill="black"/>
<path d="M89.3636 65.3333H86.6969V68H89.3636V65.3333Z" fill="black"/>
<path d="M94.6969 65.3333H92.0303V68H94.6969V65.3333Z" fill="black"/>
<path d="M97.3636 65.3333H94.6969V68H97.3636V65.3333Z" fill="black"/>
<path d="M17.3636 68H14.6969V70.6667H17.3636V68Z" fill="black"/>
<path d="M33.3636 68H30.6969V70.6667H33.3636V68Z" fill="black"/>
<path d="M36.0303 68H33.3636V70.6667H36.0303V68Z" fill="black"/>
<path d="M44.0303 68H41.3636V70.6667H44.0303V68Z" fill="black"/>
<path d="M46.6969 68H44.0303V70.6667H46.6969V68Z" fill="black"/>
<path d="M52.0303 68H49.3636V70.6667H52.0303V68Z" fill="black"/>
<path d="M54.6969 68H52.0303V70.6667H54.6969V68Z" fill="black"/>
<path d="M57.3636 68H54.6969V70.6667H57.3636V68Z" fill="black"/>
<path d="M60.0303 68H57.3636V70.6667H60.0303V68Z" fill="black"/>
<path d="M65.3636 68H62.6969V70.6667H65.3636V68Z" fill="black"/>
<path d="M68.0303 68H65.3636V70.6667H68.0303V68Z" fill="black"/>
<path d="M73.3636 68H70.6969V70.6667H73.3636V68Z" fill="black"/>
<path d="M76.0303 68H73.3636V70.6667H76.0303V68Z" fill="black"/>
<path d="M78.6969 68H76.0303V70.6667H78.6969V68Z" fill="black"/>
<path d="M84.0303 68H81.3636V70.6667H84.0303V68Z" fill="black"/>
<path d="M86.6969 68H84.0303V70.6667H86.6969V68Z" fill="black"/>
<path d="M89.3636 68H86.6969V70.6667H89.3636V68Z" fill="black"/>
<path d="M92.0303 68H89.3636V70.6667H92.0303V68Z" fill="black"/>
<path d="M94.6969 68H92.0303V70.6667H94.6969V68Z" fill="black"/>
<path d="M97.3636 68H94.6969V70.6667H97.3636V68Z" fill="black"/>
<path d="M100.03 68H97.3636V70.6667H100.03V68Z" fill="black"/>
<path d="M14.6969 70.6667H12.0303V73.3333H14.6969V70.6667Z" fill="black"/>
<path d="M20.0303 70.6667H17.3636V73.3333H20.0303V70.6667Z" fill="black"/>
<path d="M25.3636 70.6667H22.6969V73.3333H25.3636V70.6667Z" fill="black"/>
<path d="M28.0303 70.6667H25.3636V73.3333H28.0303V70.6667Z" fill="black"/>
<path d="M30.6969 70.6667H28.0303V73.3333H30.6969V70.6667Z" fill="black"/>
<path d="M41.3636 70.6667H38.6969V73.3333H41.3636V70.6667Z" fill="black"/>
<path d="M44.0303 70.6667H41.3636V73.3333H44.0303V70.6667Z" fill="black"/>
<path d="M54.6969 70.6667H52.0303V73.3333H54.6969V70.6667Z" fill="black"/>
<path d="M57.3636 70.6667H54.6969V73.3333H57.3636V70.6667Z" fill="black"/>
<path d="M70.6969 70.6667H68.0303V73.3333H70.6969V70.6667Z" fill="black"/>
<path d="M73.3636 70.6667H70.6969V73.3333H73.3636V70.6667Z" fill="black"/>
<path d="M76.0303 70.6667H73.3636V73.3333H76.0303V70.6667Z" fill="black"/>
<path d="M81.3636 70.6667H78.6969V73.3333H81.3636V70.6667Z" fill="black"/>
<path d="M84.0303 70.6667H81.3636V73.3333H84.0303V70.6667Z" fill="black"/>
<path d="M14.6969 73.3333H12.0303V76H14.6969V73.3333Z" fill="black"/>
<path d="M17.3636 73.3333H14.6969V76H17.3636V73.3333Z" fill="black"/>
<path d="M25.3636 73.3333H22.6969V76H25.3636V73.3333Z" fill="black"/>
<path d="M33.3636 73.3333H30.6969V76H33.3636V73.3333Z" fill="black"/>
<path d="M46.6969 73.3333H44.0303V76H46.6969V73.3333Z" fill="black"/>
<path d="M52.0303 73.3333H49.3636V76H52.0303V73.3333Z" fill="black"/>
<path d="M57.3636 73.3333H54.6969V76H57.3636V73.3333Z" fill="black"/>
<path d="M60.0303 73.3333H57.3636V76H60.0303V73.3333Z" fill="black"/>
<path d="M65.3636 73.3333H62.6969V76H65.3636V73.3333Z" fill="black"/>
<path d="M68.0303 73.3333H65.3636V76H68.0303V73.3333Z" fill="black"/>
<path d="M76.0303 73.3333H73.3636V76H76.0303V73.3333Z" fill="black"/>
<path d="M81.3636 73.3333H78.6969V76H81.3636V73.3333Z" fill="black"/>
<path d="M94.6969 73.3333H92.0303V76H94.6969V73.3333Z" fill="black"/>
<path d="M28.0303 76H25.3636V78.6667H28.0303V76Z" fill="black"/>
<path d="M30.6969 76H28.0303V78.6667H30.6969V76Z" fill="black"/>
<path d="M36.0303 76H33.3636V78.6667H36.0303V76Z" fill="black"/>
<path d="M46.6969 76H44.0303V78.6667H46.6969V76Z" fill="black"/>
<path d="M49.3636 76H46.6969V78.6667H49.3636V76Z" fill="black"/>
<path d="M54.6969 76H52.0303V78.6667H54.6969V76Z" fill="black"/>
<path d="M60.0303 76H57.3636V78.6667H60.0303V76Z" fill="black"/>
<path d="M78.6969 76H76.0303V78.6667H78.6969V76Z" fill="black"/>
<path d="M81.3636 76H78.6969V78.6667H81.3636V76Z" fill="black"/>
<path d="M84.0303 76H81.3636V78.6667H84.0303V76Z" fill="black"/>
<path d="M86.6969 76H84.0303V78.6667H86.6969V76Z" fill="black"/>
<path d="M89.3636 76H86.6969V78.6667H89.3636V76Z" fill="black"/>
<path d="M97.3636 76H94.6969V78.6667H97.3636V76Z" fill="black"/>
<path d="M100.03 76H97.3636V78.6667H100.03V76Z" fill="black"/>
<path d="M36.0303 78.6667H33.3636V81.3333H36.0303V78.6667Z" fill="black"/>
<path d="M38.6969 78.6667H36.0303V81.3333H38.6969V78.6667Z" fill="black"/>
<path d="M41.3636 78.6667H38.6969V81.3333H41.3636V78.6667Z" fill="black"/>
<path d="M46.6969 78.6667H44.0303V81.3333H46.6969V78.6667Z" fill="black"/>
<path d="M52.0303 78.6667H49.3636V81.3333H52.0303V78.6667Z" fill="black"/>
<path d="M65.3636 78.6667H62.6969V81.3333H65.3636V78.6667Z" fill="black"/>
<path d="M68.0303 78.6667H65.3636V81.3333H68.0303V78.6667Z" fill="black"/>
<path d="M70.6969 78.6667H68.0303V81.3333H70.6969V78.6667Z" fill="black"/>
<path d="M73.3636 78.6667H70.6969V81.3333H73.3636V78.6667Z" fill="black"/>
<path d="M76.0303 78.6667H73.3636V81.3333H76.0303V78.6667Z" fill="black"/>
<path d="M78.6969 78.6667H76.0303V81.3333H78.6969V78.6667Z" fill="black"/>
<path d="M89.3636 78.6667H86.6969V81.3333H89.3636V78.6667Z" fill="black"/>
<path d="M97.3636 78.6667H94.6969V81.3333H97.3636V78.6667Z" fill="black"/>
<path d="M14.6969 81.3333H12.0303V84H14.6969V81.3333Z" fill="black"/>
<path d="M17.3636 81.3333H14.6969V84H17.3636V81.3333Z" fill="black"/>
<path d="M20.0303 81.3333H17.3636V84H20.0303V81.3333Z" fill="black"/>
<path d="M22.6969 81.3333H20.0303V84H22.6969V81.3333Z" fill="black"/>
<path d="M25.3636 81.3333H22.6969V84H25.3636V81.3333Z" fill="black"/>
<path d="M28.0303 81.3333H25.3636V84H28.0303V81.3333Z" fill="black"/>
<path d="M30.6969 81.3333H28.0303V84H30.6969V81.3333Z" fill="black"/>
<path d="M38.6969 81.3333H36.0303V84H38.6969V81.3333Z" fill="black"/>
<path d="M41.3636 81.3333H38.6969V84H41.3636V81.3333Z" fill="black"/>
<path d="M44.0303 81.3333H41.3636V84H44.0303V81.3333Z" fill="black"/>
<path d="M46.6969 81.3333H44.0303V84H46.6969V81.3333Z" fill="black"/>
<path d="M49.3636 81.3333H46.6969V84H49.3636V81.3333Z" fill="black"/>
<path d="M52.0303 81.3333H49.3636V84H52.0303V81.3333Z" fill="black"/>
<path d="M54.6969 81.3333H52.0303V84H54.6969V81.3333Z" fill="black"/>
<path d="M57.3636 81.3333H54.6969V84H57.3636V81.3333Z" fill="black"/>
<path d="M70.6969 81.3333H68.0303V84H70.6969V81.3333Z" fill="black"/>
<path d="M73.3636 81.3333H70.6969V84H73.3636V81.3333Z" fill="black"/>
<path d="M76.0303 81.3333H73.3636V84H76.0303V81.3333Z" fill="black"/>
<path d="M78.6969 81.3333H76.0303V84H78.6969V81.3333Z" fill="black"/>
<path d="M84.0303 81.3333H81.3636V84H84.0303V81.3333Z" fill="black"/>
<path d="M89.3636 81.3333H86.6969V84H89.3636V81.3333Z" fill="black"/>
<path d="M92.0303 81.3333H89.3636V84H92.0303V81.3333Z" fill="black"/>
<path d="M97.3636 81.3333H94.6969V84H97.3636V81.3333Z" fill="black"/>
<path d="M14.6969 84H12.0303V86.6667H14.6969V84Z" fill="black"/>
<path d="M30.6969 84H28.0303V86.6667H30.6969V84Z" fill="black"/>
<path d="M36.0303 84H33.3636V86.6667H36.0303V84Z" fill="black"/>
<path d="M38.6969 84H36.0303V86.6667H38.6969V84Z" fill="black"/>
<path d="M41.3636 84H38.6969V86.6667H41.3636V84Z" fill="black"/>
<path d="M60.0303 84H57.3636V86.6667H60.0303V84Z" fill="black"/>
<path d="M65.3636 84H62.6969V86.6667H65.3636V84Z" fill="black"/>
<path d="M68.0303 84H65.3636V86.6667H68.0303V84Z" fill="black"/>
<path d="M73.3636 84H70.6969V86.6667H73.3636V84Z" fill="black"/>
<path d="M78.6969 84H76.0303V86.6667H78.6969V84Z" fill="black"/>
<path d="M89.3636 84H86.6969V86.6667H89.3636V84Z" fill="black"/>
<path d="M14.6969 86.6667H12.0303V89.3333H14.6969V86.6667Z" fill="black"/>
<path d="M20.0303 86.6667H17.3636V89.3333H20.0303V86.6667Z" fill="black"/>
<path d="M22.6969 86.6667H20.0303V89.3333H22.6969V86.6667Z" fill="black"/>
<path d="M25.3636 86.6667H22.6969V89.3333H25.3636V86.6667Z" fill="black"/>
<path d="M30.6969 86.6667H28.0303V89.3333H30.6969V86.6667Z" fill="black"/>
<path d="M41.3636 86.6667H38.6969V89.3333H41.3636V86.6667Z" fill="black"/>
<path d="M44.0303 86.6667H41.3636V89.3333H44.0303V86.6667Z" fill="black"/>
<path d="M49.3636 86.6667H46.6969V89.3333H49.3636V86.6667Z" fill="black"/>
<path d="M52.0303 86.6667H49.3636V89.3333H52.0303V86.6667Z" fill="black"/>
<path d="M57.3636 86.6667H54.6969V89.3333H57.3636V86.6667Z" fill="black"/>
<path d="M78.6969 86.6667H76.0303V89.3333H78.6969V86.6667Z" fill="black"/>
<path d="M81.3636 86.6667H78.6969V89.3333H81.3636V86.6667Z" fill="black"/>
<path d="M84.0303 86.6667H81.3636V89.3333H84.0303V86.6667Z" fill="black"/>
<path d="M86.6969 86.6667H84.0303V89.3333H86.6969V86.6667Z" fill="black"/>
<path d="M89.3636 86.6667H86.6969V89.3333H89.3636V86.6667Z" fill="black"/>
<path d="M92.0303 86.6667H89.3636V89.3333H92.0303V86.6667Z" fill="black"/>
<path d="M94.6969 86.6667H92.0303V89.3333H94.6969V86.6667Z" fill="black"/>
<path d="M100.03 86.6667H97.3636V89.3333H100.03V86.6667Z" fill="black"/>
<path d="M14.6969 89.3333H12.0303V92H14.6969V89.3333Z" fill="black"/>
<path d="M20.0303 89.3333H17.3636V92H20.0303V89.3333Z" fill="black"/>
<path d="M22.6969 89.3333H20.0303V92H22.6969V89.3333Z" fill="black"/>
<path d="M25.3636 89.3333H22.6969V92H25.3636V89.3333Z" fill="black"/>
<path d="M30.6969 89.3333H28.0303V92H30.6969V89.3333Z" fill="black"/>
<path d="M44.0303 89.3333H41.3636V92H44.0303V89.3333Z" fill="black"/>
<path d="M46.6969 89.3333H44.0303V92H46.6969V89.3333Z" fill="black"/>
<path d="M49.3636 89.3333H46.6969V92H49.3636V89.3333Z" fill="black"/>
<path d="M54.6969 89.3333H52.0303V92H54.6969V89.3333Z" fill="black"/>
<path d="M60.0303 89.3333H57.3636V92H60.0303V89.3333Z" fill="black"/>
<path d="M73.3636 89.3333H70.6969V92H73.3636V89.3333Z" fill="black"/>
<path d="M76.0303 89.3333H73.3636V92H76.0303V89.3333Z" fill="black"/>
<path d="M81.3636 89.3333H78.6969V92H81.3636V89.3333Z" fill="black"/>
<path d="M84.0303 89.3333H81.3636V92H84.0303V89.3333Z" fill="black"/>
<path d="M89.3636 89.3333H86.6969V92H89.3636V89.3333Z" fill="black"/>
<path d="M92.0303 89.3333H89.3636V92H92.0303V89.3333Z" fill="black"/>
<path d="M100.03 89.3333H97.3636V92H100.03V89.3333Z" fill="black"/>
<path d="M14.6969 92H12.0303V94.6667H14.6969V92Z" fill="black"/>
<path d="M20.0303 92H17.3636V94.6667H20.0303V92Z" fill="black"/>
<path d="M22.6969 92H20.0303V94.6667H22.6969V92Z" fill="black"/>
<path d="M25.3636 92H22.6969V94.6667H25.3636V92Z" fill="black"/>
<path d="M30.6969 92H28.0303V94.6667H30.6969V92Z" fill="black"/>
<path d="M41.3636 92H38.6969V94.6667H41.3636V92Z" fill="black"/>
<path d="M62.6969 92H60.0303V94.6667H62.6969V92Z" fill="black"/>
<path d="M70.6969 92H68.0303V94.6667H70.6969V92Z" fill="black"/>
<path d="M84.0303 92H81.3636V94.6667H84.0303V92Z" fill="black"/>
<path d="M94.6969 92H92.0303V94.6667H94.6969V92Z" fill="black"/>
<path d="M14.6969 94.6667H12.0303V97.3333H14.6969V94.6667Z" fill="black"/>
<path d="M30.6969 94.6667H28.0303V97.3333H30.6969V94.6667Z" fill="black"/>
<path d="M44.0303 94.6667H41.3636V97.3333H44.0303V94.6667Z" fill="black"/>
<path d="M49.3636 94.6667H46.6969V97.3333H49.3636V94.6667Z" fill="black"/>
<path d="M52.0303 94.6667H49.3636V97.3333H52.0303V94.6667Z" fill="black"/>
<path d="M54.6969 94.6667H52.0303V97.3333H54.6969V94.6667Z" fill="black"/>
<path d="M57.3636 94.6667H54.6969V97.3333H57.3636V94.6667Z" fill="black"/>
<path d="M62.6969 94.6667H60.0303V97.3333H62.6969V94.6667Z" fill="black"/>
<path d="M70.6969 94.6667H68.0303V97.3333H70.6969V94.6667Z" fill="black"/>
<path d="M81.3636 94.6667H78.6969V97.3333H81.3636V94.6667Z" fill="black"/>
<path d="M84.0303 94.6667H81.3636V97.3333H84.0303V94.6667Z" fill="black"/>
<path d="M89.3636 94.6667H86.6969V97.3333H89.3636V94.6667Z" fill="black"/>
<path d="M100.03 94.6667H97.3636V97.3333H100.03V94.6667Z" fill="black"/>
<path d="M14.6969 97.3333H12.0303V100H14.6969V97.3333Z" fill="black"/>
<path d="M17.3636 97.3333H14.6969V100H17.3636V97.3333Z" fill="black"/>
<path d="M20.0303 97.3333H17.3636V100H20.0303V97.3333Z" fill="black"/>
<path d="M22.6969 97.3333H20.0303V100H22.6969V97.3333Z" fill="black"/>
<path d="M25.3636 97.3333H22.6969V100H25.3636V97.3333Z" fill="black"/>
<path d="M28.0303 97.3333H25.3636V100H28.0303V97.3333Z" fill="black"/>
<path d="M30.6969 97.3333H28.0303V100H30.6969V97.3333Z" fill="black"/>
<path d="M38.6969 97.3333H36.0303V100H38.6969V97.3333Z" fill="black"/>
<path d="M41.3636 97.3333H38.6969V100H41.3636V97.3333Z" fill="black"/>
<path d="M44.0303 97.3333H41.3636V100H44.0303V97.3333Z" fill="black"/>
<path d="M46.6969 97.3333H44.0303V100H46.6969V97.3333Z" fill="black"/>
<path d="M49.3636 97.3333H46.6969V100H49.3636V97.3333Z" fill="black"/>
<path d="M62.6969 97.3333H60.0303V100H62.6969V97.3333Z" fill="black"/>
<path d="M70.6969 97.3333H68.0303V100H70.6969V97.3333Z" fill="black"/>
<path d="M73.3636 97.3333H70.6969V100H73.3636V97.3333Z" fill="black"/>
<path d="M76.0303 97.3333H73.3636V100H76.0303V97.3333Z" fill="black"/>
<path d="M81.3636 97.3333H78.6969V100H81.3636V97.3333Z" fill="black"/>
<path d="M89.3636 97.3333H86.6969V100H89.3636V97.3333Z" fill="black"/>
<path d="M94.6969 97.3333H92.0303V100H94.6969V97.3333Z" fill="black"/>
<defs>
<linearGradient id="paint0_linear" x1="20.107" y1="113.107" x2="7.19728" y2="126.015" gradientUnits="userSpaceOnUse">
<stop stop-color="#00A0FF"/>
<stop offset="0.007" stop-color="#00A1FF"/>
<stop offset="0.26" stop-color="#00BEFF"/>
<stop offset="0.512" stop-color="#00D2FF"/>
<stop offset="0.76" stop-color="#00DFFF"/>
<stop offset="1" stop-color="#00E3FF"/>
</linearGradient>
<linearGradient id="paint1_linear" x1="29.3637" y1="121.79" x2="10.7511" y2="121.79" gradientUnits="userSpaceOnUse">
<stop stop-color="#FFE000"/>
<stop offset="0.409" stop-color="#FFBD00"/>
<stop offset="0.775" stop-color="#FFA500"/>
<stop offset="1" stop-color="#FF9C00"/>
</linearGradient>
<linearGradient id="paint2_linear" x1="22.4334" y1="123.557" x2="4.92763" y2="141.063" gradientUnits="userSpaceOnUse">
<stop stop-color="#FF3A44"/>
<stop offset="1" stop-color="#C31162"/>
</linearGradient>
<linearGradient id="paint3_linear" x1="8.94907" y1="106.541" x2="16.7666" y2="114.359" gradientUnits="userSpaceOnUse">
<stop stop-color="#32A071"/>
<stop offset="0.069" stop-color="#2DA771"/>
<stop offset="0.476" stop-color="#15CF74"/>
<stop offset="0.801" stop-color="#06E775"/>
<stop offset="1" stop-color="#00F076"/>
</linearGradient>
</defs>
</svg>
