<svg width="24" height="24" viewBox="0 0 24 24" fill="none" xmlns="http://www.w3.org/2000/svg">
<path d="M15.3332 7.33296C15.3332 6.96516 15.0326 6.66699 14.67 6.66699H3.32968C2.96342 6.66699 2.6665 6.9621 2.6665 7.33296V8.00102C2.6665 8.36883 2.96712 8.66699 3.32968 8.66699H14.67C15.0363 8.66699 15.3332 8.37189 15.3332 8.00102V7.33296ZM12.6665 11.333C12.6665 10.9652 12.3672 10.667 11.9948 10.667H3.33816C2.96721 10.667 2.6665 10.9621 2.6665 11.333V12.001C2.6665 12.3688 2.96578 12.667 3.33816 12.667H11.9948C12.3658 12.667 12.6665 12.3719 12.6665 12.001V11.333ZM19.3332 10.667V14.667H21.356C21.4268 14.667 21.4946 14.6951 21.5446 14.7451C21.6487 14.8492 21.6487 15.0181 21.5446 15.1222L17.5217 19.1451C17.4176 19.2492 17.2487 19.2492 17.1446 19.1451L13.1217 15.1222C13.0717 15.0722 13.0436 15.0044 13.0436 14.9337C13.0436 14.7864 13.163 14.667 13.3103 14.667H15.3332V10.667H19.3332ZM9.99819 14.667C10.3627 14.667 10.6665 14.9652 10.6665 15.333V16.001C10.6665 16.3719 10.3673 16.667 9.99819 16.667H3.33482C2.97034 16.667 2.6665 16.3688 2.6665 16.001V15.333C2.6665 14.9621 2.96572 14.667 3.33482 14.667H9.99819Z" fill="#3F8AE0"/>
</svg>
