<svg width="19" height="19" viewBox="0 0 19 19" fill="none" xmlns="http://www.w3.org/2000/svg">
<path d="M8.28837 1L8.28837 8.28837L1 8.28837L0.5 8.28837L0.5 8.78837L0.5 10.2116L0.5 10.7116L1 10.7116L8.28837 10.7116L8.28837 18L8.28837 18.5L8.78837 18.5L10.2116 18.5L10.7116 18.5L10.7116 18L10.7116 10.7116L18 10.7116L18.5 10.7116L18.5 10.2116L18.5 8.78837L18.5 8.28837L18 8.28837L10.7116 8.28837L10.7116 1L10.7116 0.5L10.2116 0.5L8.78837 0.5L8.28837 0.5L8.28837 1Z" fill="#1C1C1E" stroke="#1C1C1E"/>
</svg>
