<svg width="16" height="16" viewBox="0 0 16 16" fill="none" xmlns="http://www.w3.org/2000/svg">
<path fill-rule="evenodd" clip-rule="evenodd" d="M6.66699 13.333C6.66699 14.4376 5.77156 15.333 4.66699 15.333C3.56242 15.333 2.66699 14.4376 2.66699 13.333C2.66699 12.2284 3.56242 11.333 4.66699 11.333C5.77156 11.333 6.66699 12.2284 6.66699 13.333ZM5.33366 13.333C5.33366 13.7012 5.03518 13.9997 4.66699 13.9997C4.2988 13.9997 4.00033 13.7012 4.00033 13.333C4.00033 12.9648 4.2988 12.6663 4.66699 12.6663C5.03518 12.6663 5.33366 12.9648 5.33366 13.333Z" fill="white"/>
<path fill-rule="evenodd" clip-rule="evenodd" d="M13.3337 13.333C13.3337 14.4376 12.4382 15.333 11.3337 15.333C10.2291 15.333 9.33366 14.4376 9.33366 13.333C9.33366 12.2284 10.2291 11.333 11.3337 11.333C12.4382 11.333 13.3337 12.2284 13.3337 13.333ZM12.0003 13.333C12.0003 13.7012 11.7018 13.9997 11.3337 13.9997C10.9655 13.9997 10.667 13.7012 10.667 13.333C10.667 12.9648 10.9655 12.6663 11.3337 12.6663C11.7018 12.6663 12.0003 12.9648 12.0003 13.333Z" fill="white"/>
<path fill-rule="evenodd" clip-rule="evenodd" d="M1.40354 1.70168C1.5682 1.37236 1.96864 1.23888 2.29796 1.40354L2.96697 1.73804C3.58648 2.04779 4.00162 2.65603 4.06433 3.34582L4.09622 3.69667C4.11183 3.86836 4.25578 3.99982 4.42819 3.99982H13.2235C14.3872 3.99982 15.1926 5.16211 14.784 6.25169L13.6151 9.36873C13.3224 10.1493 12.5762 10.6665 11.7425 10.6665H5.21744C4.18303 10.6665 3.3193 9.87772 3.22565 8.84756L2.73647 3.46654C2.71557 3.23661 2.57719 3.03386 2.37068 2.93061L1.70168 2.59611C1.37236 2.43145 1.23888 2.031 1.40354 1.70168ZM4.61 5.33315C4.41399 5.33315 4.26029 5.50146 4.27804 5.69667L4.55351 8.72684C4.58473 9.07023 4.87264 9.33315 5.21744 9.33315H11.7425C12.0204 9.33315 12.2691 9.16077 12.3667 8.90057L13.5356 5.78353C13.6173 5.56561 13.4562 5.33315 13.2235 5.33315H4.61Z" fill="white"/>
</svg>
