<svg width="24" height="24" viewBox="0 0 24 24" fill="none" xmlns="http://www.w3.org/2000/svg">
<path d="M11.41 13L13.71 15.29C13.8037 15.383 13.8781 15.4936 13.9289 15.6154C13.9797 15.7373 14.0058 15.868 14.0058 16C14.0058 16.132 13.9797 16.2627 13.9289 16.3846C13.8781 16.5064 13.8037 16.617 13.71 16.71C13.617 16.8037 13.5064 16.8781 13.3846 16.9289C13.2627 16.9797 13.132 17.0058 13 17.0058C12.868 17.0058 12.7373 16.9797 12.6154 16.9289C12.4936 16.8781 12.383 16.8037 12.29 16.71L8.29 12.71C8.19896 12.6149 8.12759 12.5028 8.08 12.38C7.97998 12.1365 7.97998 11.8635 8.08 11.62C8.12759 11.4973 8.19896 11.3851 8.29 11.29L12.29 7.29001C12.3832 7.19677 12.4939 7.12281 12.6158 7.07235C12.7376 7.02189 12.8681 6.99592 13 6.99592C13.1319 6.99592 13.2624 7.02189 13.3842 7.07235C13.5061 7.12281 13.6168 7.19677 13.71 7.29001C13.8032 7.38325 13.8772 7.49394 13.9277 7.61576C13.9781 7.73758 14.0041 7.86815 14.0041 8.00001C14.0041 8.13187 13.9781 8.26244 13.9277 8.38426C13.8772 8.50608 13.8032 8.61677 13.71 8.71001L11.41 11H21C21.2652 11 21.5196 11.1054 21.7071 11.2929C21.8946 11.4804 22 11.7348 22 12C22 12.2652 21.8946 12.5196 21.7071 12.7071C21.5196 12.8947 21.2652 13 21 13H11.41ZM12 2.00001C13.8689 1.99166 15.7028 2.50722 17.2935 3.4882C18.8843 4.46918 20.1683 5.87632 21 7.55001C21.1193 7.7887 21.139 8.06503 21.0546 8.31821C20.9702 8.57138 20.7887 8.78066 20.55 8.90001C20.3113 9.01936 20.035 9.03899 19.7818 8.9546C19.5286 8.87021 19.3193 8.6887 19.2 8.45001C18.5678 7.17333 17.6062 6.08863 16.4145 5.308C15.2227 4.52736 13.8442 4.07913 12.4212 4.0096C10.9983 3.94007 9.58262 4.25178 8.32048 4.91252C7.05834 5.57325 5.99553 6.55904 5.24189 7.768C4.48825 8.97697 4.07112 10.3653 4.0336 11.7894C3.99608 13.2135 4.33954 14.6219 5.02848 15.8688C5.71743 17.1158 6.72686 18.1562 7.95246 18.8824C9.17807 19.6087 10.5754 19.9945 12 20C13.4911 20.0065 14.9538 19.5924 16.2203 18.8053C17.4868 18.0181 18.5056 16.8899 19.16 15.55C19.2793 15.3113 19.4886 15.1298 19.7418 15.0454C19.995 14.961 20.2713 14.9807 20.51 15.1C20.7487 15.2194 20.9302 15.4286 21.0146 15.6818C21.099 15.935 21.0793 16.2113 20.96 16.45C20.1672 18.0455 18.9625 19.4002 17.4705 20.3741C15.9786 21.3479 14.2536 21.9054 12.4739 21.989C10.6942 22.0726 8.92451 21.6792 7.34785 20.8495C5.77119 20.0198 4.44482 18.784 3.50593 17.2698C2.56704 15.7557 2.04973 14.0181 2.0075 12.237C1.96528 10.4559 2.39967 8.6958 3.26576 7.13884C4.13184 5.58188 5.39816 4.28457 6.93373 3.38111C8.4693 2.47765 10.2184 2.00084 12 2.00001Z" fill="#818C99"/>
</svg>
