<svg width="16" height="18" viewBox="0 0 16 18" fill="none" xmlns="http://www.w3.org/2000/svg">
<mask id="mask0" mask-type="alpha" maskUnits="userSpaceOnUse" x="0" y="0" width="16" height="18">
<path fill-rule="evenodd" clip-rule="evenodd" d="M15.5749 1H1V17.3875H15.5749V1V1Z" fill="white" stroke="white" stroke-width="0.5"/>
</mask>
<g mask="url(#mask0)">
<path fill-rule="evenodd" clip-rule="evenodd" d="M13.3883 14.955C13.3883 15.7939 12.7044 16.4778 11.8655 16.4778H4.70942C3.87051 16.4778 3.18657 15.7939 3.18657 14.955V4.26807H13.3917V14.955H13.3883ZM5.77407 2.80249C5.77407 2.3106 6.175 1.90967 6.66689 1.90967H9.90801C10.3999 1.90967 10.8008 2.3106 10.8008 2.80249V3.3584H5.77407V2.80249ZM15.1201 3.3584H11.7105V2.80249C11.7105 1.80859 10.9019 1 9.90801 1H6.66689C5.673 1 4.8644 1.80859 4.8644 2.80249V3.3584H1.45483C1.20215 3.3584 1 3.56055 1 3.81323C1 4.06592 1.20215 4.26807 1.45483 4.26807H2.2769V14.955C2.2769 16.2959 3.36854 17.3875 4.70942 17.3875H11.8655C13.2064 17.3875 14.298 16.2959 14.298 14.955V4.26807H15.1201C15.3728 4.26807 15.5749 4.06592 15.5749 3.81323C15.5749 3.56055 15.3728 3.3584 15.1201 3.3584Z" fill="#818C99"/>
<path d="M13.3883 14.955V14.705H13.1383V14.955H13.3883ZM3.18657 4.26807V4.01807H2.93657V4.26807H3.18657ZM13.3917 4.26807H13.6417V4.01807H13.3917V4.26807ZM13.3917 14.955V15.205H13.6417V14.955H13.3917ZM10.8008 3.3584V3.6084H11.0508V3.3584H10.8008ZM5.77407 3.3584H5.52407V3.6084H5.77407V3.3584ZM11.7105 3.3584H11.4605V3.6084H11.7105V3.3584ZM4.8644 3.3584V3.6084H5.1144V3.3584H4.8644ZM2.2769 4.26807H2.5269V4.01807H2.2769V4.26807ZM14.298 4.26807V4.01807H14.048V4.26807H14.298ZM13.1383 14.955C13.1383 15.6558 12.5663 16.2278 11.8655 16.2278V16.7278C12.8425 16.7278 13.6383 15.932 13.6383 14.955H13.1383ZM11.8655 16.2278H4.70942V16.7278H11.8655V16.2278ZM4.70942 16.2278C4.00858 16.2278 3.43657 15.6558 3.43657 14.955H2.93657C2.93657 15.932 3.73244 16.7278 4.70942 16.7278V16.2278ZM3.43657 14.955V4.26807H2.93657V14.955H3.43657ZM3.18657 4.51807H13.3917V4.01807H3.18657V4.51807ZM13.1417 4.26807V14.955H13.6417V4.26807H13.1417ZM13.3917 14.705H13.3883V15.205H13.3917V14.705ZM6.02407 2.80249C6.02407 2.44867 6.31307 2.15967 6.66689 2.15967V1.65967C6.03693 1.65967 5.52407 2.17252 5.52407 2.80249H6.02407ZM6.66689 2.15967H9.90801V1.65967H6.66689V2.15967ZM9.90801 2.15967C10.2619 2.15967 10.5508 2.44866 10.5508 2.80249H11.0508C11.0508 2.17253 10.538 1.65967 9.90801 1.65967V2.15967ZM10.5508 2.80249V3.3584H11.0508V2.80249H10.5508ZM10.8008 3.1084H5.77407V3.6084H10.8008V3.1084ZM6.02407 3.3584V2.80249H5.52407V3.3584H6.02407ZM15.1201 3.1084H11.7105V3.6084H15.1201V3.1084ZM11.9605 3.3584V2.80249H11.4605V3.3584H11.9605ZM11.9605 2.80249C11.9605 1.67052 11.04 0.75 9.90801 0.75V1.25C10.7638 1.25 11.4605 1.94666 11.4605 2.80249H11.9605ZM9.90801 0.75H6.66689V1.25H9.90801V0.75ZM6.66689 0.75C5.53493 0.75 4.6144 1.67052 4.6144 2.80249H5.1144C5.1144 1.94666 5.81107 1.25 6.66689 1.25V0.75ZM4.6144 2.80249V3.3584H5.1144V2.80249H4.6144ZM4.8644 3.1084H1.45483V3.6084H4.8644V3.1084ZM1.45483 3.1084C1.06408 3.1084 0.75 3.42248 0.75 3.81323H1.25C1.25 3.69862 1.34022 3.6084 1.45483 3.6084V3.1084ZM0.75 3.81323C0.75 4.20399 1.06408 4.51807 1.45483 4.51807V4.01807C1.34022 4.01807 1.25 3.92785 1.25 3.81323H0.75ZM1.45483 4.51807H2.2769V4.01807H1.45483V4.51807ZM2.0269 4.26807V14.955H2.5269V4.26807H2.0269ZM2.0269 14.955C2.0269 16.434 3.23047 17.6375 4.70942 17.6375V17.1375C3.50661 17.1375 2.5269 16.1579 2.5269 14.955H2.0269ZM4.70942 17.6375H11.8655V17.1375H4.70942V17.6375ZM11.8655 17.6375C13.3445 17.6375 14.548 16.434 14.548 14.955H14.048C14.048 16.1579 13.0684 17.1375 11.8655 17.1375V17.6375ZM14.548 14.955V4.26807H14.048V14.955H14.548ZM14.298 4.51807H15.1201V4.01807H14.298V4.51807ZM15.1201 4.51807C15.5108 4.51807 15.8249 4.20399 15.8249 3.81323H15.3249C15.3249 3.92785 15.2347 4.01807 15.1201 4.01807V4.51807ZM15.8249 3.81323C15.8249 3.42248 15.5108 3.1084 15.1201 3.1084V3.6084C15.2347 3.6084 15.3249 3.69862 15.3249 3.81323H15.8249Z" fill="#818C99"/>
</g>
<path fill-rule="evenodd" clip-rule="evenodd" d="M8.28735 14.8474C8.54004 14.8474 8.74219 14.6452 8.74219 14.3926V6.35376C8.74219 6.10107 8.54004 5.89893 8.28735 5.89893C8.03467 5.89893 7.83252 6.10107 7.83252 6.35376V14.3892C7.83252 14.6418 8.03467 14.8474 8.28735 14.8474Z" fill="#818C99"/>
<path d="M8.28735 14.8474C8.54004 14.8474 8.74219 14.6452 8.74219 14.3926V6.35376C8.74219 6.10107 8.54004 5.89893 8.28735 5.89893C8.03467 5.89893 7.83252 6.10107 7.83252 6.35376V14.3892C7.83252 14.6418 8.03467 14.8474 8.28735 14.8474" stroke="#818C99" stroke-width="0.5"/>
<path fill-rule="evenodd" clip-rule="evenodd" d="M5.31909 14.3453C5.57178 14.3453 5.77393 14.1431 5.77393 13.8904V6.85229C5.77393 6.59961 5.57178 6.39746 5.31909 6.39746C5.06641 6.39746 4.86426 6.59961 4.86426 6.85229V13.8904C4.86426 14.1431 5.06978 14.3453 5.31909 14.3453Z" fill="#818C99"/>
<path d="M5.31909 14.3453C5.57178 14.3453 5.77393 14.1431 5.77393 13.8904V6.85229C5.77393 6.59961 5.57178 6.39746 5.31909 6.39746C5.06641 6.39746 4.86426 6.59961 4.86426 6.85229V13.8904C4.86426 14.1431 5.06978 14.3453 5.31909 14.3453" stroke="#818C99" stroke-width="0.5"/>
<path fill-rule="evenodd" clip-rule="evenodd" d="M11.2556 14.3453C11.5083 14.3453 11.7104 14.1431 11.7104 13.8904V6.85229C11.7104 6.59961 11.5083 6.39746 11.2556 6.39746C11.0029 6.39746 10.8008 6.59961 10.8008 6.85229V13.8904C10.8008 14.1431 11.0029 14.3453 11.2556 14.3453Z" fill="#818C99"/>
<path d="M11.2556 14.3453C11.5083 14.3453 11.7104 14.1431 11.7104 13.8904V6.85229C11.7104 6.59961 11.5083 6.39746 11.2556 6.39746C11.0029 6.39746 10.8008 6.59961 10.8008 6.85229V13.8904C10.8008 14.1431 11.0029 14.3453 11.2556 14.3453" stroke="#818C99" stroke-width="0.5"/>
</svg>
