<svg width="65" height="64" viewBox="0 0 65 64" fill="none" xmlns="http://www.w3.org/2000/svg">
<g clip-path="url(#clip0)">
<path d="M44.1364 0H20.8636C9.61711 0 0.5 9.11711 0.5 20.3636V43.6364C0.5 54.8829 9.61711 64 20.8636 64H44.1364C55.3829 64 64.5 54.8829 64.5 43.6364V20.3636C64.5 9.11711 55.3829 0 44.1364 0Z" fill="url(#paint0_linear)"/>
<g clip-path="url(#clip1)">
<path d="M46.8958 32.1155C46.8724 32.0918 46.8477 32.0694 46.8223 32.0476L38.4141 24.8882C37.2251 23.8757 35.712 23.3191 34.1509 23.3191C34.1433 23.3191 34.1358 23.3191 34.1282 23.3191C32.3804 23.3252 30.7371 24.009 29.501 25.2451L28.367 26.3792C27.8887 26.8574 27.1038 26.8653 26.617 26.3965C26.3833 26.1719 26.253 25.8618 26.2498 25.5242C26.2464 25.1697 26.3865 24.8242 26.6341 24.5764C26.6436 24.5669 26.6531 24.5571 26.6624 24.5474L29.1216 21.9226C31.0235 19.8928 33.6704 18.6858 36.441 18.5713L45.8965 26.2808C46.4315 26.7171 47.2191 26.637 47.6551 26.1021C48.0914 25.5669 48.0113 24.7796 47.4764 24.3433L37.6646 16.3435C37.4415 16.1619 37.1626 16.0625 36.8748 16.0625C34.523 16.0625 32.2239 16.7034 30.2237 17.8772C28.2058 16.6887 25.9153 16.0625 23.5652 16.0625C23.2337 16.0625 22.9158 16.1941 22.6814 16.4282L16.304 22.803C15.8157 23.2913 15.8154 24.0825 16.3035 24.5708C16.5476 24.8152 16.8674 24.9373 17.1875 24.9373C17.5073 24.9373 17.8272 24.8152 18.071 24.5713L24.0708 18.5745C25.4314 18.6387 26.7588 18.9639 27.9898 19.5283C27.7512 19.7476 27.52 19.9756 27.2974 20.2131L24.8504 22.825C24.1411 23.543 23.7403 24.5342 23.75 25.5481C23.7595 26.5625 24.1621 27.5037 24.8833 28.1978C25.5943 28.8819 26.5298 29.2534 27.5169 29.2449C28.5056 29.2361 29.4353 28.8462 30.1346 28.1468L31.2688 27.0127C32.0347 26.2466 33.0535 25.8228 34.1368 25.8189H34.1509C35.1184 25.8189 36.0564 26.1641 36.7935 26.7915L45.1563 33.9124C45.5421 34.3284 45.5328 34.9812 45.128 35.3858C44.9293 35.5848 44.6624 35.6941 44.3768 35.6941C44.0911 35.6941 43.8243 35.5848 43.6255 35.3858L43.3692 35.1292C42.8809 34.6411 42.0894 34.6409 41.6014 35.1292C41.1133 35.6172 41.1131 36.4087 41.6014 36.897L41.858 37.1534C41.9334 37.229 42.0123 37.3003 42.0933 37.368C42.1292 37.4163 42.1675 37.4632 42.2112 37.5069C42.6255 37.9212 42.6255 38.5953 42.2112 39.0096C41.7972 39.4239 41.1231 39.4239 40.7088 39.0096C40.7056 39.0064 40.7022 39.003 40.699 38.9998L40.2847 38.5884C39.7964 38.1004 39.0052 38.1004 38.5171 38.5887C38.0289 39.0767 38.0289 39.8682 38.5171 40.3562L38.8025 40.6416L38.8028 40.6419C39.0191 40.8582 39.1497 41.1666 39.1607 41.4876C39.1666 41.6626 39.1397 41.9927 38.8924 42.24C38.5013 42.6314 37.824 42.5909 37.3831 42.15C37.3597 42.1265 37.3355 42.1041 37.3101 42.0826L37.1226 41.9227C36.6121 41.4874 35.8487 41.533 35.3936 42.0259C34.9383 42.5188 34.9534 43.2833 35.4278 43.7579C35.6363 43.9664 35.753 44.2393 35.7564 44.5262C35.7596 44.8043 35.6543 45.0643 35.4602 45.2584C35.0459 45.6727 34.3636 45.6641 33.9349 45.2357L33.7581 45.0604C34.2686 43.7588 33.9995 42.2193 32.9493 41.169V41.1687C32.479 40.6988 31.906 40.3694 31.2852 40.2044C31.4395 39.1307 31.1043 37.9996 30.2801 37.1751C29.6624 36.5574 28.8723 36.2154 28.0633 36.147C28.0022 35.3428 27.6585 34.5537 27.0301 33.9253C26.4087 33.304 25.6131 32.9615 24.7991 32.896C24.7337 32.0821 24.3911 31.2864 23.7698 30.6651C22.3838 29.2791 20.1301 29.2761 18.7405 30.6563L16.9937 32.3428C16.9885 32.3479 16.9832 32.3531 16.978 32.3582C16.3071 33.0291 15.9375 33.9239 15.9375 34.8772C15.9375 35.8304 16.3071 36.7251 16.978 37.396C17.509 37.9273 18.1677 38.2544 18.856 38.3794C18.8237 39.3318 19.1694 40.2947 19.8948 41.0201C20.5418 41.667 21.405 42.0206 22.333 42.0206C22.3506 42.0206 22.3684 42.0203 22.386 42.0201C22.4871 42.763 22.8211 43.4786 23.3894 44.0467C24.0806 44.7378 24.9893 45.0831 25.9004 45.0831C25.9771 45.0831 26.0535 45.0796 26.1301 45.0748C26.2625 45.8023 26.6096 46.4715 27.1406 47.0025C27.8474 47.709 28.7754 48.0623 29.7039 48.0623C30.6101 48.0623 31.5164 47.7242 32.2166 47.0504C32.9136 47.7242 33.816 48.0623 34.7168 48.0623C35.628 48.0623 36.5369 47.7171 37.2278 47.0262C37.7808 46.473 38.126 45.7693 38.2259 45.0064C39.1158 45.0049 39.9944 44.6734 40.66 44.0076C41.2447 43.4229 41.5882 42.6548 41.6504 41.8125C42.532 41.7667 43.3528 41.4034 43.9791 40.7771C44.7044 40.0518 45.0501 39.0887 45.0179 38.136C45.7264 38.0086 46.3777 37.6714 46.8958 37.1534C48.2847 35.7644 48.2847 33.5044 46.8958 32.1155ZM20.2639 35.6131C20.2588 35.6182 20.2534 35.6233 20.2483 35.6285C20.0496 35.8274 19.7827 35.9368 19.4971 35.9368C19.2114 35.9368 18.9446 35.8274 18.7459 35.6285C18.5469 35.4295 18.4375 35.1629 18.4375 34.8772C18.4375 34.5945 18.5447 34.3306 18.7395 34.1324L20.4839 32.448C20.4893 32.4429 20.4944 32.4378 20.4995 32.4326C20.6985 32.2339 20.9653 32.1243 21.251 32.1243C21.5364 32.1243 21.8032 32.2339 22.0022 32.4326C22.2009 32.6316 22.3106 32.8985 22.3106 33.1841C22.3106 33.4214 22.2341 33.6453 22.0943 33.8286C22.0615 33.8587 22.0288 33.889 21.9971 33.9207L20.7149 35.1778L20.2639 35.6131ZM23.1358 39.2029C22.6985 39.6065 22.0396 39.6294 21.6626 39.2525C21.2495 38.8394 21.2483 38.1678 21.6589 37.7532L22.4595 36.9683L23.7542 35.7185C23.7595 35.7134 23.7647 35.7083 23.7698 35.7032C23.8035 35.6695 23.8355 35.6353 23.8672 35.6006C24.2835 35.2828 24.8821 35.3128 25.2625 35.6932C25.6741 36.1048 25.6765 36.7005 25.2691 37.1116L23.1358 39.2029ZM26.6829 42.2559C26.6814 42.2574 26.6797 42.2591 26.6782 42.2605C26.2537 42.6851 25.5713 42.6934 25.157 42.2791C24.7434 41.8655 24.7512 41.1846 25.1738 40.7598L27.0051 38.9476C27.0069 38.9461 27.0083 38.9444 27.0098 38.9429C27.2088 38.7439 27.4756 38.6346 27.7613 38.6346C28.0467 38.6346 28.3135 38.7439 28.5125 38.9429C28.9261 39.3565 28.9268 40.0291 28.5144 40.4436L26.6829 42.2559ZM31.1817 44.5276C31.1763 44.5328 31.1709 44.5381 31.1658 44.5438L30.4927 45.2413C30.0537 45.6734 29.3448 45.6712 28.9085 45.2349C28.6929 45.0193 28.5725 44.7303 28.5694 44.4212C28.5662 44.1185 28.6778 43.8387 28.8833 43.6329L29.6333 42.8829C29.8335 42.6827 30.0933 42.5835 30.3589 42.5835C30.6494 42.5835 30.9471 42.7022 31.1814 42.9366C31.6201 43.3753 31.6201 44.0889 31.1817 44.5276Z" fill="white"/>
</g>
</g>
<defs>
<linearGradient id="paint0_linear" x1="53.7364" y1="64" x2="10.6818" y2="4.94546" gradientUnits="userSpaceOnUse">
<stop stop-color="#FFCC40"/>
<stop offset="1" stop-color="#FFCC40" stop-opacity="0.5"/>
</linearGradient>
<clipPath id="clip0">
<rect width="64" height="64" fill="white" transform="translate(0.5)"/>
</clipPath>
<clipPath id="clip1">
<rect width="32" height="32" fill="white" transform="translate(16 16)"/>
</clipPath>
</defs>
</svg>
