<svg width="25" height="25" viewBox="0 0 25 25" fill="none" xmlns="http://www.w3.org/2000/svg">
<path fill-rule="evenodd" clip-rule="evenodd" d="M18.2 7.72727C18.2 10.8904 15.648 13.4545 12.5 13.4545C9.35196 13.4545 6.79998 10.8904 6.79998 7.72727C6.79998 4.56419 9.35196 2 12.5 2C15.648 2 18.2 4.56419 18.2 7.72727ZM15.92 7.72727C15.92 9.62512 14.3888 11.1636 12.5 11.1636C10.6112 11.1636 9.07998 9.62512 9.07998 7.72727C9.07998 5.82942 10.6112 4.29091 12.5 4.29091C14.3888 4.29091 15.92 5.82942 15.92 7.72727Z" fill="#3F8AE0"/>
<path fill-rule="evenodd" clip-rule="evenodd" d="M12.5 14.6C9.51601 14.6 7.20341 14.9834 5.59855 15.8287C4.77885 16.2604 4.11549 16.8276 3.66099 17.5489C3.20381 18.2745 3 19.0896 3 19.9455V20.3273C2.99999 21.8034 4.19092 23 5.66 23H19.34C20.8096 23 22 21.8023 22 20.3267V19.9455C22 19.0896 21.7962 18.2745 21.339 17.5489C20.8845 16.8276 20.2212 16.2604 19.4015 15.8287C17.7966 14.9834 15.484 14.6 12.5 14.6ZM5.28 19.9454C5.28 19.465 5.39046 19.0869 5.58737 18.7744C5.78696 18.4576 6.11749 18.1419 6.65707 17.8577C7.77074 17.2711 9.63815 16.8909 12.5 16.8909C15.3619 16.8909 17.2293 17.2711 18.3429 17.8577C18.8825 18.1419 19.213 18.4576 19.4126 18.7744C19.6095 19.0869 19.72 19.465 19.72 19.9454V20.3267C19.72 20.5381 19.5493 20.7091 19.34 20.7091H5.66C5.45013 20.7091 5.28 20.5381 5.28 20.3273L5.28 19.9454Z" fill="#3F8AE0"/>
</svg>
