<svg width="42" height="42" viewBox="0 0 42 42" fill="none" xmlns="http://www.w3.org/2000/svg">
<rect width="42" height="42" rx="12" fill="#3E7ACA" fill-opacity="0.1"/>
<path d="M17.0869 28.6523C20.4486 28.6523 23.1738 25.9271 23.1738 22.5654C23.1738 19.2037 20.4486 16.4785 17.0869 16.4785C13.7252 16.4785 11 19.2037 11 22.5654C11 25.9271 13.7252 28.6523 17.0869 28.6523Z" stroke="#3E7ACA" stroke-width="2" stroke-miterlimit="10"/>
<path d="M24.9131 28.6523C28.2747 28.6523 30.9999 25.9271 30.9999 22.5654C30.9999 19.2037 28.2747 16.4785 24.9131 16.4785C21.5514 16.4785 18.8262 19.2037 18.8262 22.5654C18.8262 25.9271 21.5514 28.6523 24.9131 28.6523Z" stroke="#3E7ACA" stroke-width="2" stroke-miterlimit="10"/>
<path d="M25.3479 16.4782H24.4784L22.7393 14.7391L23.6088 13H26.2175L27.087 14.7391L25.3479 16.4782Z" stroke="#3E7ACA" stroke-width="2" stroke-miterlimit="10"/>
</svg>
